<svg width="67" height="61" viewBox="0 0 67 61" fill="none" xmlns="http://www.w3.org/2000/svg">
<path d="M59.8333 7.45833H7.16665V53.5417L37.7528 22.9489C38.3701 22.3318 39.2072 21.9852 40.08 21.9852C40.9529 21.9852 41.79 22.3318 42.4072 22.9489L59.8333 40.4079V7.45833ZM0.583313 4.14363C0.589337 3.27916 0.935193 2.45177 1.54617 1.84017C2.15714 1.22858 2.98419 0.881895 3.84865 0.875H63.1513C64.9551 0.875 66.4166 2.33979 66.4166 4.14363V56.8564C66.4106 57.7208 66.0648 58.5482 65.4538 59.1598C64.8428 59.7714 64.0158 60.1181 63.1513 60.125H3.84865C2.98232 60.1241 2.15178 59.7794 1.53951 59.1665C0.927233 58.5536 0.583313 57.7227 0.583313 56.8564V4.14363ZM20.3333 27.2083C18.5873 27.2083 16.9128 26.5147 15.6782 25.2801C14.4436 24.0455 13.75 22.371 13.75 20.625C13.75 18.879 14.4436 17.2045 15.6782 15.9699C16.9128 14.7353 18.5873 14.0417 20.3333 14.0417C22.0793 14.0417 23.7538 14.7353 24.9884 15.9699C26.223 17.2045 26.9166 18.879 26.9166 20.625C26.9166 22.371 26.223 24.0455 24.9884 25.2801C23.7538 26.5147 22.0793 27.2083 20.3333 27.2083Z" fill="#009643"/>
</svg>
