<svg width="67" height="67" viewBox="0 0 67 67" fill="none" xmlns="http://www.w3.org/2000/svg">
<path d="M49.9583 13.75H66.4166V20.3334H59.8333V63.125C59.8333 63.998 59.4865 64.8353 58.8692 65.4526C58.2519 66.0699 57.4146 66.4167 56.5416 66.4167H10.4583C9.58531 66.4167 8.74806 66.0699 8.13075 65.4526C7.51345 64.8353 7.16665 63.998 7.16665 63.125V20.3334H0.583313V13.75H17.0416V3.87504C17.0416 3.00204 17.3884 2.16479 18.0058 1.54748C18.6231 0.930173 19.4603 0.583374 20.3333 0.583374H46.6666C47.5396 0.583374 48.3769 0.930173 48.9942 1.54748C49.6115 2.16479 49.9583 3.00204 49.9583 3.87504V13.75ZM23.625 30.2084V49.9584H30.2083V30.2084H23.625ZM36.7916 30.2084V49.9584H43.375V30.2084H36.7916ZM23.625 7.16671V13.75H43.375V7.16671H23.625Z" fill="white"/>
</svg>
