<svg width="93" height="99" viewBox="0 0 93 99" fill="none" xmlns="http://www.w3.org/2000/svg">
<path fill-rule="evenodd" clip-rule="evenodd" d="M7.18664 66.1359C7.11643 66.1359 6.97603 66.2061 6.97603 66.2764C6.90582 66.4168 6.90582 66.5572 6.90582 66.838C6.76541 67.189 7.18664 67.54 7.32705 67.9612C7.32705 68.0315 7.53766 68.0315 7.53766 68.0315C7.88868 67.7506 8.2397 67.3996 8.52051 67.1188C8.59072 67.0486 8.59072 66.9082 8.52051 66.838C8.2397 66.3466 7.81847 65.9253 7.18664 66.1359Z" fill="#E20F7C"/>
<path fill-rule="evenodd" clip-rule="evenodd" d="M5.71233 67.4699C5.64213 67.1891 5.36131 66.9082 5.01029 66.9784C4.94009 66.9784 4.79968 67.0486 4.79968 67.0486C4.79968 67.0486 4.79968 67.1891 4.86989 67.2593C5.1507 67.5401 5.36131 67.8209 5.29111 68.2421C5.29111 68.3825 5.29111 68.5931 5.29111 68.8037C5.29111 68.8739 5.43152 68.9442 5.50172 68.9442C5.85274 68.9442 6.27397 68.5229 6.06335 68.2421C5.85274 67.9613 5.85274 67.6805 5.71233 67.4699Z" fill="#E20F7C"/>
<path fill-rule="evenodd" clip-rule="evenodd" d="M10.4161 70.278C10.3459 70.2078 10.2757 69.9972 10.1353 70.1376C9.99485 70.2078 9.85444 70.4184 9.85444 70.4184C10.0651 70.7694 9.78424 70.98 9.78424 71.2609C9.78424 71.3311 9.85444 71.3311 9.85444 71.4013C9.92465 71.3311 10.0651 71.2609 10.1353 71.1907C10.6267 70.98 10.6969 70.6992 10.4161 70.278Z" fill="#E20F7C"/>
<path fill-rule="evenodd" clip-rule="evenodd" d="M4.30821 63.1172C4.238 63.1172 4.1678 63.1874 4.0976 63.2576C4.0976 63.398 4.0976 63.5384 4.0976 63.6788C4.0976 63.8894 4.0976 64.0298 4.0976 64.2404C4.0976 64.3808 4.1678 64.3808 4.238 64.3808C4.51882 64.2404 4.65923 64.0298 4.58902 63.6788C4.65923 63.4682 4.44862 63.1874 4.30821 63.1172Z" fill="#E20F7C"/>
<path fill-rule="evenodd" clip-rule="evenodd" d="M27.1245 82.0722V82.002C26.8437 81.5808 26.3523 81.5106 26.0012 81.3702C25.931 81.5106 25.8608 81.5808 25.8608 81.651C25.8608 81.7212 25.931 81.8616 25.931 81.8616C26.0715 81.8616 26.1417 81.9318 26.2821 81.9318C26.3523 82.002 26.4225 82.0722 26.4927 82.0722C26.5629 82.002 26.4927 82.002 26.4927 81.9318C26.6331 82.002 26.8437 82.0722 26.9841 82.1424C26.9139 82.1424 27.0543 82.0722 27.1245 82.0722Z" fill="#E20F7C"/>
<path fill-rule="evenodd" clip-rule="evenodd" d="M6.41431 69.5057C6.27391 69.4355 6.06329 69.5759 6.06329 69.7865C6.06329 70.1376 6.1335 70.278 6.34411 70.3482C6.48452 70.3482 6.83554 70.1376 6.90574 69.9972C6.90574 69.8567 6.62493 69.5759 6.41431 69.5057Z" fill="#E20F7C"/>
<path fill-rule="evenodd" clip-rule="evenodd" d="M9.08218 68.5229L9.01198 68.4527L8.94177 68.5229C8.94177 68.8739 8.94177 69.2249 8.94177 69.576C8.94177 69.6462 9.01198 69.6462 9.01198 69.7164C9.01198 69.7164 9.08218 69.6462 9.15238 69.6462C9.5034 69.3654 9.5034 69.2951 9.29279 68.8739C9.22259 68.7335 9.15238 68.5931 9.08218 68.5229Z" fill="#E20F7C"/>
<path fill-rule="evenodd" clip-rule="evenodd" d="M7.46744 65.1531C7.46744 65.0829 7.39724 65.0829 7.39724 65.0829C7.18663 65.0829 6.97601 65.4339 6.97601 65.7147C6.97601 65.7849 7.04622 65.7849 7.04622 65.8551C7.18663 65.7849 7.46744 65.3637 7.46744 65.1531Z" fill="#E20F7C"/>
<path fill-rule="evenodd" clip-rule="evenodd" d="M7.53763 71.0502C7.46743 71.1907 7.46743 71.2609 7.60783 71.4013C7.67804 71.4013 7.74824 71.3311 7.74824 71.3311C7.74824 71.1907 7.67804 71.1204 7.60783 70.98C7.60783 70.98 7.53763 71.0502 7.53763 71.0502Z" fill="#E20F7C"/>
<path fill-rule="evenodd" clip-rule="evenodd" d="M30.0029 88.6012C30.0731 88.6012 30.1433 88.531 30.2135 88.531C30.1433 88.4608 30.0731 88.3906 30.0029 88.3906H29.9327C29.7923 88.3204 29.6519 88.2502 29.5817 88.3204C29.6519 88.3906 29.6519 88.3906 29.6519 88.4608C29.7221 88.531 29.8625 88.531 29.9327 88.531C29.9327 88.6012 29.9327 88.6012 30.0029 88.6012Z" fill="#E20F7C"/>
<path fill-rule="evenodd" clip-rule="evenodd" d="M14.0667 24.505C13.9965 24.505 13.9965 24.6454 13.9965 24.7156C14.0667 24.7156 14.1369 24.7156 14.2071 24.6454C14.2071 24.5752 14.1369 24.505 14.0667 24.505Z" fill="#E20F7C"/>
<path fill-rule="evenodd" clip-rule="evenodd" d="M13.7858 24.9262C13.7858 24.9964 13.856 24.9964 13.9262 24.9964C13.9262 24.9262 13.9262 24.856 13.9262 24.7156C13.856 24.7156 13.7156 24.7858 13.7858 24.9262Z" fill="#E20F7C"/>
<path fill-rule="evenodd" clip-rule="evenodd" d="M4.44867 32.7189V32.7891C4.51887 32.7891 4.58908 32.8593 4.65928 32.8593C4.65928 32.7891 4.58908 32.6487 4.44867 32.7189Z" fill="#E20F7C"/>
<path fill-rule="evenodd" clip-rule="evenodd" d="M3.39566 34.825L3.46586 34.7548C3.39566 34.6144 3.32545 34.6144 3.25525 34.7548C3.32545 34.7548 3.32545 34.7548 3.39566 34.825Z" fill="#E20F7C"/>
<path fill-rule="evenodd" clip-rule="evenodd" d="M2.48298 36.0887C2.41278 36.0887 2.41278 36.1589 2.41278 36.2993C2.48298 36.2993 2.55319 36.2993 2.62339 36.2993C2.62339 36.1589 2.62339 36.0185 2.48298 36.0887Z" fill="#E20F7C"/>
<path fill-rule="evenodd" clip-rule="evenodd" d="M2.41276 36.2993C2.27235 36.2993 2.20215 36.3695 2.20215 36.5801C2.27235 36.5801 2.34256 36.5801 2.41276 36.5801C2.41276 36.4397 2.41276 36.3695 2.41276 36.2993Z" fill="#E20F7C"/>
<path fill-rule="evenodd" clip-rule="evenodd" d="M2.13186 36.5801C2.06166 36.5801 1.99146 36.6503 1.99146 36.6503V36.7205C2.06166 36.7205 2.06166 36.6503 2.13186 36.5801Z" fill="#E20F7C"/>
<path fill-rule="evenodd" clip-rule="evenodd" d="M18.6299 80.1065L18.7001 80.0363L18.6299 79.9661C18.6299 80.0363 18.5597 80.0363 18.5597 80.1065C18.5597 80.1065 18.5597 80.1065 18.6299 80.1065Z" fill="#E20F7C"/>
<path fill-rule="evenodd" clip-rule="evenodd" d="M22.9825 81.4404C23.0527 81.5808 23.0527 81.5808 23.123 81.5106V81.4404L23.0527 81.3702C23.0527 81.3702 22.9825 81.4404 22.9825 81.4404Z" fill="#E20F7C"/>
<path fill-rule="evenodd" clip-rule="evenodd" d="M28.1074 87.8992L28.1776 87.9694L28.2478 87.8992L28.1776 87.829C28.1074 87.8992 28.1074 87.8992 28.1074 87.8992Z" fill="#E20F7C"/>
<path fill-rule="evenodd" clip-rule="evenodd" d="M33.3025 88.4608L33.2323 88.3906C33.0919 88.4608 33.0919 88.531 33.2323 88.531C33.2323 88.6012 33.3025 88.531 33.3025 88.4608Z" fill="#E20F7C"/>
<path fill-rule="evenodd" clip-rule="evenodd" d="M78.7244 16.8528C78.8648 16.6422 78.7946 16.2911 78.4436 15.9401C78.233 16.1507 78.7244 16.572 78.7244 16.8528Z" fill="#E20F7C"/>
<path fill-rule="evenodd" clip-rule="evenodd" d="M46.7817 5.19894C46.2201 5.12873 47.4838 5.05853 46.7817 4.91812C46.7817 5.12873 46.2201 4.91812 46.0095 4.98833C45.8691 5.19894 46.6413 5.40955 46.7817 5.19894Z" fill="#E20F7C"/>
<path fill-rule="evenodd" clip-rule="evenodd" d="M28.2478 6.8136C27.8266 6.95401 27.8266 7.09442 27.8968 7.30503C28.318 7.23482 28.3882 7.02421 28.2478 6.8136Z" fill="#E20F7C"/>
<path fill-rule="evenodd" clip-rule="evenodd" d="M52.4682 5.62016C52.1873 5.62016 51.9767 5.76057 51.6257 5.76057C51.6257 5.54996 49.66 5.12874 49.2388 5.40955C50.2918 5.54996 51.2045 5.69037 52.1873 5.83078C52.6788 5.90098 53.1702 5.97118 53.6616 6.11159C54.153 6.18179 54.6445 6.3222 55.2061 6.39241C54.9955 6.04139 54.4339 5.97118 53.9424 5.90098C53.3808 5.90098 52.8192 5.90098 52.4682 5.62016Z" fill="#E20F7C"/>
<path fill-rule="evenodd" clip-rule="evenodd" d="M48.8878 4.84788C48.3262 4.77768 48.3262 5.0585 47.7645 4.98829C47.9751 5.1989 47.3433 5.26911 47.7645 5.33931C47.9049 5.0585 48.607 5.1287 48.8878 4.84788Z" fill="#E20F7C"/>
<path fill-rule="evenodd" clip-rule="evenodd" d="M2.48288 35.8079C2.62328 35.176 2.8339 34.7548 2.9743 34.4038C2.8339 34.4038 2.69349 34.7548 2.55308 35.1058C2.48288 35.527 2.41267 35.9483 2.48288 35.8079Z" fill="#E20F7C"/>
<path fill-rule="evenodd" clip-rule="evenodd" d="M23.7547 16.3613C24.0355 16.2209 24.1057 16.3613 24.3865 16.0805C24.3865 15.8699 23.6143 16.2209 23.7547 16.3613Z" fill="#E20F7C"/>
<path fill-rule="evenodd" clip-rule="evenodd" d="M54.6445 1.4781L54.9955 1.6185C55.0657 1.4781 54.9253 1.40789 54.9253 1.33769C54.7147 1.26748 54.5041 1.26748 54.4339 1.33769C54.7849 1.40789 54.8551 1.40789 54.6445 1.4781Z" fill="#E20F7C"/>
<path fill-rule="evenodd" clip-rule="evenodd" d="M57.5931 8.2879L58.0846 8.42831C58.225 8.2177 57.5931 8.07729 57.5931 8.2879Z" fill="#E20F7C"/>
<path fill-rule="evenodd" clip-rule="evenodd" d="M59.7694 6.32217C59.6992 6.25197 59.1375 5.97115 59.0673 6.04135C59.3481 6.18176 59.5587 6.46258 59.7694 6.32217Z" fill="#E20F7C"/>
<path fill-rule="evenodd" clip-rule="evenodd" d="M60.1906 9.06015C59.9098 8.91974 59.629 8.91974 59.4886 8.91974C59.6992 8.91974 60.1906 9.27076 60.1906 9.06015Z" fill="#E20F7C"/>
<path fill-rule="evenodd" clip-rule="evenodd" d="M61.4543 8.91973C61.5947 8.84953 61.3841 8.70912 61.1735 8.63892C60.9629 8.56871 60.7522 8.56871 60.9628 8.70912C61.1033 8.56871 61.1735 8.84953 61.4543 8.91973Z" fill="#E20F7C"/>
<path fill-rule="evenodd" clip-rule="evenodd" d="M61.6649 8.98993C62.0861 9.20054 62.1563 9.13034 62.4371 9.34095C62.5775 9.20054 61.6649 8.84952 61.6649 8.98993Z" fill="#E20F7C"/>
<path fill-rule="evenodd" clip-rule="evenodd" d="M66.6494 11.3769C66.4388 11.2364 66.3686 11.1662 66.2984 10.9556C66.2282 11.0258 66.0878 10.8854 66.0878 10.9556C66.0878 11.0258 66.4388 11.3769 66.6494 11.3769Z" fill="#E20F7C"/>
<path fill-rule="evenodd" clip-rule="evenodd" d="M69.5979 7.23484C69.3171 7.16463 68.8257 6.67321 68.8257 6.88382C69.1767 7.09443 69.5277 7.37525 69.5979 7.23484Z" fill="#E20F7C"/>
<path fill-rule="evenodd" clip-rule="evenodd" d="M69.4575 14.3957C69.7383 14.6063 70.0192 14.8871 70.2298 15.0977C70.2298 14.9573 69.6681 14.3957 69.4575 14.3957Z" fill="#E20F7C"/>
<path fill-rule="evenodd" clip-rule="evenodd" d="M73.8102 14.3957C74.0209 14.6063 74.2315 14.7467 74.3719 14.7467C74.3017 14.5361 73.9506 14.3957 73.8102 14.3957Z" fill="#E20F7C"/>
<path fill-rule="evenodd" clip-rule="evenodd" d="M75.0036 17.8356C74.793 17.625 74.442 17.4144 74.5122 17.274C74.6526 17.3442 74.9334 17.7654 75.0036 17.6952C74.6526 17.0634 73.8102 16.8528 73.1783 16.4315C73.5294 16.8528 74.5824 17.625 75.0036 17.8356Z" fill="#E20F7C"/>
<path fill-rule="evenodd" clip-rule="evenodd" d="M82.7261 20.9948C82.9367 21.2756 83.1473 21.1352 83.0771 20.9948L82.8665 20.714C82.7963 20.7842 82.9367 20.9948 82.7261 20.9948Z" fill="#E20F7C"/>
<path fill-rule="evenodd" clip-rule="evenodd" d="M84.6918 26.1899C84.2004 25.6985 84.3408 25.4177 83.8494 24.9964C83.8494 25.1368 84.411 26.3303 84.6918 26.1899Z" fill="#E20F7C"/>
<path fill-rule="evenodd" clip-rule="evenodd" d="M87.0085 30.8233C87.0787 30.7531 87.2191 30.7531 87.2893 30.8233C86.9383 30.2617 86.8681 29.7001 86.5171 29.2789C86.5873 29.4895 86.1661 29.2087 86.0257 28.8576C85.9555 28.9278 85.8853 28.9278 85.8853 29.0682C86.3767 29.7703 86.8681 29.8405 87.0085 30.8233Z" fill="#E20F7C"/>
<path fill-rule="evenodd" clip-rule="evenodd" d="M87.4999 30.4723L87.7105 31.0339C87.9212 31.1042 87.6403 30.2617 87.4999 30.4723Z" fill="#E20F7C"/>
<path fill-rule="evenodd" clip-rule="evenodd" d="M87.3596 31.8764C87.4298 31.8062 87.5702 31.8062 87.5702 31.6658C87.2894 31.8062 87.5702 31.034 87.2192 31.1042C87.2894 31.385 87.2894 31.5254 87.3596 31.8764Z" fill="#E20F7C"/>
<path fill-rule="evenodd" clip-rule="evenodd" d="M83.8493 74.6306C83.6387 74.771 83.7089 74.9114 83.4281 75.1922C83.4983 75.4029 83.9195 75.1922 83.9195 74.9114C83.8493 74.9816 83.7089 75.122 83.6387 75.122C83.5685 75.0518 83.9195 74.7008 83.8493 74.6306Z" fill="#E20F7C"/>
<path fill-rule="evenodd" clip-rule="evenodd" d="M66.2281 90.4265C66.6494 90.1457 67.1408 89.9351 67.0706 89.7947C66.7196 90.1457 66.1579 90.2159 65.9473 90.4265C66.0877 90.3563 66.1579 90.2861 66.2281 90.4265Z" fill="#E20F7C"/>
<path fill-rule="evenodd" clip-rule="evenodd" d="M55.4167 94.4984C55.6975 94.4282 55.9082 94.2878 55.9082 94.1474C55.6273 94.2878 55.2061 94.358 55.4167 94.4984Z" fill="#E20F7C"/>
<path fill-rule="evenodd" clip-rule="evenodd" d="M45.167 96.2534C44.3246 96.3939 43.9033 96.3237 43.2013 96.3939C43.7629 96.5343 44.6054 96.6045 45.0968 96.3939C44.8862 96.3939 45.0968 96.3237 45.167 96.2534Z" fill="#E20F7C"/>
<path fill-rule="evenodd" clip-rule="evenodd" d="M44.0437 95.9024C44.3245 95.762 44.7457 95.6918 44.9564 95.5514C44.3947 95.5514 44.1139 95.5514 44.0437 95.9024Z" fill="#E20F7C"/>
<path fill-rule="evenodd" clip-rule="evenodd" d="M43.0609 95.9025C43.2715 95.7621 43.5523 96.1131 43.9033 95.9025C43.9033 95.7621 43.8331 95.6216 43.6927 95.6216C43.3417 95.6918 43.0609 95.7621 42.6396 95.7621C42.7098 95.9727 42.6396 95.9025 42.78 96.1131C42.5694 96.1131 42.4992 96.1833 42.6396 96.2535C42.78 96.1131 43.3417 96.1833 43.4821 95.9727C43.2715 95.9727 43.1311 95.9727 43.0609 95.9025Z" fill="#E20F7C"/>
<path fill-rule="evenodd" clip-rule="evenodd" d="M41.2355 96.4641C41.7971 96.8151 41.2355 96.5343 41.7269 96.4641C42.0077 96.3939 42.4289 96.6045 42.5694 96.3939C41.9375 96.4641 41.7269 96.3939 41.2355 96.4641Z" fill="#E20F7C"/>
<path fill-rule="evenodd" clip-rule="evenodd" d="M37.585 96.1131C38.0062 96.1833 38.989 96.2535 38.9188 96.1833C38.3572 96.1131 37.8658 96.0429 37.585 96.1131Z" fill="#E20F7C"/>
<path fill-rule="evenodd" clip-rule="evenodd" d="M35.9702 95.3408C36.251 95.411 36.3212 95.2706 36.5318 95.411C36.7424 95.2004 35.9 95.1302 35.9702 95.3408Z" fill="#E20F7C"/>
<path fill-rule="evenodd" clip-rule="evenodd" d="M34.847 94.2175C35.2682 94.2175 35.3384 94.358 35.549 94.2877C35.4788 94.2175 34.847 94.0069 34.847 94.2175Z" fill="#E20F7C"/>
<path fill-rule="evenodd" clip-rule="evenodd" d="M33.5833 87.5482C33.8641 87.6184 34.2151 87.829 34.4258 87.7588L34.496 87.6184C34.0747 87.478 33.8641 87.5482 33.5833 87.5482Z" fill="#E20F7C"/>
<path fill-rule="evenodd" clip-rule="evenodd" d="M28.9498 88.5311C29.3008 88.6013 29.4413 88.7417 29.6519 88.7417C29.5817 88.6715 29.5817 88.6715 29.5817 88.6013C29.3009 88.4609 28.9498 88.2502 28.9498 88.5311Z" fill="#E20F7C"/>
<path fill-rule="evenodd" clip-rule="evenodd" d="M26.7034 89.5841C26.8438 89.6543 26.8438 89.7245 26.8438 89.7947C27.3352 89.8649 27.4756 89.9351 27.8266 89.9351C27.4054 89.7245 27.3352 89.7947 27.0544 89.5841C27.1948 89.7947 26.7034 89.4437 26.7034 89.5841Z" fill="#E20F7C"/>
<path fill-rule="evenodd" clip-rule="evenodd" d="M25.0886 82.0722C25.3694 82.2126 25.5098 82.3531 25.7205 82.4935C25.9311 82.002 26.4225 82.9849 26.7033 82.6339C26.4927 82.5637 26.0013 82.4935 26.1417 82.2127C26.4927 82.2127 26.9841 82.7743 27.0543 82.4233C26.4927 82.2126 26.1417 82.0722 25.7205 81.7212C25.9311 82.1424 25.3694 81.7914 25.5801 82.2127C25.5098 82.2127 25.1588 81.8616 25.0886 82.0722Z" fill="#E20F7C"/>
<path fill-rule="evenodd" clip-rule="evenodd" d="M14.8389 81.5808C14.5581 81.7212 14.9793 82.0021 15.19 82.0021C14.9091 81.8617 15.1197 81.7212 14.8389 81.5808Z" fill="#E20F7C"/>
<path fill-rule="evenodd" clip-rule="evenodd" d="M11.1883 79.9661C11.4691 80.0363 10.767 79.1939 10.5564 79.1237C10.5564 79.4045 10.416 79.6151 10.5564 79.8959C10.6968 79.8959 10.8372 79.6853 11.0478 79.8959C11.0478 80.0363 11.7499 80.8788 11.8903 80.6682C11.7499 80.4576 11.4691 80.2469 11.1883 79.9661Z" fill="#E20F7C"/>
<path fill-rule="evenodd" clip-rule="evenodd" d="M49.1686 93.2347C49.3793 93.2347 49.5197 93.1645 49.7303 93.1645C49.5197 93.1645 49.309 93.1645 49.1686 93.2347Z" fill="#E20F7C"/>
<path fill-rule="evenodd" clip-rule="evenodd" d="M92.1334 48.2339C92.0632 46.9703 91.993 45.7066 91.9228 44.5131C91.9228 44.2323 91.8526 43.8813 91.8526 43.6005C91.7824 43.3197 91.7824 43.0388 91.7122 42.758C91.642 42.1964 91.5718 41.6348 91.5016 41.0731C91.2208 40.6519 91.291 38.967 90.7293 38.616C90.7293 37.9842 90.6591 37.7034 90.3783 37.1417C90.7995 37.2821 90.2379 36.4397 90.5187 36.5099C90.2379 36.0185 90.3783 35.3164 90.0975 35.176C90.2379 35.878 90.5187 36.2993 90.3081 36.5801C90.1677 35.878 89.8869 35.2462 89.9571 34.7548C89.7465 34.2634 89.1848 33.3507 89.255 32.9295C88.9742 32.9997 89.1146 32.2976 88.8338 32.087C88.6934 32.087 88.7636 32.2976 88.6934 32.1572C88.4126 31.8062 88.4828 31.1744 88.202 30.8234C88.2722 30.9638 88.2722 31.1042 88.202 31.1042C88.0616 30.8234 88.202 30.7532 87.9914 30.4021C87.7808 30.4723 88.0616 30.8936 88.0616 31.1042C88.3424 31.2446 88.8338 32.5083 88.7636 32.7189C88.553 32.3678 88.3424 32.2976 88.4126 31.8764C88.202 31.8764 88.4126 32.1572 88.2722 32.1572C88.4126 32.5083 88.6232 32.4381 88.6934 32.8593C88.553 32.8593 88.3424 32.6487 88.202 32.5785C88.3424 32.9997 88.553 32.7891 88.6934 33.1401C88.6232 33.2805 88.4126 32.8593 88.4828 33.2103C88.553 33.2103 88.553 33.2805 88.6232 33.3507C88.553 33.3507 88.553 33.3507 88.4828 33.3507C88.4126 33.4209 88.3424 33.4209 88.2722 33.4911C88.2722 33.4209 88.3424 33.4209 88.3424 33.4209C88.1318 33.1401 88.202 33.0699 88.1318 32.7891C87.9914 32.8593 88.1318 33.3507 88.202 33.5613C88.0616 33.6315 87.9212 33.7017 87.7106 33.7719C87.7106 33.7719 87.6404 33.7719 87.6404 33.7017C87.6404 33.6315 87.5702 33.4911 87.5702 33.4209C87.5702 33.2805 87.5702 33.2103 87.4297 33.0699C87.2893 32.7189 87.2191 32.4381 87.3595 32.2274C87.0085 32.0168 86.5873 30.6128 86.5873 30.1915C86.4469 30.1915 86.3065 30.0511 86.1661 29.7703C86.1661 29.7001 86.1661 29.6299 86.1661 29.4895C86.1661 29.3491 86.0959 29.3491 85.9555 29.3491C85.8853 29.1385 85.815 28.9981 85.8853 28.9279C85.7448 28.7874 85.5342 28.5768 85.3938 28.4364C85.3236 28.296 85.2534 28.1556 85.2534 28.0152C85.2534 28.0152 85.2534 28.0152 85.3236 28.0152C85.113 27.5238 84.9024 27.1026 84.6216 26.6813C84.1302 25.6985 83.4983 24.7858 82.8665 23.9434C82.6559 23.5222 82.3751 23.1711 82.1644 22.6797C82.0942 22.7499 82.024 22.6797 81.8836 22.6095C81.8134 22.1883 81.3922 21.6968 80.971 21.2756C80.9008 20.9948 80.7604 20.6438 80.5498 20.363C80.5498 20.363 80.5498 20.2928 80.62 20.2928C80.4795 20.1524 80.4093 20.0822 80.4093 20.0822C80.3391 20.012 80.2689 19.9417 80.1987 19.8715C79.9179 19.5907 79.6371 19.2397 79.4265 18.9589C79.1457 18.6781 78.8649 18.3973 78.7244 18.0462C78.0926 17.0634 77.4608 16.0103 76.7587 15.0977C75.9865 14.185 75.2143 13.2724 74.091 12.7107C73.8804 12.5001 73.8804 12.8511 73.6698 12.7107C73.0379 12.0789 72.1955 11.5875 71.2828 10.9556C70.3702 10.394 69.4575 9.83238 68.6151 9.34095C67.4216 8.56871 66.3686 7.65606 65.0347 7.16463C64.2624 6.88381 63.5604 6.7434 62.8584 6.6732C62.1563 6.603 61.5947 6.6732 60.9628 6.88381C59.7694 6.39238 58.1547 6.95402 57.1016 6.11157C56.8208 6.11157 56.8208 6.39239 56.3996 6.25198C56.1188 6.18177 56.1188 6.04136 55.9784 5.97116C55.6273 6.32218 55.7678 6.32218 55.5571 6.53279C56.4698 6.603 56.8208 6.7434 57.6633 6.6732C57.8739 6.7434 57.9441 6.88381 58.2249 6.95402C60.0502 6.95402 62.2265 7.16463 64.5432 7.93687C66.7196 8.70912 68.6151 10.3238 70.2298 10.745C70.5106 10.9556 70.2298 11.1663 70.3702 11.3769C71.2828 11.5875 71.6339 12.4299 72.4763 12.9214C73.1081 13.3426 73.8102 13.4128 74.5122 13.9042C75.1441 14.4658 75.6355 14.9573 76.0567 15.5189C76.4779 16.0805 76.9694 16.7124 77.6012 17.4144C77.6012 17.4846 77.6012 17.4846 77.6012 17.5548C77.2502 17.274 77.0396 17.0634 76.5481 16.6422C76.6183 16.5018 76.8289 16.8528 76.8991 16.7826C76.5481 16.4316 76.1971 16.1507 75.9163 15.9401C75.6355 15.6593 75.4249 15.4487 75.2143 15.0275C75.0738 15.2381 74.6526 14.8169 74.442 14.8871C74.8632 15.3083 75.4249 15.7997 75.4249 16.2911C75.0036 16.0805 75.0738 15.6593 74.793 15.6593C75.0738 16.1507 75.3547 16.4316 75.7759 16.7124C76.1269 16.9932 76.5481 17.274 76.9694 17.7654C76.8991 17.8356 76.8289 17.8356 76.7587 17.8356C76.9694 18.2569 77.3906 18.4675 77.7416 18.7483C77.8118 18.8887 77.882 18.9589 77.9522 19.0993C77.882 19.0993 77.8118 19.0291 77.7416 19.0291C77.8118 19.1695 77.882 19.3099 77.9522 19.4503C77.882 19.3801 77.8118 19.3801 77.8118 19.3801C77.882 19.4503 77.9522 19.5205 78.0224 19.5907C78.0224 19.6609 78.0224 19.7311 78.0224 19.8013C77.4608 19.5205 76.9694 19.3801 76.4077 19.2397C76.3375 19.0993 76.2673 19.0291 76.2673 18.8887L76.1269 19.0291C76.1971 19.0993 76.2673 19.1695 76.2673 19.1695C76.1971 19.1695 76.1269 19.1695 76.0567 19.0993C76.0567 19.0993 75.9865 19.0291 75.9865 18.9589C76.0567 18.8887 75.9163 18.6079 75.8461 18.8185C75.9163 18.8887 75.9865 18.9589 75.9163 19.0291C75.7759 18.9589 75.5653 18.8887 75.4249 18.7483C75.2845 18.6079 75.2142 18.3271 75.0738 18.1867C74.8632 17.976 74.3718 17.976 74.2314 18.1867C74.1612 18.2569 74.1612 18.3271 74.091 18.4675C73.9506 18.3973 73.74 18.2569 73.5996 18.1867C73.6698 17.9058 73.5996 17.5548 73.4592 17.274C73.4592 17.2038 73.3187 17.2038 73.2485 17.2038L73.1783 17.274C73.1783 17.274 73.1783 17.274 73.1783 17.3442C72.9677 17.274 72.6869 17.0634 72.6167 16.7826C72.5465 16.8528 72.5465 16.923 72.5465 17.0634C72.7571 17.2038 72.8975 17.274 73.1081 17.4846V17.5548C73.1783 17.6952 73.2485 17.7654 73.3187 17.9058C72.8273 17.4144 72.3359 17.0634 71.9147 16.7124C71.7743 16.6422 71.7041 16.572 71.6339 16.5018C71.6339 16.5018 71.6339 16.5018 71.7041 16.4316C71.7041 16.3613 71.6339 16.3613 71.6339 16.2911L71.5636 16.3613C71.2126 16.1507 70.9318 16.0103 70.5808 15.8699C70.4404 15.7295 70.3702 15.6593 70.3 15.5189C70.1596 15.4487 70.0894 15.3785 69.949 15.3083C68.1236 13.6234 65.6665 12.0087 62.9988 10.745C60.1204 9.41115 56.9612 8.56871 54.3637 8.28789C53.802 8.00708 53.2404 7.79646 52.6086 7.65606C51.9767 7.51565 51.3449 7.44544 50.5727 7.44544C49.7302 6.7434 48.1857 6.603 46.6412 6.6732C46.2902 6.6732 45.869 6.7434 45.518 6.7434C45.167 6.7434 44.8159 6.81361 44.4649 6.81361C43.7629 6.81361 43.2012 6.81361 42.78 6.6732C42.0078 7.58585 39.5506 7.37524 38.7082 7.09442C38.5678 7.44544 38.2168 7.58585 37.7955 7.65606C37.3743 7.72626 36.8829 7.72626 36.4617 7.65606C36.4617 7.51565 37.0233 7.23483 36.3915 7.37524C36.1106 7.37524 36.1106 7.58585 35.9702 7.65606C35.6894 7.51565 35.2682 7.44544 35.0576 7.23483C34.496 7.30504 34.4257 7.51565 33.8641 7.58585C34.0045 7.37524 34.0045 7.16463 34.3555 7.02422C35.1278 6.6732 35.3384 6.95402 35.7596 6.95402C35.6894 6.7434 35.4086 6.7434 35.8298 6.603C36.1106 7.09442 36.8127 6.25198 37.3041 6.6732C37.0233 6.7434 36.8127 6.81361 36.7425 6.95402C37.3041 6.7434 38.0061 6.53279 38.4976 6.39238C38.3572 6.39238 38.0764 6.39238 38.3572 6.32218C35.549 6.18177 32.9515 6.7434 30.4943 7.58585C28.0372 8.4283 25.7205 9.69197 23.4037 11.0961C23.0527 11.0258 22.4911 11.3067 21.9996 11.5173C20.8062 12.5703 19.8233 13.2022 20.0339 14.185C21.5082 13.132 22.6315 12.0789 25.3694 10.745C26.0013 10.6748 26.6331 10.745 26.9139 11.1663C24.9482 12.4299 22.4911 13.2022 20.8062 14.7467C20.5956 14.9573 20.5254 15.1679 20.3148 15.3083C18.8405 16.4316 17.998 16.923 17.0152 17.6952C15.0495 19.1695 13.3646 21.2756 11.7499 23.1009C11.3988 23.5222 10.6968 23.6626 10.6968 24.3646C11.1882 23.8732 11.6797 23.3817 12.1009 22.8903C12.5221 22.3989 12.9433 21.9075 13.1539 21.4862C13.7156 21.065 14.4176 20.4332 15.1197 19.8013C15.8919 19.1695 16.5939 18.4675 17.2258 17.976C17.5768 17.7654 17.9278 17.5548 18.2788 17.3442C18.6299 17.1336 18.9107 16.923 19.2617 16.7124C19.8935 16.2911 20.4552 15.8699 21.087 15.4487C22.2805 14.536 23.6143 13.6234 25.4396 12.8511C25.8609 13.2022 26.2119 12.8511 26.8437 12.6405C27.0543 13.132 27.5458 13.132 28.2478 12.8511C28.5286 12.5703 27.8968 12.6405 28.1776 12.3597C28.5988 12.3597 29.02 12.3597 29.2307 12.6405C28.8796 12.7809 28.5286 12.9916 28.318 12.9916C28.5988 13.3426 29.3711 12.9214 29.5817 13.4128C28.9498 13.7638 28.3882 14.1148 27.8266 14.4658C27.2649 14.8871 26.7735 15.2381 26.2821 15.6593C25.2992 16.5018 24.3164 17.274 23.1229 17.9058C22.7017 17.9058 22.3507 17.6952 21.8592 17.8356C21.8592 18.3271 22.7719 17.9058 23.1229 18.1164C22.9123 18.4675 22.4911 18.8185 22.1401 19.1695C22.0698 19.3099 21.9294 19.3801 21.8592 19.5205H21.789C21.3678 19.5907 20.8764 19.8013 20.6658 20.2226C20.6658 20.2928 20.5956 20.363 20.5254 20.4332C20.1743 20.714 19.8935 20.9246 19.6127 21.2054C19.6127 21.2054 19.6127 21.2054 19.5425 21.2054C19.5425 21.2756 19.4723 21.2756 19.4723 21.3458C19.4021 21.416 19.3319 21.416 19.3319 21.4862C18.9809 21.7671 18.5597 21.7671 18.0682 21.7671C17.9278 21.7671 17.8576 21.8373 17.7874 21.9777C17.7874 22.0479 17.7172 22.1883 17.647 22.1883C17.5066 22.3287 17.3662 22.6095 17.0854 22.3287C16.8046 22.3989 16.7343 22.5393 16.5939 22.7499C16.4535 23.1009 16.2429 23.3817 15.7515 23.3817C15.6813 23.3817 15.5409 23.3817 15.4707 23.4519C15.1899 23.803 14.6984 24.0136 14.558 24.505C14.4878 24.7858 14.207 24.7156 13.9964 24.7858C13.9964 24.856 13.9262 24.9964 13.856 24.9964C13.1539 25.207 12.6625 25.6283 12.1711 26.1197C11.8903 26.4005 11.6797 26.6111 11.3286 26.8217C10.8372 27.0323 10.2756 27.243 10.3458 27.945C10.3458 28.0152 10.2054 28.1556 10.065 28.296C9.92456 28.4364 9.71395 28.647 9.57354 28.7874C9.50334 28.8577 9.43314 29.0683 9.22252 28.8577C9.15232 28.7172 8.8715 28.647 9.08212 28.4364C9.15232 28.3662 9.15232 28.296 9.15232 28.1556C9.15232 28.0854 9.08212 28.0152 9.08212 27.8748C9.01191 27.8748 9.01191 27.945 8.94171 27.945C8.66089 28.1556 8.45028 28.5066 8.45028 28.8577C8.45028 29.0683 8.52048 29.1385 8.38008 29.2789C8.16946 29.4895 7.95885 29.7703 7.53763 29.7703C7.1164 29.7703 7.39722 30.0511 7.39722 30.1915C7.32702 30.4723 7.18661 30.8936 6.90579 30.9638C6.62498 31.4552 6.48457 31.5956 6.34416 31.8062C6.41437 31.5254 6.48457 31.2446 6.55477 31.034C7.11641 29.4193 8.52048 27.7344 9.08212 26.1899C9.78415 25.9793 9.22252 25.6985 9.99477 25.1368C9.92456 24.9262 9.78415 24.5752 9.57354 24.6454C9.50334 24.6454 9.36293 24.7156 9.22252 24.7858C8.8715 25.6985 8.38008 26.1899 8.09926 27.0323C6.41436 28.7172 5.50171 30.7532 4.79967 32.9295C4.72947 32.9295 4.65927 32.9295 4.58906 32.9295C4.58906 32.9997 4.65927 33.0699 4.72947 33.1401C4.72947 33.2103 4.72947 33.2103 4.65927 33.2805C4.58906 33.4911 4.51886 33.7017 4.44865 33.9123C4.30825 33.9825 4.23804 34.0527 4.09763 34.1229C3.88702 34.2634 3.67641 34.474 3.67641 34.7548C3.67641 35.6674 3.67641 35.6674 2.76376 36.2291C2.69355 36.2993 2.62335 36.2993 2.55315 36.2993C2.55315 36.4397 2.41274 36.5801 2.27233 36.5801C2.27233 36.7907 2.62335 37.0013 2.27233 37.2821C2.06172 37.4225 1.92131 37.5629 1.7809 37.7736C1.7107 37.8438 1.7107 37.914 1.6405 37.9842V37.914C1.6405 37.9842 1.57029 38.0544 1.57029 38.1246C1.50009 38.1948 1.42988 38.265 1.28948 38.3352C1.00866 38.4756 1.28948 38.7564 1.35968 38.8968C0.938456 39.4584 1.35968 40.2307 0.868252 40.7221C0.868252 41.0731 0.938456 41.4944 0.868252 41.8454C0.868252 42.2666 0.65764 42.6176 0.727844 43.0389C0.798048 43.3899 0.587436 43.5303 0.30662 43.6707C0.236416 43.6707 0.166212 43.8813 0.236416 43.8813C0.447028 44.1621 0.30662 44.4429 0.236416 44.7237C0.587436 45.145 0.517232 45.7066 0.517232 46.198C0.517232 46.6895 0.65764 47.2511 0.236416 47.6723C0.166212 47.7425 0.236416 47.9531 0.376824 48.0233C0.587436 48.0935 0.727844 48.1637 0.727844 48.3744C0.727844 48.585 0.727844 48.7254 0.727844 48.936C0.798048 49.7082 0.587436 50.4805 1.00866 51.2527C1.07886 51.3229 1.00866 51.5335 0.938456 51.6739C0.868252 51.8144 0.727844 51.8846 0.868252 52.025C1.07886 52.2356 1.00866 52.5164 1.00866 52.7972C0.938456 53.3588 0.938456 53.6397 1.07886 53.9205C1.28948 54.2715 1.42988 54.6927 1.7809 54.9735C1.92131 55.1139 2.06172 55.2543 2.06172 55.3947C2.06172 55.816 2.20213 56.2372 2.34253 56.5882C2.27233 57.2903 2.62335 57.9221 2.90417 58.5539C2.97437 58.6241 3.04457 58.7645 3.04457 58.7645C3.67641 58.6241 3.74661 59.1858 4.09763 59.3262C4.44865 59.5368 4.79967 59.6772 5.08049 59.8176C5.15069 59.958 5.2209 60.0984 5.2911 60.309C5.2911 60.3792 5.2911 60.3792 5.36131 60.4494C5.43151 60.5898 5.50171 60.8005 5.50171 60.9409C5.2911 61.1515 5.15069 61.3621 5.36131 61.7131C5.57192 62.0641 5.64212 62.5556 5.78253 62.9768C5.85273 63.1172 5.85273 63.2576 5.99314 63.3278C6.20375 63.398 6.27396 63.4682 6.20375 63.6788C6.13355 63.8894 6.13355 64.1702 5.99314 64.3107C5.64212 64.6617 6.13355 64.8723 6.13355 65.1531C6.13355 65.2935 6.41436 65.2935 6.48457 65.2233C6.76538 65.0127 6.976 64.8021 7.18661 64.5915C7.39722 64.3809 7.32702 64.2405 7.18661 64.0298C7.0462 63.6086 7.1164 63.1172 7.18661 62.6258C7.18661 62.5556 7.25681 62.5556 7.25681 62.5556L7.32702 62.6258C7.32702 62.9768 7.67804 63.1172 7.88865 63.398C7.95885 63.5384 7.60783 63.749 7.88865 63.8192C8.30987 63.9596 8.45028 64.2404 8.59069 64.5915C8.7311 65.0127 8.94171 65.4339 9.08212 65.8551C9.29273 66.3466 9.50334 66.7678 9.78415 67.189C9.85436 67.3294 9.92456 67.4698 9.92456 67.54C9.85436 68.0315 10.065 68.3825 10.416 68.5931C10.767 68.8739 10.767 69.2249 10.767 69.576C10.767 69.7866 10.6968 70.0674 10.9074 70.2078C11.3286 70.5588 11.3988 71.0502 11.6797 71.4715C11.8201 71.6821 11.8201 71.4013 11.8903 71.3311C11.9605 71.2608 11.9605 71.1906 12.0307 71.1204C12.0307 71.1906 12.1009 71.1906 12.1009 71.2608C12.1009 71.8225 12.2413 72.3139 11.9605 72.8755C11.7499 73.2266 11.8903 73.6478 12.1009 74.069C12.5221 74.7008 12.5221 74.8412 13.1539 75.0519C13.6454 75.2625 13.7858 75.3327 13.7858 75.8241C13.7858 76.2453 13.7858 76.6665 14.1368 76.9474C14.207 77.0176 14.2772 77.0878 14.2772 77.158C14.2772 77.7898 14.7686 78.1408 15.1197 78.4919C15.4005 78.7727 15.6813 79.1237 16.1025 79.2641C16.3131 79.6853 16.6641 79.9661 16.945 80.3172C17.2258 80.7384 17.8576 80.7384 17.998 81.3C17.998 81.3702 18.1384 81.3702 18.2086 81.2298C18.2788 81.1596 18.2086 81.0192 18.2788 80.949C18.2788 80.949 18.2788 80.8788 18.349 80.8788C18.5597 81.0192 18.8405 81.2298 19.0511 81.3702C18.9107 81.2298 18.7001 80.8788 18.4894 80.6682V80.598C18.5597 80.3874 18.349 80.3172 18.1384 80.247C17.998 80.247 17.8576 80.1065 17.8576 79.9661C17.8576 79.8959 17.7874 79.8257 17.7172 79.7555H17.7874C17.7172 79.6853 17.7172 79.6853 17.647 79.6151C17.4364 79.2641 17.0152 78.9833 16.8046 78.6323C16.6641 78.3514 16.3131 78.0706 16.3131 77.7898C16.3131 77.4388 16.5237 77.0878 16.6641 76.807C16.7343 76.6665 16.7343 76.5261 16.8046 76.4559C16.8046 76.3857 16.8748 76.3857 16.8748 76.3857C17.0152 76.3155 16.945 76.3155 16.945 76.5261C17.0152 76.8772 17.2258 76.9474 17.5066 76.9474C17.7874 76.9474 17.7172 77.0878 17.647 77.2984C17.5066 77.5792 17.8576 77.4388 17.998 77.5792C18.0682 77.6494 18.1384 77.7898 17.998 77.7898C17.5768 77.7898 17.647 78.0706 17.7874 78.2812C17.5768 78.4919 17.5768 78.7727 17.647 79.0535C17.647 79.1237 17.7172 79.1237 17.7172 79.1939C17.7172 79.1939 17.7874 79.1939 17.8576 79.1237C17.9278 79.0535 18.0682 78.9131 18.1384 78.8429C18.2788 78.2812 18.5597 78.0706 19.1213 78.0706C19.3319 78.211 19.5425 78.211 19.6829 78.211C19.6127 78.3514 19.6127 78.4919 19.6127 78.5621L19.5425 78.4919L19.6127 78.5621C19.6127 78.6323 19.6829 78.7025 19.7531 78.7727C19.8233 78.8429 19.8233 78.9833 19.7531 79.1237C19.6829 79.0535 19.6127 79.0535 19.5425 78.9833C19.6829 78.7727 19.1915 78.2812 19.1213 78.5621C19.6127 78.6323 19.1213 78.8429 19.1915 78.9131C19.3319 78.9833 19.4723 79.1939 19.6127 79.3343C19.4723 79.6151 19.3319 79.8959 19.2617 80.1768C19.1213 80.6682 19.1213 81.0894 19.5425 81.4404C19.9637 81.7212 20.1041 82.1425 20.0339 82.6339C20.0339 82.7743 20.0339 82.9147 20.0339 83.0551C20.0339 83.1253 20.0339 83.1955 20.0339 83.2657C19.9637 83.2657 19.8935 83.2657 19.8233 83.1955C19.8935 83.2657 19.9637 83.3359 20.1041 83.4061C20.1041 83.4763 20.1041 83.4763 20.1041 83.5465C19.5425 83.2657 18.9809 82.8445 18.4192 82.3531C17.998 81.9318 17.5066 81.5808 17.0854 81.1596C16.6641 80.7384 16.3131 80.3874 15.8919 80.1065C16.0323 80.247 15.4707 79.9661 15.3303 79.6853C15.3303 80.1768 16.1727 81.0192 16.2429 81.7212C16.5939 82.0021 16.8046 82.2829 16.8046 82.5637C16.945 82.7041 17.0854 82.7743 17.1556 82.7743C17.0152 83.2657 19.0511 84.5996 18.6299 84.74C18.9809 84.8804 19.3319 84.9506 19.8233 85.2314C19.9637 85.1612 19.7531 85.0208 19.8935 84.9506C20.1743 85.091 20.385 85.2314 20.5254 85.1612C19.9637 84.8102 19.7531 85.0208 19.2617 84.74C19.4723 84.5996 19.2617 84.389 18.9809 84.3188C18.7001 84.389 19.2617 84.5294 19.1213 84.6698C18.9809 84.5996 18.9809 84.74 18.7703 84.5996C19.1213 84.4592 17.998 84.1082 17.9278 83.687C17.998 83.6167 18.0682 83.5465 18.2086 83.6167C18.7703 84.1784 18.6299 83.7571 18.9107 83.8274C19.1915 83.9678 19.0511 84.1082 19.2617 84.3188C19.4723 84.1082 19.9637 84.389 20.3148 84.6698C20.8062 84.8102 21.2976 84.8804 21.789 84.9506L21.8592 85.0208C22.1401 85.2314 22.4209 85.442 22.7719 85.6527C22.8421 85.7229 22.9123 85.6527 22.9825 85.5123C22.9825 85.2314 23.1229 84.9506 22.9123 84.6698C22.6315 84.389 22.4209 83.9678 21.9294 83.9678C21.789 83.9678 21.6486 83.8976 21.5784 83.8274C21.5082 83.6869 21.3678 83.5465 21.2976 83.4061H21.3678C21.2976 83.4061 21.2274 83.3359 21.1572 83.2657C21.0168 83.0551 20.8764 82.7743 20.736 82.5637C20.8764 82.2127 21.0168 81.7914 21.1572 81.4404C21.2274 81.3 21.2274 81.1596 21.2274 81.0894C21.2274 81.0192 21.1572 81.0192 21.1572 81.0192C20.6658 81.4404 20.5956 80.8086 20.3148 80.6682C20.1041 80.5278 20.1041 80.3172 20.1041 80.1065C20.385 80.0363 20.5254 80.598 20.8764 80.4576L20.9466 80.5278C21.1572 80.8086 21.438 81.1596 21.8592 81.3702C22.2103 81.651 22.6315 81.8616 22.7719 82.0723C22.7719 82.0021 22.9123 81.9318 22.9825 81.9318C23.1931 82.2127 24.176 82.3531 23.6845 82.4233C23.9654 82.6339 24.1058 82.5637 24.3164 82.4935C23.5441 82.2127 22.9825 81.7212 22.4209 81.651C22.3507 81.3 21.8592 81.0894 21.5082 80.8788C21.3678 80.8086 21.2274 80.7384 21.1572 80.598C21.2274 80.598 21.2976 80.5278 21.3678 80.5278V80.4576C21.2976 80.3874 21.2274 80.3172 21.2274 80.247C21.1572 80.1065 21.1572 79.9661 21.2976 79.8959C21.438 79.8257 21.5784 79.8257 21.6486 79.8959C21.7188 79.9661 21.8592 80.0363 21.9996 80.1065C21.9996 80.247 21.9996 80.3874 22.0698 80.5278C22.1401 80.598 22.2805 80.6682 22.4209 80.6682C22.6315 80.6682 22.7719 80.6682 22.9825 80.7384C22.9123 80.7384 22.7719 80.7384 23.0527 80.8788C23.1229 80.8788 23.2633 80.8788 23.3335 80.949C23.4037 80.949 23.4037 80.949 23.4037 80.949C23.9654 81.1596 24.527 81.5808 24.9482 81.651C24.6674 81.5106 24.4568 81.3702 24.2462 81.1596C24.3866 81.1596 24.527 81.1596 24.6674 81.1596L24.7376 81.0894C24.7376 81.0894 24.7376 81.0192 24.6674 81.0192C24.4568 80.8788 24.2462 80.8788 24.1058 81.0192C24.1058 81.0192 24.1058 81.0894 24.0356 81.0894C23.8952 81.0192 23.7547 80.949 23.6143 80.8086C23.7547 80.7384 23.8952 80.598 24.0356 80.6682C24.176 80.6682 24.3866 80.6682 24.527 80.6682C24.6674 80.8086 24.8078 80.949 25.0184 81.0192C25.0886 80.8788 25.3694 81.1596 25.3694 80.949C25.3694 80.8788 25.3694 80.8788 25.3694 80.8086C25.6503 80.949 25.9311 80.949 26.2119 80.949C26.4927 80.949 26.7033 81.0192 26.8437 81.3702C26.9139 81.5808 27.0543 81.7212 27.1947 81.7914C27.1947 81.9318 27.2649 82.0021 27.4053 82.1425C27.1245 82.1425 26.9841 82.4233 26.6331 82.2829C26.7735 82.3531 26.9139 82.4233 26.9139 82.5637C26.7735 82.6339 26.5629 82.5637 26.4225 82.7041C26.7735 82.7743 27.1245 82.9849 27.4756 83.3359C27.616 83.0551 28.1074 83.4061 28.2478 83.4763C28.1074 83.5465 27.8266 83.4763 27.616 83.3359C27.6862 83.687 27.2649 83.2657 27.2649 83.4763C27.616 83.6869 28.8094 83.4763 29.02 84.1082C28.2478 83.7571 28.0372 83.8976 27.4756 83.8274C27.1947 84.1082 27.2649 84.3188 27.5458 84.4592L27.616 84.3188C27.8266 84.389 27.8266 84.4592 27.967 84.5294C27.8968 84.5294 27.8266 84.5996 27.8968 84.6698C27.8266 84.8102 27.7564 84.5294 27.5458 84.5294C27.8266 84.74 28.2478 84.9506 28.5286 85.2314C29.3711 85.442 30.4241 86.2143 31.1262 86.2143C30.8453 86.0739 30.2135 85.9335 30.2135 85.5825C30.4943 85.3718 30.7049 85.9335 30.9155 85.7229C30.5645 85.5123 30.3539 85.5825 30.2135 85.3016C30.3539 85.3718 30.3539 85.2314 30.4241 85.2314C30.7751 85.442 31.1262 85.7229 31.056 85.8633C31.056 85.6527 31.2666 86.0739 31.3368 85.9335C31.1964 85.8633 31.2666 85.7229 31.2666 85.5825C30.8453 85.442 30.5645 85.2314 30.5645 85.0208C31.1262 84.9506 31.5474 85.3016 31.9686 85.3016C32.0388 85.442 32.1792 85.6527 32.3196 85.7229C32.46 85.8633 32.6004 85.7931 32.6706 85.7931C32.8111 85.7229 32.8111 85.5825 33.0217 85.6527C33.2323 85.7931 33.5131 85.8633 33.7237 86.0739C34.1449 86.4951 34.6364 86.7759 35.198 86.9865L35.1278 87.0567C34.5662 86.9865 34.2151 87.1269 33.6535 86.8461C33.6535 86.9163 33.7237 86.9163 33.7237 86.9163C33.3727 86.8461 33.0217 86.7759 32.6706 86.7057C32.46 87.0567 33.0919 86.7057 33.0217 86.9865C32.8111 87.0567 32.0388 86.8461 32.0388 86.6355C32.1792 86.7057 32.3898 86.7759 32.5302 86.8461C32.46 86.7057 32.2494 86.6355 32.0388 86.5653C31.8984 86.4951 31.8282 86.4249 31.758 86.3547C31.6878 86.3547 31.1964 86.3547 31.407 86.4249C31.407 86.4249 31.407 86.4249 31.4772 86.4249C30.7751 86.2845 30.1433 86.0037 29.5115 85.8633C28.7392 85.5825 27.967 85.3718 27.1947 85.3718C27.0543 85.0208 26.7033 84.9506 26.4225 84.8804C25.58 84.5996 24.9482 84.1082 24.527 83.687C24.2462 84.038 23.8952 83.1253 23.4739 83.1253C23.4739 83.0551 23.4037 82.9849 23.5441 82.9849C22.7017 82.9147 22.6315 82.0021 21.789 81.7212C22.1401 82.0021 21.2976 81.7914 21.9996 82.2127C22.2103 82.1425 21.9294 81.8616 22.1401 82.0021C21.9294 82.2829 22.7017 82.6339 22.7719 83.0551C23.4037 83.0551 23.7547 83.6167 24.3866 84.038C24.3866 84.1784 24.3866 84.5996 24.7376 84.5294C24.3866 84.389 24.878 84.389 24.9482 84.3188C25.2992 84.4592 25.58 84.74 25.9311 84.9506C25.7205 85.0208 25.5098 85.091 25.4396 85.091C25.5098 85.1612 25.58 85.1612 25.6503 85.1612C25.6503 85.2314 25.6503 85.2314 25.5098 85.3718C25.9311 85.6527 26.0013 85.5123 26.2119 85.5123C25.9311 85.7931 27.1947 86.1441 27.4756 86.4951C27.4756 86.3547 27.616 86.3547 27.8266 86.4249C27.7564 86.4951 27.6862 86.4951 27.7564 86.5653C29.5817 87.1971 31.3368 87.6886 33.0217 88.18C33.6535 88.1098 35.3384 88.3906 35.1278 88.9522C37.1637 89.5841 39.4102 89.7245 41.727 89.9351C42.4992 89.6543 43.4821 89.7947 44.1841 89.8649C44.1139 89.8649 44.3947 89.7245 44.6053 89.7947C45.3074 90.0053 44.1139 90.2861 43.4821 90.2159C44.0437 90.2159 43.4821 90.6371 43.4119 90.7775C42.2184 90.918 41.3057 90.8477 40.2527 90.918C39.9719 90.8477 39.9719 90.7073 39.6208 90.7073C39.1294 90.918 38.7082 90.4967 38.1466 90.4967C37.8657 90.4967 37.5849 90.7073 37.3041 90.7073C36.9531 90.6371 36.6723 90.3563 36.3915 90.3563C36.251 90.3563 35.9 90.3563 35.7596 90.3563C35.7596 90.3563 35.8298 90.2159 35.9 90.2861C35.6192 90.2159 35.4086 90.3563 35.1278 90.3563C35.0576 90.3563 35.0576 90.1457 35.0576 90.1457C34.7066 89.9351 34.2151 90.1457 33.7939 90.0755C33.5131 89.8649 34.2151 89.8649 33.7237 89.7947C33.6535 90.0053 33.2323 89.8649 33.0217 89.9351C32.8111 89.5139 31.8282 89.6543 32.0388 89.3735C31.6878 89.3033 31.1964 89.3033 30.7049 89.1629C30.2135 89.0224 29.7923 88.9522 29.4413 88.8118C29.5817 88.882 29.5115 88.9522 29.5115 89.0224C28.7392 88.7416 28.5286 88.6714 28.1074 88.6012C28.1074 88.531 28.1776 88.531 28.2478 88.531C27.6862 88.3204 27.1245 88.18 26.7033 87.9694C26.2821 87.7588 25.8609 87.5482 25.5098 87.4078C25.3694 87.4078 25.2992 87.478 25.1588 87.478C24.9482 87.1971 24.878 87.2673 24.6674 87.3376C24.527 87.1269 24.6674 86.9865 24.3866 86.9163C24.6674 87.1971 23.8952 86.9163 23.6845 86.8461C23.7547 86.7057 23.4739 86.6355 23.6143 86.5653C23.6143 86.4249 23.8952 86.6355 23.9654 86.5653C23.3335 86.2845 23.2633 86.4249 23.0527 86.6355C23.2633 86.8461 23.6143 86.9865 23.8249 87.1971C24.176 86.9865 25.0886 87.6886 25.2992 87.8992C25.1588 87.829 25.1588 87.9694 25.0886 87.8992C25.0886 87.829 25.1588 87.7588 25.0886 87.6886C24.3866 87.7588 23.8249 87.2673 23.1229 86.8461C23.2633 87.1971 22.8421 86.9163 22.7719 87.1269C23.5441 87.478 24.3164 87.829 25.0184 88.18C24.7376 87.8992 25.3694 88.18 25.5098 88.1098C25.6503 88.2502 26.1417 88.6714 26.3523 88.6714C26.2119 88.6012 26.2821 88.531 26.3523 88.4608C26.6331 88.882 27.3351 89.0224 27.8968 89.3033C27.2649 89.0224 27.5458 89.3033 26.9841 89.1629C27.4054 89.3735 27.616 89.5841 28.0372 89.5139L27.967 89.6543C28.4584 89.7245 29.0902 90.0053 29.7221 90.2861C30.0731 90.4265 30.3539 90.5669 30.7049 90.7073C31.056 90.7775 31.407 90.8477 31.6878 90.918C31.6878 90.9882 31.6176 91.0584 31.758 91.1286C32.9515 91.1988 34.496 91.971 35.0576 91.8306C35.0576 92.0412 34.4959 92.0412 34.2853 91.8306C34.2853 92.2518 34.9874 92.1114 35.2682 92.1114V92.2518C35.6894 92.2518 35.9702 92.0412 36.3915 92.0412C36.9531 92.1114 37.0935 92.3922 37.8657 92.4624C37.6551 92.1816 38.638 92.5326 38.989 92.4624C38.4274 92.3922 38.7082 92.322 39.1996 92.3922C39.691 92.3922 40.2527 92.4624 40.2527 92.673C39.9017 92.6028 39.8315 92.8135 39.6208 92.8135C40.2527 92.8135 39.9017 92.8837 40.0421 93.1645C40.5335 93.0943 40.6037 93.3049 40.8845 93.3049C40.8143 93.0943 40.3931 93.0943 40.2527 92.9539C40.3931 92.9539 40.4633 92.9539 40.6037 92.8837C40.8845 92.9539 41.0249 93.3049 41.2355 93.0241C41.2355 93.0943 41.2355 93.2347 41.3057 93.2347C40.3931 93.2347 39.8315 93.3049 39.1996 93.2347C38.638 93.1645 38.0061 93.0241 37.2339 92.8135C36.7425 92.8135 36.251 92.6731 35.6894 92.6029C35.198 92.4624 34.6364 92.3922 34.1449 92.4624C34.1449 92.322 33.7939 92.322 33.8641 92.1816C32.46 92.0412 31.1964 91.0584 30.0029 91.1988C30.2837 91.3392 30.7751 91.4094 30.7049 91.5498C30.3539 91.4796 28.8094 91.1286 29.3009 90.8478C29.02 90.7775 28.8094 90.7775 28.4584 90.6371C28.2478 90.8478 29.02 90.8478 28.9498 90.9882C28.4584 90.8478 27.3351 90.5669 27.1245 90.1457C26.1417 89.7947 25.3694 89.4437 24.6674 89.0927C23.9654 88.7416 23.3335 88.3906 22.8421 87.8992C22.6315 88.1098 22.7017 87.6886 22.4911 87.6184C22.2103 87.5482 22.4209 87.8992 22.2805 87.829C22.2103 87.7588 22.1401 87.829 22.0698 87.7588C21.6486 87.6184 21.789 87.4078 21.5784 87.2673C21.3678 87.3376 20.9466 86.9865 20.5956 86.7759C20.736 86.3547 19.8935 86.2143 19.5425 85.9335C18.7703 85.442 17.998 84.74 17.2258 84.1082C16.4535 83.4763 15.6813 82.9147 15.1899 82.4233C15.9621 83.2657 16.3833 83.3359 16.945 84.1082C17.5768 84.389 18.1384 84.8804 18.7001 85.3718C19.3319 85.8633 19.9637 86.2845 20.5956 86.6355C20.5254 86.7759 20.6658 86.9163 20.6658 86.9865C20.5254 86.9865 20.2445 86.8461 20.1041 86.8461C20.385 87.1971 21.5784 87.478 22.0698 88.18C22.2103 88.0396 22.4911 88.3204 22.7017 88.4608C23.1931 88.2502 24.7376 89.0224 25.229 89.3735C25.1588 89.4437 24.3164 88.9522 24.5972 89.2331C24.878 89.3735 25.229 89.5139 25.1588 89.6543C24.9482 89.5841 24.5972 89.3033 24.527 89.4437C24.8078 89.6543 25.5098 89.8649 25.229 90.1457C25.6503 90.3563 25.1588 89.8649 25.6503 90.0755C25.6503 90.1457 25.7205 90.1457 25.8609 90.2159C25.8609 90.4967 25.58 90.4265 25.3694 90.4265C25.7907 90.7775 25.8609 90.5669 25.9311 90.4967C26.2119 90.7775 25.58 90.5669 25.7907 90.8478C26.2119 91.1286 26.7033 91.3392 26.9139 91.4094C26.7735 91.3392 26.7735 91.269 26.7735 91.1988C26.9841 91.269 27.2649 91.1988 27.3351 91.4094C27.1947 91.3392 27.0543 91.269 26.9841 91.3392C27.5458 91.6902 28.5286 91.9008 28.8094 92.322C29.0902 92.322 28.669 92.1114 29.02 92.1114C29.6519 92.2518 29.5115 92.5326 29.9327 92.673C30.0029 92.6028 29.8625 92.322 30.1433 92.3922C30.4943 92.5326 31.1964 92.6028 31.056 92.8135C30.9155 92.8135 30.2135 92.673 30.4943 92.8135C31.1262 92.8837 31.5474 93.0943 31.8984 92.9539C32.3196 93.1645 31.758 93.2347 32.1792 93.3751C32.3196 93.3751 32.2494 93.1645 32.46 93.1645C32.6004 93.3049 33.7237 93.8665 33.2323 93.4453C33.7237 93.5857 33.7939 93.6559 34.4257 93.7963C34.4257 93.7261 34.4257 93.5857 34.5662 93.5857C35.4788 93.8665 36.3915 94.0069 37.2339 94.0771C38.0764 94.1473 38.9188 94.2877 39.7612 94.4282C39.8315 94.3579 39.6208 94.2877 39.7612 94.2175C40.3931 94.3579 40.8845 94.4281 41.3759 94.2175C41.3759 94.2877 41.3057 94.358 41.2355 94.358C41.727 94.2878 42.2886 94.4281 42.7098 94.5686C42.3588 94.7792 41.7972 94.5686 41.6568 94.9196C42.429 94.9196 42.78 94.4281 43.6927 94.5686C43.8331 94.4281 43.4119 94.358 43.6927 94.358C44.0437 94.4282 44.1139 94.4282 44.3947 94.2877C44.3947 94.4984 44.7457 94.4984 44.9563 94.5686C45.869 94.2877 46.7816 94.6388 47.5539 94.2175C47.9751 94.2175 48.5367 94.2175 49.0282 94.2175C49.5196 94.1473 50.0812 94.0771 50.6429 94.0069C51.6959 93.7963 52.6788 93.5857 53.3808 93.3049C53.5212 93.4453 54.0127 93.2347 54.0127 93.4453C54.5743 93.0943 55.0657 93.3049 55.4167 92.9539C55.2763 92.9539 55.1359 93.0241 55.1359 92.8837C55.4167 92.7433 55.4167 92.7433 55.9082 92.6029C55.9784 92.6731 55.9784 92.8135 56.189 92.7433C56.3996 92.2518 57.4527 92.3922 57.9441 92.322C57.9441 92.1816 57.7335 92.2518 57.6633 92.1816C58.0845 92.0412 58.8567 91.6902 59.0673 91.971C58.7865 92.1114 58.5759 91.9008 58.5057 92.1114C58.6461 92.0412 58.6461 92.1816 58.7865 92.1816C59.8396 91.4094 61.4543 90.918 62.2265 90.7073C62.5073 90.5669 62.5775 90.3563 62.6477 90.2861C62.9988 90.1457 63.3498 90.2861 63.8412 89.9351C63.771 90.0053 63.9816 89.8649 64.2624 89.7245C64.3326 89.6543 65.3857 89.0224 65.7367 89.0927C65.8771 89.2331 64.9645 89.5841 65.3155 89.5139C65.6665 89.3033 65.7367 89.1629 66.1579 89.0927C66.0175 88.9522 66.1579 88.882 66.2983 88.7416C66.4388 88.6714 66.6494 88.6012 66.7898 88.6012C66.509 88.882 66.0877 89.0927 66.0175 89.3735C66.6494 89.0224 67.562 88.0396 67.7726 88.531C67.7726 88.4608 67.913 88.3906 67.9832 88.3906C67.6322 88.7416 67.913 88.7416 67.6322 89.0927C68.1236 88.4608 68.7555 88.18 69.3171 87.8992C69.8788 87.5482 70.5106 87.2673 70.7914 86.5653C70.8616 86.6355 70.7914 86.7759 70.8616 86.8461C71.1424 86.6355 71.002 86.4951 71.4232 86.2845C71.4934 86.3547 71.6339 86.2845 71.6339 86.4249C71.8445 86.2143 72.1253 86.0037 72.1955 85.8633C71.7743 86.2143 71.5636 86.2143 71.353 86.1441C72.0551 85.7229 72.1253 85.3016 72.8975 85.091C72.4763 85.3016 72.7571 85.442 72.3359 85.6527C72.5465 85.7229 72.6167 85.9335 72.8975 85.6527C72.8273 85.5825 72.7571 85.5123 72.8273 85.3718C72.8975 85.6527 74.2314 84.8102 74.7228 84.3188C74.6526 84.038 74.3718 84.389 74.3016 84.1784C74.442 84.1082 74.6526 83.9678 74.8632 83.7571C74.793 84.038 74.793 83.9678 75.0036 84.1082C75.2845 83.8976 75.0036 83.8274 75.2143 83.687C75.3547 83.8976 75.7759 83.3359 75.9163 83.4061C76.1269 82.9147 76.4077 82.9147 76.4077 83.1253C76.6183 82.7041 76.7587 82.6339 76.8991 82.2829C77.1098 82.2127 76.9694 82.3531 77.0396 82.4233C77.3906 82.0021 77.3204 82.0723 77.6714 81.9318C77.7416 81.7914 77.7416 81.5808 77.8118 81.4404C78.0224 81.3702 78.1628 81.0894 78.0224 81.5106C79.0053 80.6682 78.7244 79.8959 79.2861 79.4747C79.0053 79.1237 79.4967 78.8429 79.9179 78.6323C79.9179 78.4216 79.5669 78.7025 79.7073 78.4919C79.9881 78.3514 80.1987 78.1408 80.4093 77.7196C80.62 77.7898 80.4796 78.0004 80.4796 78.0706C80.5498 77.7898 80.9008 77.5792 80.8306 77.509C80.6902 77.6494 80.62 77.6494 80.4796 77.6494C80.62 77.4388 80.62 77.2984 80.8306 77.0878L80.971 77.2282C81.322 76.2453 82.3751 75.3327 82.3751 74.8412C82.5155 74.4902 82.6559 74.7008 82.7963 74.5604C82.7261 74.4902 82.6559 74.5604 82.5857 74.5604C82.6559 74.2796 83.7089 73.367 83.0771 73.7882C83.3579 73.367 83.6387 73.2968 83.7089 72.9457C83.5685 73.1563 83.4281 73.0862 83.5685 72.8755C83.5685 73.0862 83.7089 73.0159 83.8493 72.7351C83.8493 72.5947 83.9195 72.3841 83.9897 72.1735C83.9897 72.5245 84.3408 71.7523 84.411 71.6119C84.3408 71.6821 84.2706 71.8225 84.2706 71.7523C84.3408 71.5417 84.5514 70.98 84.762 70.8396C84.8322 70.9098 84.5514 71.2608 84.6216 71.2608C84.9024 70.98 84.8322 70.7694 84.9726 70.4184C85.3938 70.4184 85.2534 69.2951 85.6746 69.3653C85.3938 69.7164 85.3236 70.1376 85.2534 70.4886C85.1832 70.8396 85.113 71.1204 84.762 71.2608C85.0428 71.4715 84.6918 71.6821 84.4812 72.1735C84.6918 72.1735 84.4812 72.3841 84.5514 72.4543C84.9024 72.0331 84.6918 72.1033 84.6918 71.9629C84.8322 71.8927 84.9024 71.6119 85.0428 71.7523C84.9726 71.8927 84.8322 72.0331 84.9024 72.1033C85.113 71.6821 85.3236 71.4715 85.464 71.4715C85.5342 71.1906 85.6746 70.98 85.8853 70.629C86.0257 70.3482 86.2363 69.927 86.5171 69.3653C86.5171 69.1547 86.3065 69.4355 86.3767 69.0845C87.2893 67.8209 87.4297 66.3466 87.9212 65.2935C87.851 65.0127 87.4999 65.3637 87.7106 64.8723C87.9212 64.6617 87.9914 64.7319 88.0616 64.8723C88.202 63.8192 88.7636 63.2576 89.1146 62.1343C88.7636 61.5727 89.6061 60.0984 89.3955 59.3262C89.3252 59.8878 89.1848 60.5196 88.904 60.7303C88.8338 60.2388 89.0444 58.9752 89.3955 59.1858C89.3252 58.5539 89.8869 58.0625 89.6061 57.7817C90.0273 57.7115 90.2379 56.4478 90.2379 55.6756C90.2379 55.816 90.3081 55.5352 90.3783 55.2543C90.4485 54.4821 90.5889 53.6397 90.6591 52.7972C90.6591 52.1654 90.6591 51.4633 90.6591 50.9017C90.7293 50.9017 90.7995 50.9017 90.8697 50.9017C90.7995 50.1997 90.7995 49.4976 90.7293 48.7956C90.7293 48.7956 90.7293 48.7956 90.7995 48.7956C90.7293 48.4446 90.7293 48.3041 90.6591 48.0233C90.6591 47.8127 90.5889 47.5319 90.5889 47.3213C90.7293 47.0405 90.7995 46.4788 90.7995 46.198C90.7995 46.4086 90.9399 46.3384 90.9399 46.6193C90.8697 47.1107 90.8697 47.7425 91.0803 48.0935C91.0101 48.3041 91.0101 48.3041 90.8697 48.2339C91.0101 49.5678 90.7995 50.6209 91.0803 51.8144C90.8697 51.5335 90.8697 52.9376 91.0803 52.6568C90.9399 53.429 90.7293 54.4119 90.6591 55.3947C90.5889 55.8862 90.5889 56.3776 90.5889 56.869C90.5889 57.0796 90.5889 57.2903 90.5889 57.5711C90.5889 57.7817 90.5889 57.9923 90.5889 58.1327C90.6591 57.5711 91.0101 56.518 90.8697 56.0266C91.0803 56.3074 91.0101 55.5352 90.8697 55.465H91.0803C92.0632 53.429 92.0632 50.7613 92.1334 48.2339ZM75.2845 15.7295C75.4951 15.6593 75.6355 15.9401 75.7057 16.0805C75.6355 16.2209 75.3547 15.7997 75.2845 15.7295ZM26.0715 88.0396C26.0715 87.7588 26.5629 88.18 26.6331 88.1098C26.8437 88.3204 26.3523 88.18 26.0715 88.0396ZM29.4413 90.0053C29.5817 89.7245 29.7923 90.0755 30.1433 90.2159C30.1433 90.2861 29.7221 90.0755 29.4413 90.0053ZM30.3539 89.0927C30.4241 88.9522 30.8453 89.0927 30.9858 89.2331C30.9156 89.3735 30.4943 89.1629 30.3539 89.0927ZM37.6551 92.1114C37.7253 92.1114 37.9359 92.1114 38.0764 92.1114C38.0764 92.1816 38.0061 92.2518 38.1466 92.322C38.0764 92.4624 37.5147 92.2518 37.6551 92.1114ZM41.0951 92.8135C41.0249 92.673 41.3057 92.6731 41.3057 92.6029C40.4633 92.3922 39.5506 92.5326 39.2698 92.0412C40.0421 92.2518 40.3229 92.1114 40.8845 91.971C41.0249 92.0412 41.0951 92.1114 41.3057 92.1816C41.1653 92.322 41.0249 92.2518 40.7441 92.1816C40.8143 92.3922 41.0951 92.5326 41.5866 92.6029C41.727 92.8135 41.5163 92.8135 41.0951 92.8135ZM87.6404 59.8176C87.7808 59.8176 87.5702 60.1686 87.5702 60.3792C87.4999 60.309 87.4999 60.2388 87.4999 60.1686C87.4999 60.0984 87.4999 59.958 87.6404 59.8176C87.5702 59.8878 87.5702 59.8878 87.6404 59.8176ZM86.6575 67.54C86.4469 67.9613 86.5171 67.8911 86.3065 68.3825C86.1661 68.5229 85.9555 68.3123 86.1661 67.9613C86.3065 68.3825 86.3065 67.4698 86.6575 67.54ZM57.8739 89.5841C57.8739 89.7245 57.3122 89.7947 57.1016 89.9351C57.1718 89.5841 57.4526 89.7245 57.8739 89.5841ZM52.2576 92.0412C51.6257 92.1114 51.3449 92.0412 50.7131 91.971C50.9939 91.6902 51.6257 91.8306 52.2576 91.62C52.3278 91.7604 52.1873 91.9008 52.2576 92.0412ZM48.958 92.1114C48.8878 92.322 48.6069 92.1114 48.5367 92.1114C48.4665 91.971 48.8176 92.0412 48.8176 91.9008C49.2388 91.8306 48.6069 92.1114 48.958 92.1114ZM50.2918 92.0412C50.2216 92.1816 49.9408 92.2518 49.9408 92.3922C49.8004 92.2518 49.0282 92.5326 48.958 92.322C49.3792 92.3922 49.7302 91.971 50.2918 92.0412ZM49.5196 91.1988C49.1686 91.269 48.8878 91.4094 48.3261 91.4796C48.0453 91.1988 48.6069 91.0584 49.1686 90.918C49.8004 90.7775 50.5727 90.7073 50.8535 90.5669C51.3449 90.6371 51.4151 90.8477 50.8535 91.0584C50.8535 90.9882 50.9237 90.9882 50.9237 90.918C50.2216 90.9882 49.8004 91.0584 49.5196 91.1988ZM48.4665 92.1114C47.6943 92.322 45.869 92.322 46.2902 92.0412C46.8518 92.2518 47.5539 91.971 48.4665 92.1114ZM51.3449 90.7775C51.2747 90.6371 51.5555 90.5669 51.6959 90.5669C51.7661 90.6371 51.5555 90.8477 51.3449 90.7775ZM52.1874 88.9522C51.4853 89.0927 50.7131 89.1629 50.1514 89.2331C49.9408 89.3033 50.2918 89.5139 50.5025 89.4437C50.4323 89.6543 50.0812 89.5139 49.8706 89.5139C49.8706 89.4437 49.9408 89.3735 49.9408 89.2331C49.8706 89.0927 49.4494 89.3033 49.2388 89.3033C49.8706 88.882 50.5727 88.7416 51.3449 88.6714C51.7661 88.6012 52.1171 88.6012 52.6086 88.531C53.0298 88.4608 53.5212 88.3204 54.0127 88.18C54.0127 88.2502 54.0127 88.3204 54.1531 88.3204C53.8722 88.4608 53.5914 88.6012 53.2404 88.6714C53.1 88.7416 52.8894 88.7416 52.749 88.8118C52.5384 88.882 52.3278 88.9522 52.1874 88.9522ZM28.318 81.8616C28.3882 81.8616 28.3882 81.8616 28.4584 81.8616C28.4584 81.8616 28.4584 81.8616 28.4584 81.9318C28.318 81.9318 28.2478 81.8616 28.2478 81.8616C28.2478 81.8616 28.2478 81.8616 28.318 81.8616ZM22.6315 79.4747L22.5613 79.5449C22.5613 79.5449 22.4911 79.5449 22.4911 79.4747C22.4911 79.4747 22.4911 79.4045 22.5613 79.4045C22.5613 79.4045 22.5613 79.3343 22.6315 79.3343C22.5613 79.4045 22.6315 79.4747 22.6315 79.4747ZM40.6037 13.9042C40.5335 13.9744 40.3931 14.0446 40.2527 14.0446H40.1825C40.1123 14.0446 39.9719 14.0446 39.8315 14.0446C40.1123 13.9042 40.3229 13.9042 40.6037 13.9042ZM89.5359 37.4225C89.6061 37.7034 89.5359 37.7736 89.4657 37.914C89.3954 37.6331 89.3252 37.2821 89.255 36.9311C89.255 36.8609 89.255 36.7907 89.255 36.7907C89.5359 37.4225 89.2551 37.3523 89.5359 37.4225ZM89.6763 37.9842C89.7465 38.1948 89.7465 38.3352 89.7465 38.4756C89.7465 38.4756 89.7465 38.4756 89.6763 38.4756C89.6061 38.4054 89.6061 38.3352 89.5359 38.3352C89.6061 38.0544 89.5359 37.914 89.6763 37.9842ZM89.3252 52.7972C89.3252 52.6568 89.3252 52.5164 89.255 52.5164C89.255 52.2356 89.3252 52.025 89.3955 51.8144C89.4657 51.8846 89.4657 51.9548 89.5359 52.025C89.5359 51.8846 89.5359 51.7441 89.4657 51.6037V51.5335V51.4633C89.4657 51.3931 89.4657 51.3931 89.5359 51.3229C89.5359 51.5335 89.6763 51.5335 89.6061 51.8846C89.1848 52.376 89.4657 52.1654 89.3252 52.7972ZM52.398 14.4658C52.3278 14.4658 52.2576 14.4658 52.2576 14.4658C52.3278 14.4658 52.398 14.4658 52.398 14.4658C52.4682 14.4658 52.4682 14.4658 52.398 14.4658ZM81.0412 25.8389C80.8306 25.8389 80.6902 25.7687 80.6902 25.5581C80.8306 25.6283 80.971 25.6985 81.0412 25.8389ZM89.1848 49.4274C89.1848 49.2168 89.1848 49.0764 89.1146 48.8658C89.1146 48.8658 89.1146 48.8658 89.1146 48.7956C89.1848 48.6552 89.255 48.5148 89.3955 48.4446C89.3955 48.6552 89.3955 48.7956 89.3955 49.0062C89.3955 49.4274 89.4657 49.7784 89.4657 50.1997C89.3954 50.1997 89.255 50.1997 89.255 50.4103C89.3252 50.4103 89.4657 50.3401 89.4657 50.5507C89.3954 50.9017 89.3252 51.1825 89.255 51.3931C89.255 50.7613 89.2551 50.1295 89.1848 49.4274ZM89.3955 47.8127V47.8829C89.3955 47.8829 89.3955 47.8829 89.3955 47.8127ZM83.5685 28.5768C83.4281 28.4364 83.4281 28.2258 83.6387 28.0854C83.6387 28.0854 83.6387 28.0854 83.7089 28.0854C83.9195 28.296 84.06 28.5768 84.2706 28.9279C83.9897 28.9981 83.8493 28.9279 83.5685 28.5768ZM83.4281 27.8046C83.2175 27.7344 83.0771 27.594 83.0069 27.3834C83.1473 27.5238 83.2877 27.6642 83.4281 27.8046ZM89.255 52.6568C89.255 52.7972 89.255 52.9376 89.255 53.078C89.255 52.9376 89.255 52.7972 89.255 52.6568ZM90.5889 42.2666C90.5889 42.1964 90.6591 42.1262 90.7293 41.9858C90.7293 42.1964 90.7293 42.3368 90.6591 42.407C90.5889 42.407 90.5889 42.3368 90.5889 42.2666ZM90.4485 41.2136C90.4485 41.1433 90.4485 41.1433 90.4485 41.0731C90.5187 41.1433 90.5187 41.2135 90.5889 41.2838C90.5187 41.2838 90.5187 41.2136 90.4485 41.2136ZM90.0975 40.0201C89.9571 40.3711 90.1677 40.7221 90.2379 40.6519C90.2379 40.7923 90.1677 40.8625 90.1677 40.8625C90.0975 40.7923 90.0975 40.7221 90.0273 40.6519C90.0273 40.5817 90.0273 40.5817 90.0273 40.5115C89.9571 40.4413 89.8869 40.3711 89.8167 40.3009C89.7465 40.2307 89.7465 40.1605 89.7465 40.1605C89.6763 40.0201 89.8167 39.8797 89.9571 39.8797C89.9571 39.9499 90.0273 39.9499 90.0975 40.0201C90.0975 39.9499 90.0975 39.9499 90.0975 40.0201ZM89.255 36.7907C89.255 36.7205 89.255 36.6503 89.255 36.6503C89.255 36.6503 89.255 36.7205 89.255 36.7907ZM41.3057 14.0446C41.2355 14.0446 41.1653 14.0446 41.0951 13.9744C41.1653 13.9744 41.2355 14.0446 41.3057 14.0446ZM55.5571 89.7245C55.6273 90.0053 55.2763 89.7947 54.9955 89.9351C55.0657 89.7245 55.2763 89.7245 55.5571 89.7245ZM78.584 78.6323C78.7244 78.8429 78.3032 78.9833 78.0224 79.3343C77.9522 79.2641 77.8118 79.3343 77.7416 79.2641C78.0224 79.0535 78.3032 78.7727 78.584 78.6323ZM79.0755 77.9302C79.1457 78.0004 79.2159 78.0706 79.2861 77.9302C79.4265 78.0706 79.0053 78.4919 78.7947 78.5621C78.7947 78.4919 78.8649 78.211 79.0755 77.9302ZM87.7808 59.256C87.851 59.256 87.851 59.3262 87.7808 59.256C87.7808 59.4666 87.7808 59.4666 87.7106 59.4666C87.7808 59.3964 87.7808 59.3262 87.7808 59.256ZM89.1146 54.8331C89.1146 54.7629 89.1146 54.6225 89.1146 54.5523C89.1146 54.5523 89.1848 54.4821 89.255 54.4821C89.1848 54.6225 89.1146 54.6927 89.1146 54.8331ZM89.3252 54.1311C89.3252 53.9907 89.255 53.7801 89.255 53.6397C89.3252 53.4992 89.3252 53.3588 89.3955 53.1482C89.3955 53.5695 89.3252 53.7099 89.3252 54.1311C89.3252 54.0609 89.3252 54.1311 89.3252 54.1311ZM90.7293 44.3727C90.7995 44.0919 90.7995 43.8111 90.7293 43.4601C91.0803 43.6005 90.9399 44.3727 90.7293 44.6535C90.7293 44.5833 90.7293 44.4429 90.7293 44.3727ZM90.6591 42.6878C90.7293 42.8282 90.7995 43.0389 90.8697 43.3197C90.6591 43.4601 90.5889 42.8282 90.6591 42.6878ZM89.8167 37.1417L89.6061 37.2119C89.5359 37.0013 89.6763 36.7205 89.4657 36.6503C89.3954 36.2993 89.6061 36.7205 89.6763 36.7205C89.6763 36.5801 89.6061 36.5099 89.5359 36.3695C89.6061 36.3695 89.6061 36.2993 89.6763 36.2291C89.7465 36.4397 89.8167 36.7205 89.8167 37.1417ZM89.3252 35.176C89.255 35.176 89.1848 34.9654 89.1848 34.825C89.2551 34.825 89.255 34.7548 89.3252 34.7548C89.4657 35.0356 89.3252 35.0356 89.3252 35.176ZM88.3424 34.1229H88.4126C88.6232 34.2634 88.7636 34.4038 88.8338 34.6846C88.8338 34.825 88.9742 34.825 89.0444 34.825C89.0444 34.8952 89.1146 35.0356 89.1146 35.1058C89.0444 35.1058 89.0444 35.2462 89.0444 35.2462C88.904 34.7548 88.6232 34.8952 88.9742 35.176C88.9742 35.2462 88.9742 35.3164 89.0444 35.3866C88.8338 35.3866 88.6934 35.3866 88.4828 35.3866C88.4126 35.3866 88.3424 35.2462 88.3424 35.176C88.4126 35.0356 88.553 34.825 88.4828 34.6846C88.4828 34.5442 88.2722 34.4038 88.2722 34.1932L88.3424 34.1229ZM86.3767 30.4021C86.3065 30.4021 86.2363 30.3319 86.1661 30.4021C86.0959 30.3319 86.0959 30.1915 86.0257 30.1213C86.0257 30.0511 86.0257 29.9809 86.0257 29.9107C86.0959 30.0511 86.2363 30.1915 86.3767 30.4021ZM78.7244 19.8715C78.7947 19.9417 78.7947 19.9417 78.8649 20.012C78.8649 20.012 78.8649 20.012 78.8649 20.0822C78.584 20.012 78.5138 19.7311 78.3734 19.3801C78.4436 19.5907 78.584 19.7311 78.7244 19.8715ZM74.6526 18.6079C74.6526 18.6079 74.7228 18.6781 74.6526 18.6079C74.6526 18.6781 74.5824 18.6079 74.5824 18.6079C74.5824 18.6079 74.5824 18.6079 74.6526 18.6079ZM38.989 14.1148C38.989 14.185 38.989 14.185 38.989 14.2552C39.1294 14.2552 39.1996 14.185 39.1996 14.1148C39.4102 14.1148 39.5506 14.1148 39.7612 14.1148C39.691 14.2552 39.5506 14.3956 39.4102 14.4658C39.1996 14.6062 39.0592 14.536 38.9188 14.2552C38.8486 14.2552 38.7784 14.3254 38.7082 14.3254C38.3572 14.536 38.2168 14.536 38.0061 14.2552C38.3572 14.185 38.7082 14.185 38.989 14.1148ZM36.2511 14.6062C36.6021 14.536 36.8829 14.536 37.1637 14.536C37.0935 14.6062 37.0233 14.6062 36.8829 14.6062C36.8127 14.6062 36.6723 14.6062 36.6021 14.6765C36.3213 15.0977 35.7596 14.7467 35.4086 15.0275C35.198 15.2381 35.0576 15.0977 34.9172 14.9573C35.4086 14.7467 35.8298 14.6765 36.2511 14.6062ZM12.9433 71.0502C12.8731 71.0502 12.8731 70.9098 12.8731 70.8396C12.8731 70.7694 12.8731 70.7694 12.9433 70.7694L13.0135 70.6992C13.0837 70.7694 13.0837 70.8396 13.0837 70.9098C13.0837 70.98 13.0837 71.1204 12.9433 71.0502ZM14.207 74.6306C14.207 74.7008 14.1368 74.771 14.0666 74.771L13.9964 74.7008C13.9964 74.5604 13.9964 74.42 13.9964 74.3498C13.9262 74.3498 13.856 74.2796 13.7858 74.2796V74.2094C13.9262 74.2094 13.9262 74.2796 13.9262 74.42C14.1368 74.2796 14.2772 74.42 14.207 74.6306ZM15.0495 75.4029C14.9792 75.3327 14.909 75.3327 14.8388 75.2625C14.909 75.1923 14.9792 75.1221 15.0495 75.1221C15.1197 75.1221 15.1899 75.1923 15.2601 75.2625C15.1899 75.3327 15.1197 75.3327 15.0495 75.4029ZM15.6111 75.9645C15.6111 76.0347 15.6111 76.1751 15.4707 76.1751V76.1049C15.4707 76.0347 15.5409 76.0347 15.6111 75.9645C15.6111 75.7539 15.6111 75.6135 15.7515 75.4731C15.8217 75.4029 16.1025 75.4029 16.1025 75.4731C16.1025 75.5433 16.1025 75.6135 16.0323 75.6837C15.9621 75.8241 15.8217 75.9645 15.6111 75.9645C15.6813 75.9645 15.6813 75.9645 15.6111 75.9645ZM16.7343 76.2453C16.5237 76.6665 16.1025 77.0176 16.1025 77.5792C16.1025 77.5792 15.9621 77.6494 15.8919 77.6494C15.8217 77.6494 15.6813 77.509 15.7515 77.509C15.8919 76.9474 16.1025 76.5261 16.4535 76.0347C16.4535 75.9645 16.5939 76.0347 16.7343 76.0347L16.8046 76.1049C16.7343 76.1751 16.7343 76.1751 16.7343 76.2453ZM20.9466 79.7555C20.8764 79.8257 20.8062 79.8959 20.736 79.8959C20.736 79.8257 20.8062 79.7555 20.9466 79.6853C21.1572 79.6151 21.2976 79.8257 21.2976 80.0363V80.1065C21.1572 79.9661 21.087 79.8959 20.9466 79.7555ZM22.7017 80.1768C22.7017 80.1768 22.7017 80.1065 22.7017 80.1768C22.7719 80.1065 22.7719 80.1065 22.7719 80.1768H22.7017ZM32.1792 87.5482C31.3368 87.1269 30.4241 86.7759 29.4413 86.5653C29.0902 86.4249 28.8094 86.2143 28.3882 85.9335C28.318 85.9335 28.318 85.8633 28.2478 85.8633C28.3882 85.9335 28.5988 85.9335 28.7392 85.9335C29.1604 86.0037 29.5115 86.0739 29.8625 86.2143C30.2135 86.2845 30.6347 86.4249 31.056 86.6355C31.758 86.2845 32.7409 87.5482 33.4429 87.478C33.1621 87.0567 34.2853 87.4078 34.9874 87.478C34.9172 87.6886 34.9874 87.8992 34.9874 88.2502C34.0045 88.2502 33.0919 87.8992 32.1792 87.5482ZM45.3074 89.7947C45.518 89.6543 45.6584 89.9351 46.0094 89.8649C46.0094 89.7947 45.869 89.7947 45.7988 89.7947C45.7988 89.7245 46.0796 89.7245 46.0796 89.6543C45.9392 89.5139 45.4478 89.6543 45.167 89.6543C45.5882 89.3735 46.6412 89.3735 46.9221 89.1629C47.0625 89.3033 46.9923 89.5139 46.9221 89.5139C47.0625 89.7245 47.1327 89.5139 47.3433 89.5841C47.6241 89.5139 46.9923 89.5139 47.1327 89.3033C47.9049 89.2331 48.1155 89.3033 48.3963 89.0927C48.7474 89.1629 48.3963 89.1629 49.0282 89.0927C49.1686 89.5139 48.3963 89.3033 48.1857 89.4437C48.5367 89.7245 49.4494 89.0224 49.5196 89.4437C49.1686 89.4437 48.8878 89.5139 48.5367 89.5841C48.1857 89.6543 47.8347 89.6543 47.4837 89.7245C46.7816 89.9351 46.0094 89.9351 45.3074 89.7947ZM45.518 92.1816C45.4478 92.3922 45.7286 92.2518 45.9392 92.2518C45.5882 92.322 45.0265 92.3922 44.3947 92.3922C43.7629 92.3922 43.0608 92.322 42.429 92.3922C43.2012 91.971 44.3947 92.3922 45.518 92.1816ZM42.078 92.6029C42.7098 92.6731 42.8502 92.6731 43.4821 92.7433C42.8502 92.4624 44.8159 92.6029 45.0265 92.7433C44.5351 92.8837 43.9033 92.8837 43.3417 92.8135C42.78 92.8135 42.2184 92.7433 41.8674 92.8837C41.7972 92.673 42.078 92.6731 42.078 92.6029ZM41.7972 93.0943C41.8674 92.8837 42.1482 93.0241 42.3588 93.0943C42.2886 93.3049 41.7972 93.1645 41.7972 93.0943ZM49.1686 93.4453V93.2347C49.0984 93.2347 49.0984 93.2347 49.0282 93.3049C48.8176 93.3751 48.5367 93.3751 48.2559 93.4453C47.7645 93.5155 47.2029 93.5857 46.6412 93.5857C45.518 93.6559 44.3947 93.7261 43.2715 93.5155C43.131 93.5155 43.2012 93.6559 43.0608 93.6559C42.78 93.6559 42.5694 93.5857 42.429 93.5155C42.429 93.3049 42.9906 93.4453 43.3417 93.4453C43.3417 93.3751 43.3417 93.3049 43.2012 93.2347C44.2543 93.2347 46.22 93.2347 47.7645 92.8135C48.1155 92.8837 48.4665 92.8837 48.6772 93.0241C48.958 92.9539 48.6069 92.8135 48.6069 92.7433C48.8878 92.6731 49.1686 92.9539 49.2388 92.7433C49.5898 92.7433 49.3792 92.8135 49.3792 92.9539C49.9408 92.8135 50.2918 92.6731 50.6429 92.6029C50.7131 92.3922 50.2918 92.5326 50.0812 92.6029C50.362 92.322 51.1343 92.322 51.4853 92.3922C51.6257 92.6029 51.0641 92.8837 51.6959 92.8135C51.2747 93.0943 49.9408 92.8837 49.7302 93.1645C50.5727 93.1645 52.0469 92.7433 52.5384 93.0241C51.4853 93.3751 50.4323 93.1645 49.1686 93.4453ZM54.2233 92.0412C54.2233 91.9008 54.0829 91.971 54.0829 91.8306C54.5041 91.6902 54.4339 91.9008 54.8551 91.7604C54.7147 91.8306 54.3637 91.9008 54.2233 92.0412ZM57.1016 90.918C55.7678 91.1286 54.7147 91.4796 53.3808 91.6902C53.451 91.7604 53.7318 91.62 53.802 91.6902C53.802 91.9008 53.1702 91.971 53.1702 91.7604C52.8894 91.9008 52.8894 91.971 53.0298 92.1816C52.5384 92.0412 52.4682 91.9008 52.6086 91.7604C52.749 91.62 53.2404 91.5498 53.8722 91.4094C53.7318 91.3392 53.5212 91.4094 53.3106 91.4094C53.2404 91.269 53.802 91.269 53.802 91.1286C53.9425 91.1286 53.9424 91.269 53.9424 91.3392C54.9253 90.9882 54.9955 90.9882 56.1188 90.6371C56.3294 90.8478 56.6804 90.4967 56.891 90.6371C57.1718 90.4967 56.54 90.5669 56.8208 90.4265C57.5931 90.2861 57.5229 90.4265 58.2951 90.0755C58.2249 89.9351 57.6633 90.3563 57.7335 90.0755C58.2249 90.0053 58.5759 89.7947 58.9269 89.5841C58.9971 89.7245 58.9971 89.7947 58.9269 89.8649C59.2077 89.7947 59.2077 89.6543 59.1375 89.5139C59.629 89.2331 59.7694 89.3735 60.0502 89.4437C59.6992 90.1457 57.6633 90.4967 57.1016 90.918ZM66.86 88.3204C66.86 88.0396 67.2812 87.9694 67.562 87.6886C67.562 87.8992 67.0004 88.1098 66.86 88.3204ZM69.949 87.6886C69.7383 88.1098 69.8085 87.6184 69.4575 87.829C69.4575 87.7588 69.6681 87.6184 69.8085 87.5482C69.8787 87.6184 69.8788 87.6886 70.0192 87.6184C70.0192 87.6886 69.949 87.6886 69.949 87.6886ZM69.5979 86.7759L69.949 86.5653L70.0192 86.7057C69.8788 86.7759 69.6681 86.9163 69.5979 86.7759ZM70.0192 86.4249C69.949 86.2845 70.2298 86.0739 70.5106 85.9335L70.651 86.0739C70.3702 86.2143 70.1596 86.3547 70.0192 86.4249ZM69.8788 86.1441C69.3171 86.5653 68.6853 86.9163 68.4045 87.1971C68.4747 86.9865 68.9661 86.5653 69.5277 86.1441C70.1596 85.7229 70.7914 85.2314 71.2126 84.8804C71.002 85.2314 70.4404 85.6527 69.8788 86.1441ZM74.0208 85.2314C73.8102 85.091 73.8102 85.091 73.8102 84.8102C74.091 84.8102 74.442 84.9506 74.0208 85.2314ZM74.3718 84.74C74.3016 84.74 74.091 84.8804 74.091 84.74C74.2314 84.6698 74.3016 84.6698 74.3016 84.5996C74.3718 84.5294 74.442 84.6698 74.5824 84.5294C74.5824 84.5996 74.5824 84.6698 74.5824 84.74C74.442 84.8102 74.2314 84.8804 74.3718 84.74ZM75.9865 83.8976C75.9865 83.8274 76.1971 83.6869 76.2673 83.5465C76.1971 83.4763 76.0567 83.6869 75.9865 83.7571C75.8461 83.7571 76.1269 83.4061 75.8461 83.6167C75.8461 83.4763 76.3375 83.4061 76.4779 83.4061C76.1971 83.6869 76.3375 83.6869 75.9865 83.8976ZM78.0224 80.4576L78.1628 80.598L77.8118 81.0192C77.6012 80.8788 77.9522 80.598 78.0224 80.4576ZM78.6543 81.1596C78.7244 80.8788 78.5138 81.0894 78.3032 81.3702C78.233 81.0894 78.7947 80.8788 79.0755 80.6682C79.1457 80.6682 78.7244 80.949 78.6543 81.1596ZM79.0053 79.6151C78.9351 80.1065 78.7947 80.598 78.0224 81.0192C78.0926 80.6682 78.7947 80.247 78.584 79.8257C79.2861 79.1939 79.7073 78.5621 80.1285 78.2812C80.0583 78.7727 79.4265 79.4747 79.0053 79.6151ZM81.0412 77.2984C80.62 77.7196 80.4093 77.86 80.2689 78.2812L80.0583 78.0706C80.5498 77.6494 80.9008 76.8772 81.3922 76.3857C81.3922 76.7368 80.9008 76.9474 81.0412 77.2984ZM85.6746 69.9972C85.464 69.9972 85.6044 69.7164 85.3938 69.7164C85.5342 69.576 85.7448 69.0143 85.8853 69.2249C85.7448 69.0143 86.1661 68.5229 86.3767 68.1719C86.0257 68.8037 86.0257 69.5057 85.6746 69.9972ZM85.7449 71.9629C85.6746 71.8927 85.5342 71.9629 85.464 72.1033C85.3236 72.0331 85.464 71.8225 85.6746 71.5417C85.6746 71.7523 85.815 71.5417 85.815 71.7523C85.9555 71.5417 86.0959 71.1204 86.2363 71.3311C86.0959 71.3311 85.9555 71.6821 85.7449 71.9629ZM86.3767 70.6992C86.3767 70.3482 86.5171 70.278 86.7277 69.9972C86.7979 70.3482 86.5873 70.4184 86.3767 70.6992ZM86.7979 66.487C86.7277 66.3466 86.7979 66.2062 86.8681 65.9253C87.0787 65.9253 86.9383 66.3466 86.7979 66.487ZM86.7277 64.8723C86.7277 64.5915 86.8681 64.4511 87.0085 64.0298C87.1489 64.1 86.8681 64.7319 86.7277 64.8723ZM87.2893 62.4853C87.4297 62.6258 87.1489 62.9066 87.1489 63.2576C86.9383 63.2576 87.2893 62.7662 87.2893 62.4853ZM87.2893 64.3809C87.2191 63.9596 87.2893 63.749 87.4297 63.1172C87.4999 63.3278 87.3595 63.8894 87.6404 63.3278C87.7808 63.4682 87.3595 63.9596 87.2893 64.3809ZM88.1318 59.4666C87.9212 60.5898 87.9914 60.9409 87.9914 61.5025C87.9212 61.7833 87.7808 61.5727 87.7106 61.7833C87.9914 61.7131 87.7808 62.4854 87.6404 63.047C87.4297 62.9768 87.3595 62.9768 87.3595 62.8364C87.4297 62.7662 87.5702 62.3449 87.4999 62.2045C87.2893 62.4854 87.4297 61.8535 87.2893 61.7833C87.3595 61.5727 87.4297 61.5727 87.4999 61.7131C87.5702 60.8707 87.9914 59.958 88.0616 59.1156C88.1318 59.1156 88.1318 59.3262 88.202 59.1858C87.9212 59.3262 88.2722 58.8347 88.1318 58.8347C88.0616 58.9752 87.9914 58.9049 87.9914 58.8347C88.0616 58.5539 88.1318 58.3433 88.202 58.0625C88.4126 57.9923 88.0616 58.5539 88.2722 58.5539C88.3424 58.0625 88.7636 57.3605 88.553 57.1498C88.4126 57.6413 88.4126 57.8519 88.202 58.0625C88.202 58.0625 88.202 58.0625 88.202 57.9923C88.2722 57.5711 88.4126 57.1499 88.4126 56.6584C88.4828 56.6584 88.553 56.5882 88.6232 56.5882C88.7636 56.7988 88.7636 57.1498 88.6934 57.4307C88.6232 57.7115 88.4828 58.0625 88.553 58.3433C88.4126 58.6241 88.3424 58.5539 88.2722 58.6241C88.4126 58.8347 88.202 59.8878 88.1318 60.0984C87.9914 60.0984 88.2722 59.5368 88.1318 59.4666ZM88.1318 65.0127C88.3424 64.6617 88.202 64.4511 88.4126 64.2404C88.6934 64.1702 88.3424 65.2233 88.1318 65.0127ZM88.4126 64.0298C88.6934 63.8894 88.8338 63.398 89.1146 63.398C88.904 63.8192 88.6934 64.1702 88.4126 64.0298ZM90.7995 44.9344C90.7995 45.0046 90.7995 44.9344 90.7995 44.9344V44.9344ZM91.0803 44.4429C91.1506 44.3025 91.1506 44.9344 91.2208 45.3556C90.9399 45.2854 91.0101 44.7237 91.0803 44.4429Z" fill="#E20F7C"/>
<path fill-rule="evenodd" clip-rule="evenodd" d="M26.0012 8.77933C25.8608 9.06014 24.7376 9.41116 24.6674 9.48137C24.878 9.48137 26.3523 8.84953 26.0012 8.77933Z" fill="#E20F7C"/>
<path fill-rule="evenodd" clip-rule="evenodd" d="M49.6601 0.635671C49.5899 0.495263 49.0282 0.565467 48.958 0.425059C49.7303 0.284651 50.1515 0.776079 50.9237 0.846283C50.9237 0.776079 50.9237 0.705875 51.0641 0.705875C51.2045 0.776079 51.2045 0.916487 51.4152 0.986691C52.1874 0.986691 53.7319 1.40791 54.3637 1.1973C54.2233 1.05689 53.5213 0.986691 53.9425 0.846283C53.3809 0.705875 53.8723 0.986691 53.5213 1.05689C53.5213 0.986691 53.4511 0.986691 53.3107 0.986691C53.5213 0.776079 52.5384 0.846283 52.1874 0.635671C51.9066 0.705875 52.398 0.846283 52.047 0.846283C51.8364 0.635671 51.345 0.495263 51.345 0.776079C51.4152 0.635671 50.3621 0.635671 50.7131 0.425059C49.4494 0.354855 49.5899 0.214447 48.607 0.214447C48.6772 0.425059 48.607 0.354855 48.6772 0.565467C49.1686 0.495263 49.3792 0.705875 49.6601 0.635671Z" fill="#E20F7C"/>
<path fill-rule="evenodd" clip-rule="evenodd" d="M63.069 9.69198C63.3498 9.76219 63.771 9.9728 63.9816 9.9728C63.771 9.83239 63.2796 9.55158 63.069 9.69198Z" fill="#E20F7C"/>
<path fill-rule="evenodd" clip-rule="evenodd" d="M67.4918 9.90257C67.3514 10.1132 66.9302 9.69196 66.7196 9.69196C66.7898 9.90257 67.6323 10.1834 67.4918 9.90257Z" fill="#E20F7C"/>
<path fill-rule="evenodd" clip-rule="evenodd" d="M70.5106 8.07729C70.5808 8.00709 70.7914 8.2177 70.8616 8.1475C70.651 8.07729 70.651 7.72627 70.8616 7.86668C71.002 8.07729 71.1424 7.93688 71.4232 8.00709C70.8616 7.79648 70.0192 7.23484 69.7383 7.37525C70.2298 7.51566 70.7212 8.00709 70.5106 8.07729Z" fill="#E20F7C"/>
<path fill-rule="evenodd" clip-rule="evenodd" d="M70.7213 13.9744C70.5809 14.1148 70.7915 14.2552 71.0723 14.4659C71.0021 14.185 71.6339 14.7467 71.3531 14.4659C71.1425 14.3254 71.0021 14.3254 71.0723 14.185C71.1425 14.2552 71.2127 14.185 71.1425 14.1148C71.0723 14.1148 71.0021 14.185 70.8617 14.1148C70.7915 14.1148 70.7915 14.0446 70.7213 13.9744Z" fill="#E20F7C"/>
<path fill-rule="evenodd" clip-rule="evenodd" d="M71.4935 14.7467C71.9849 15.3083 72.5465 16.2911 73.1784 16.3613C73.1082 16.2911 73.038 16.2209 73.038 16.1507C73.3188 16.3613 73.4592 16.2911 73.74 16.6422C73.8804 16.572 73.6698 16.3613 73.5294 16.2209C73.1082 16.0103 71.7041 15.0977 71.8445 14.7467C71.7743 14.7467 71.6339 14.6765 71.4935 14.7467Z" fill="#E20F7C"/>
<path fill-rule="evenodd" clip-rule="evenodd" d="M75.6355 12.7809C75.7759 13.132 76.9694 13.834 76.9694 14.2552C77.18 14.4658 77.3204 14.3956 77.531 14.6765C77.4608 14.6765 77.3204 14.6765 77.18 14.6765C77.3906 14.8169 77.531 14.9573 77.7416 15.0977C77.9522 15.2381 78.0926 15.4487 78.3033 15.6593C78.6543 16.0805 79.0053 16.5018 79.3563 16.923C80.0583 17.7654 80.8306 18.6079 81.5326 19.1695C81.6028 19.8715 82.5857 20.0822 82.5155 20.6438C82.5857 20.4332 82.5857 20.5034 82.7261 20.4332C82.1645 19.9417 81.6028 19.0291 81.673 18.6781V18.6079V18.6781C81.7432 18.7483 82.0943 18.6079 82.0943 19.0291C82.3049 19.0993 82.0943 18.6781 82.3049 18.8887C82.3751 19.0993 82.4453 19.3099 82.4453 19.5205C82.6559 19.7311 82.7963 19.8715 82.9367 20.012C82.8665 20.0822 82.7963 20.0822 82.8665 20.2226C83.0771 19.9418 83.2877 20.6438 83.4281 20.8544C83.4983 20.5736 83.0771 20.012 83.1473 19.7311C82.9367 19.8013 83.0069 19.5907 82.7261 19.3099C82.7963 19.2397 82.8665 19.2397 82.7963 19.0993C82.7261 19.0993 82.5857 18.6079 82.2347 18.4675C82.3751 18.6781 82.3049 18.7483 82.1645 18.6781C81.8837 18.1867 81.322 17.7654 81.1114 17.1336C80.8306 17.3442 80.6902 16.8528 80.4094 16.5018C80.3392 16.572 80.269 16.7124 80.1286 16.572C79.9881 16.3613 80.0583 16.2911 80.0583 16.1507C80.1988 16.2911 80.62 16.572 80.4094 16.2911C80.269 16.3613 79.9179 15.6593 79.7775 15.7997C79.9881 16.0103 79.9881 16.0805 79.9179 16.1507C79.8477 15.7997 79.6371 16.0805 79.4265 15.6593C79.2861 15.7295 79.1457 15.8699 79.0053 15.7997C79.0053 15.3785 78.5139 15.3785 78.233 15.0977C78.0926 14.7467 78.0224 14.4658 78.0926 14.185C77.8118 13.9744 77.7416 13.834 77.6012 13.834C77.7416 13.9744 77.6714 14.1148 77.6714 14.2552C77.0396 13.834 76.8992 13.6234 76.3375 13.0618C76.0567 13.132 75.8461 12.9916 75.6355 12.7809ZM80.269 17.2038C80.4094 17.274 80.5498 17.4144 80.6902 17.625C80.62 17.9058 80.269 17.1336 80.1988 17.4144C80.1286 17.274 80.1988 17.2038 80.269 17.2038Z" fill="#E20F7C"/>
<path fill-rule="evenodd" clip-rule="evenodd" d="M75.144 17.8356C75.2845 18.0462 75.2142 18.1867 75.2142 18.3271C75.3547 18.5377 75.4249 18.3973 75.5653 18.5377C75.4951 18.6079 75.4951 18.6781 75.5653 18.8185C75.7759 18.4675 75.2142 18.1867 75.2844 17.8356C75.3547 17.9058 75.2142 17.7654 75.144 17.8356Z" fill="#E20F7C"/>
<path fill-rule="evenodd" clip-rule="evenodd" d="M87.6403 30.0511C87.5701 29.4193 88.0615 30.2617 88.0615 29.8405C87.8509 29.9107 87.7105 29.4895 87.4999 29.4895C87.7807 29.8405 87.4297 29.7001 87.6403 30.0511Z" fill="#E20F7C"/>
<path fill-rule="evenodd" clip-rule="evenodd" d="M87.7807 32.087C87.7105 32.087 87.6403 31.9466 87.4999 32.087C87.6403 32.3678 87.4999 32.5083 87.4999 32.7189C87.5701 32.6487 87.7807 33.2103 87.7807 32.8593C87.4999 32.438 87.8509 32.3678 87.7807 32.087Z" fill="#E20F7C"/>
<path fill-rule="evenodd" clip-rule="evenodd" d="M84.5514 73.2968C84.762 73.1563 85.0428 73.1564 84.9726 73.1564C85.113 72.8053 84.6918 73.0159 84.5514 73.2968Z" fill="#E20F7C"/>
<path fill-rule="evenodd" clip-rule="evenodd" d="M80.7604 78.7024C80.4796 79.0535 80.1286 79.1939 80.1286 79.5449C80.3392 79.4045 80.7604 79.0535 80.6902 79.4045C80.7604 79.1237 81.6029 78.562 81.3923 78.6322C81.1115 78.7024 80.5498 79.1939 80.7604 78.7024Z" fill="#E20F7C"/>
<path fill-rule="evenodd" clip-rule="evenodd" d="M84.8322 83.3359C84.8322 83.4764 84.8322 83.4764 84.762 83.9678C85.113 83.4764 85.3938 83.0551 85.1832 82.8445C85.113 82.9849 84.6918 83.2657 84.8322 83.3359Z" fill="#E20F7C"/>
<path fill-rule="evenodd" clip-rule="evenodd" d="M70.1596 89.0225C70.0192 89.1629 69.8788 89.0927 69.8788 89.2331C70.3 89.0927 69.5278 89.5139 69.598 89.6543C69.8788 89.5841 70.5106 89.1629 70.3702 89.0927C69.8788 89.3033 70.0192 89.1629 70.1596 89.0225Z" fill="#E20F7C"/>
<path fill-rule="evenodd" clip-rule="evenodd" d="M56.6804 94.4984C56.8208 94.4984 57.1016 94.4282 57.1718 94.5686C56.6102 94.709 55.7678 94.6388 56.0486 94.8494C56.189 94.6388 56.7506 94.709 56.891 94.7792C56.9612 94.6388 58.0143 94.1473 57.7335 94.2175C57.1718 94.5686 56.8208 94.358 56.6804 94.4984Z" fill="#E20F7C"/>
<path fill-rule="evenodd" clip-rule="evenodd" d="M53.9425 94.6388C53.9425 94.9196 53.5213 95.2707 54.0127 95.3409C53.9425 95.2005 54.1531 95.2005 54.2233 95.1303C53.8723 95.0601 53.8723 94.709 54.5743 94.6388C54.5743 94.4282 54.1531 94.6388 53.9425 94.6388Z" fill="#E20F7C"/>
<path fill-rule="evenodd" clip-rule="evenodd" d="M51.9065 95.2706C51.6959 95.3408 52.1873 95.4812 52.1171 95.6919L51.6257 95.7621L51.5555 95.4812C51.2045 95.6919 50.5024 95.7621 50.7832 95.9727C50.5726 95.9025 50.2918 95.9727 50.2216 96.1131C51.1343 96.0429 51.3449 95.8323 52.1171 95.8323C52.1171 95.7621 52.1171 95.6919 52.3277 95.6919C51.9767 95.4812 52.3277 95.2706 51.9065 95.2706Z" fill="#E20F7C"/>
<path fill-rule="evenodd" clip-rule="evenodd" d="M46.922 98.6404C47.1326 98.7106 47.7644 98.5702 47.5538 98.9212C48.4665 98.7808 47.2028 98.4298 46.922 98.6404Z" fill="#E20F7C"/>
<path fill-rule="evenodd" clip-rule="evenodd" d="M42.0781 95.4812C42.2185 95.4812 42.3589 95.5514 42.4291 95.6216C43.6928 95.5514 42.2887 95.411 42.0781 95.4812Z" fill="#E20F7C"/>
<path fill-rule="evenodd" clip-rule="evenodd" d="M41.376 95.6918C41.4462 95.9024 42.0079 95.9726 42.2887 95.9024C42.2185 95.762 41.7973 95.6918 42.0781 95.5514C41.4462 95.4812 41.0952 95.5514 40.674 95.6216C41.025 95.8322 40.323 95.8322 40.5336 95.9024C40.674 95.8322 41.0952 95.8322 41.2356 95.9024C41.376 95.8322 41.1654 95.762 41.376 95.6918Z" fill="#E20F7C"/>
<path fill-rule="evenodd" clip-rule="evenodd" d="M39.7612 95.1302C39.7612 95.2706 39.5506 95.3408 39.4102 95.3408C39.4102 95.2004 38.9187 95.2706 38.8485 95.1302C38.7081 95.2004 38.7783 95.3408 38.4975 95.2706C36.5318 94.9898 34.9873 94.7792 33.6534 94.358C32.9514 94.1473 32.2493 94.0069 31.5473 93.7963C31.1963 93.7261 30.8453 93.5857 30.424 93.5155C30.073 93.3751 29.6518 93.2347 29.2306 93.0943C29.1604 93.5155 28.8796 92.8837 28.6689 93.0241C28.8094 93.3751 29.02 93.4453 29.5816 93.7261C29.722 93.5857 29.3008 93.5155 29.3008 93.3751C29.4412 93.4453 29.5816 93.4453 29.6518 93.4453C29.4412 93.6559 30.1432 93.7963 29.7922 93.8665C30.6347 94.0771 31.5473 94.2175 32.5302 94.4281C33.0216 94.4984 33.5832 94.6388 34.1449 94.7792C34.4257 94.8494 34.7065 94.9196 34.9873 94.9898C35.2681 95.06 35.5489 95.1302 35.9 95.2004C35.9 95.1302 36.0404 95.06 36.1808 95.06C36.4616 95.2706 36.4616 95.1302 36.953 95.2706C36.8126 95.411 36.8828 95.4812 37.1636 95.6216C37.1636 95.5514 37.1636 95.4812 37.304 95.4812C37.9359 95.5514 38.7081 95.6216 39.4102 95.5514C40.042 95.5514 40.6036 95.411 40.8844 95.2706C40.4632 95.2706 40.042 95.1302 39.7612 95.1302Z" fill="#E20F7C"/>
<path fill-rule="evenodd" clip-rule="evenodd" d="M25.0886 85.442C25.5098 85.5825 25.9311 85.8633 25.5098 85.7931C25.7205 85.9335 26.0013 86.1441 26.2119 86.0739C26.4927 86.3547 26.5629 86.7759 26.9841 86.9163C26.9841 86.9865 26.9139 87.0567 26.7735 87.1269C27.1245 87.1971 27.2649 87.1269 27.5458 87.1269C27.6862 87.2674 27.5458 87.4078 27.8266 87.478C27.967 87.3376 28.5286 87.478 29.02 87.6886L28.9498 87.7588C28.9498 87.829 29.02 87.8992 29.02 87.9694C29.0902 87.8992 29.1605 87.8992 29.1605 87.829C29.1605 87.7588 29.1605 87.7588 29.1605 87.6886C29.7221 87.8992 30.2135 88.18 30.0029 88.3204C30.2837 88.3906 30.5645 88.531 30.8453 88.6012C30.7751 88.6012 30.7751 88.6714 30.7751 88.6714C30.7049 88.7416 30.7049 88.8118 30.8453 88.8118C31.1262 88.882 31.407 88.8118 31.6176 89.0224C31.8282 88.882 32.0388 88.9522 32.3196 89.0224C32.46 89.0927 32.6004 89.0225 32.6004 88.882H32.6707C32.6707 88.882 32.6707 88.882 32.6004 88.882C32.6004 88.8118 32.6004 88.8118 32.6004 88.7416C32.8111 88.7416 32.9515 88.8118 33.0217 88.7416C32.8813 88.7416 32.7409 88.6714 32.6004 88.6714C32.6004 88.531 32.5302 88.3906 32.46 88.3906C32.3898 88.4608 32.2494 88.531 32.1792 88.531C32.109 88.531 31.9686 88.4608 31.8984 88.4608C31.4772 88.3204 31.1262 88.18 30.7049 88.0396C29.9327 87.7588 29.1605 87.478 28.5988 87.2673C28.669 87.1971 28.7392 87.1971 28.8796 87.1971C29.1605 87.2674 29.3009 87.6184 29.4413 87.4078C29.1605 87.3376 29.02 87.1971 28.8094 87.0567C28.669 87.1971 28.3882 87.1269 28.1074 86.9865C27.8266 86.8461 27.5458 86.7057 27.4054 86.7759C27.5458 86.7759 27.616 86.6355 27.5458 86.4951C27.1245 86.3547 26.6331 86.0739 26.4225 85.7931C26.4927 85.7229 26.6331 85.7931 26.7033 85.7229C25.9311 85.442 25.6503 85.5123 25.0886 85.442Z" fill="#E20F7C"/>
<path fill-rule="evenodd" clip-rule="evenodd" d="M27.6862 90.1457C28.2479 90.2159 28.7393 90.2861 29.3009 90.6371C29.3009 90.5669 29.3009 90.4967 29.2307 90.4265C29.4413 90.4967 29.5115 90.4967 29.5817 90.4265C28.9499 90.2861 28.5989 90.1457 27.967 90.0053C28.6691 90.2159 27.8266 90.1457 27.6862 90.1457Z" fill="#E20F7C"/>
<path fill-rule="evenodd" clip-rule="evenodd" d="M26.7034 89.3735C26.4928 89.3033 26.4226 89.2331 26.3524 89.1629C26.1418 89.3033 26.7034 89.7245 26.563 89.5139C26.212 89.3735 26.7034 89.5139 26.7034 89.3735Z" fill="#E20F7C"/>
<path fill-rule="evenodd" clip-rule="evenodd" d="M24.3164 89.7947C24.0356 90.1457 25.229 90.3563 25.2992 90.7073L25.3694 90.5669C25.4396 90.5669 25.5098 90.6371 25.5098 90.5669C25.2992 90.4265 24.9482 90.2861 24.527 90.0053C24.527 89.9351 24.5972 89.8649 24.3164 89.7947Z" fill="#E20F7C"/>
<path fill-rule="evenodd" clip-rule="evenodd" d="M20.8764 92.4625C21.0168 92.4625 21.3678 92.3923 21.087 92.2519C20.8062 92.3221 20.6658 92.1114 20.4552 92.1817C20.6658 92.3221 20.736 92.3923 20.736 92.4625C20.3148 92.3923 20.385 92.2519 19.9637 92.0412C19.8935 92.1115 20.0339 92.2519 19.9637 92.3221C19.6127 92.0412 19.3319 92.0412 19.0511 91.971C19.4021 92.1114 19.3319 92.2519 19.6127 92.4625C20.0339 92.3923 20.3148 92.6731 21.0168 92.9539C21.0168 92.8135 21.2274 92.9539 21.2976 92.8837C21.087 92.7433 21.0168 92.6029 20.8764 92.4625Z" fill="#E20F7C"/>
<path fill-rule="evenodd" clip-rule="evenodd" d="M23.7547 81.3702C23.9653 81.4404 24.1057 81.7212 24.1759 81.5808C23.8249 81.3702 24.0355 81.3 23.9653 81.1596C23.8249 81.1596 23.7547 81.1596 23.7547 81.3702Z" fill="#E20F7C"/>
<path fill-rule="evenodd" clip-rule="evenodd" d="M72.9678 9.69198C73.389 10.043 73.5996 9.90259 73.8804 10.043C74.0911 10.2536 74.1613 10.4642 74.3017 10.6748C74.5123 10.745 74.7931 10.9556 75.0739 11.1663C75.3547 11.4471 75.6355 11.7279 75.9866 11.9385C75.5653 11.5875 75.5653 11.3769 75.4249 11.0961C75.0037 10.9556 74.8633 10.6748 74.4421 10.6046C74.5123 10.5344 74.4421 10.4642 74.3017 10.394C74.3719 10.2536 74.5123 10.1834 74.3017 10.043C74.0208 10.043 73.5294 9.69198 73.2486 9.69198C73.1784 9.55157 73.1784 9.41116 73.1082 9.27075C73.038 9.34096 72.9678 9.34096 72.8976 9.34096C73.038 9.48136 73.1082 9.62177 72.9678 9.69198Z" fill="#E20F7C"/>
<path fill-rule="evenodd" clip-rule="evenodd" d="M29.9327 94.4282C29.722 94.2878 29.4412 94.0772 29.1604 93.9368C28.5988 93.656 27.8967 93.4453 27.2649 93.3751C27.1947 93.8666 26.7735 93.9368 26.0714 93.7964C26.2118 93.5155 25.5098 93.3751 25.4396 93.0943C25.3694 93.3751 25.0184 93.0943 25.0184 93.2347C25.0184 93.0943 24.878 93.0241 24.7376 92.9539C24.6674 93.2347 23.9653 92.8135 23.5441 92.6731C23.4739 92.8837 23.6143 92.8837 23.4037 93.0241C23.8249 93.4453 24.9482 94.007 25.2992 94.2176C26.4225 94.2878 27.6861 95.6217 29.0902 95.9727C30.0731 96.1833 30.7049 95.7621 30.4943 94.9898C30.4241 94.709 30.2135 94.5686 29.9327 94.4282Z" fill="#E20F7C"/>
</svg>
