<svg width="2172" height="86" viewBox="0 0 2172 86" fill="none" xmlns="http://www.w3.org/2000/svg">
<path fill-rule="evenodd" clip-rule="evenodd" d="M1109.79 81.9147L1115.7 81.9528C1116.5 81.6016 1117.39 81.3237 1118.33 81.1285C1119.2 80.7473 1119.98 80.2955 1120.64 79.7864C1120.27 79.3845 1119.99 78.9591 1119.79 78.519C1119.8 78.2205 1120.19 77.9652 1120.86 78.0374L1121.32 77.3754L1127.4 77.4146C1126.33 76.8055 1125.07 76.3349 1123.68 76.0337C1123.2 75.4742 1122.72 74.8876 1122.24 74.3011C1123.16 73.8182 1123.68 74.0895 1124.28 74.3975C1124.59 74.5597 1124.92 74.732 1125.34 74.8096L1127.07 74.2509C1127.31 74.2524 1127.54 74.3727 1127.78 74.5021C1128.22 74.7409 1128.73 75.0105 1129.51 74.6194C1129.67 74.3897 1129.67 74.3897 1127.33 73.0042L1125.38 72.5709C1125.6 72.4139 1125.87 72.2783 1126.16 72.1688C1126.68 72.0677 1127.21 71.985 1127.75 71.9213L1125.99 70.9193C1125.38 70.9451 1124.77 70.8936 1124.19 70.7682C1123.62 70.6428 1123.09 70.4464 1122.66 70.1922L1118.24 70.1637L1117.05 69.4911L1113.78 69.47L1112.56 68.7973L1106.47 68.758C1105.96 68.6088 1105.55 68.4959 1105.19 68.3969L1105.19 68.3965C1104.99 68.3417 1104.8 68.2911 1104.63 68.241C1104.47 68.1964 1104.32 68.152 1104.17 68.1054C1103.79 67.9858 1103.54 67.8876 1103.21 67.7523L1103.21 67.7515L1103.21 67.7512C1103 67.6672 1102.76 67.5691 1102.42 67.4428L1098.42 67.417C1097.64 67.1541 1097.64 66.8963 1098.15 66.8589C1098.76 66.8153 1099.3 66.6336 1099.84 66.4525C1100.68 66.1683 1101.52 65.8856 1102.62 66.1414C1103.17 65.8704 1103.82 65.674 1104.47 65.4764C1105.49 65.1663 1106.52 64.853 1107.23 64.2443L1108.74 65.0004L1110.8 64.2808L1113.67 64.2994L1114.99 63.6429L1121.27 63.6835L1125.21 62.352L1130.48 62.386C1130.52 62.3862 1130.55 62.3786 1130.58 62.3652C1130.63 62.3419 1130.68 62.3011 1130.75 62.2529C1130.78 62.2273 1130.82 62.1996 1130.86 62.1714C1130.89 62.1491 1130.93 62.1264 1130.97 62.1041L1126.58 60.7189L1126.59 59.9319L1129.83 59.6L1128.9 58.6577L1131.04 58.1965L1130.68 57.0408L1129.55 57.6849L1126.54 56.797C1127.46 56.4407 1128.44 56.4795 1129.42 56.518C1130.23 56.5502 1131.04 56.5822 1131.81 56.3832L1132.78 55.806L1137.38 55.8357L1137.53 54.7646L1135.76 54.4954L1135.17 53.4874C1134.37 53.1786 1133.47 53.2182 1132.58 53.258C1131.67 53.2982 1130.76 53.3386 1129.95 53.0195C1130.94 52.6188 1130.94 52.6188 1132.78 52.5629L1133.52 51.3735L1141.58 51.2762C1141.59 51.2764 1141.61 51.274 1141.63 51.2695C1141.66 51.2628 1141.68 51.2513 1141.71 51.2364C1141.75 51.2151 1141.79 51.1871 1141.83 51.1563L1141.83 51.1556C1141.89 51.1122 1141.96 51.0636 1142.04 51.0214C1141.11 50.6562 1140.1 50.6736 1139.09 50.691C1138.31 50.7045 1137.53 50.7181 1136.77 50.5532C1136.45 50.2366 1136.78 50.1065 1137.11 49.9764C1137.35 49.882 1137.59 49.7877 1137.58 49.6221L1137.47 48.8615L1134.53 48.5847C1134.53 48.5629 1134.53 48.5411 1134.52 48.5198C1134.52 48.5057 1134.51 48.4918 1134.51 48.4783L1134.51 48.47L1134.5 48.4552L1134.49 48.438C1134.47 48.3639 1134.45 48.3077 1134.53 48.2998C1135.28 47.9894 1136.09 48.0297 1136.9 48.0703C1137.35 48.0927 1137.8 48.1151 1138.24 48.0794C1139.08 47.6453 1138.88 47.1156 1138.67 46.5895C1138.64 46.4986 1138.6 46.4078 1138.57 46.3176C1137.77 46.0516 1136.91 46.0793 1136.05 46.1071C1135.65 46.1198 1135.26 46.1325 1134.87 46.1172C1134.04 46.0848 1133.17 46.0883 1132.31 46.0917H1132.3C1131.87 46.0934 1131.43 46.0951 1131 46.0923L1127.14 46.0674C1126.8 46.0652 1126.46 46.0831 1126.12 46.1008C1125.19 46.1497 1124.29 46.1972 1123.43 45.8128C1123.79 45.3171 1124.41 45.3641 1125.03 45.4112C1125.27 45.4296 1125.51 45.4479 1125.74 45.4341C1126.45 45.4124 1127.17 45.417 1127.88 45.448L1131.15 44.4785C1130.26 44.1195 1129.28 44.1431 1128.31 44.1668C1127.49 44.1868 1126.66 44.2067 1125.88 43.9968C1125.49 43.589 1125.94 43.5522 1126.35 43.5182L1126.35 43.518C1126.42 43.5122 1126.49 43.5065 1126.56 43.499C1126.63 43.4897 1126.73 43.489 1126.84 43.4916C1126.91 43.4931 1126.98 43.4957 1127.05 43.4985C1127.55 43.5175 1128.25 43.5437 1128.86 43.256L1129.08 41.1813L1132.28 40.225C1132.36 40.2255 1132.47 40.2363 1132.6 40.2492C1133.05 40.296 1133.78 40.3696 1134.45 40.0761L1131.21 38.6983L1131.22 37.8977C1132.08 37.5593 1133.03 37.5925 1134.01 37.6265C1134.85 37.6555 1135.71 37.6852 1136.53 37.4843C1136.54 37.0746 1136.16 37.0522 1135.77 37.0293C1135.6 37.0188 1135.42 37.0082 1135.27 36.9604C1134.67 36.7112 1134.11 36.4256 1133.6 36.1083L1133.31 34.5867C1132.53 34.2896 1131.7 34.3154 1130.89 34.3408C1130.45 34.3544 1130.02 34.3678 1129.61 34.3321L1128.44 33.7004L1127.49 34.2506L1121.6 34.2126C1121.38 33.7795 1121.82 33.5978 1122.24 33.4186C1122.49 33.3162 1122.73 33.2145 1122.85 33.0673C1124.01 33.0748 1124.67 32.6676 1125.34 32.2523C1125.64 32.0689 1125.94 31.884 1126.29 31.7325L1128.59 31.7473C1129.29 31.1732 1130.32 30.8198 1131.35 30.4631C1132.62 30.0253 1133.91 29.5823 1134.64 28.7197L1133.16 28.4795L1131.89 29.1633C1131.37 29.1744 1130.84 29.1437 1130.33 29.0718C1130.74 28.1424 1132.02 27.7354 1133.32 27.3211C1134 27.1022 1134.7 26.881 1135.27 26.5798C1136.36 26.6716 1136.93 26.2958 1137.55 25.8964C1137.82 25.7203 1138.1 25.5397 1138.43 25.3925L1140.89 25.2455C1141.43 24.9672 1141.38 24.6222 1141.33 24.2774C1141.3 24.0909 1141.27 23.9044 1141.34 23.7286C1140.94 23.3462 1140.37 23.3594 1139.8 23.3727C1139.49 23.3798 1139.18 23.3868 1138.9 23.3329C1138.21 23.132 1137.56 22.8866 1136.95 22.6012L1135.22 23.2413L1131.75 23.2189L1131.52 22.9189C1132.42 22.6401 1133.34 22.3749 1134.58 22.0173L1134.59 22.016L1136.36 22.0274L1137.56 21.3702L1139.68 21.3839L1140.95 20.7272L1143.87 20.746L1145.58 19.7529C1144.43 19.4081 1143.23 19.4359 1142.04 19.4634C1141.08 19.4857 1140.12 19.5078 1139.21 19.3319L1138.91 19.0993C1139.62 18.6697 1140.36 18.2402 1141.22 17.7572L1139.1 17.2415C1139.11 16.5972 1139.91 16.4431 1140.72 16.2888C1141.39 16.1603 1142.06 16.0316 1142.27 15.62C1142.22 15.5411 1142.19 15.4608 1142.16 15.3843C1142.1 15.2361 1142.05 15.1021 1141.9 15.0206C1141.08 14.381 1140.03 13.8552 1138.83 13.481L1137.15 14.1757L1134.04 14.1557C1133.8 14.1014 1133.62 13.9779 1133.45 13.8524C1133.17 13.6548 1132.88 13.4524 1132.32 13.5068L1131.91 12.9207L1125 12.8762L1124.06 13.4264L1118.6 13.3912L1117.33 14.048L1110.8 14.0058L1109.58 14.6764L1104.1 14.6411L1103.11 15.2181C1102.15 15.3005 1101.13 15.2861 1100.07 15.2713H1100.07C1099.19 15.2589 1098.28 15.2461 1097.38 15.2897L1096.41 15.8534L1091.99 15.825L1090.97 16.6597L1080.98 16.5953L1079.86 16.0452C1079.41 15.9468 1078.91 15.9622 1078.38 15.9779C1077.57 16.0025 1076.72 16.0282 1076 15.6268C1076.05 15.596 1076.1 15.5635 1076.14 15.5322L1076.19 15.5014C1076.3 15.4226 1076.39 15.358 1076.48 15.3585L1088.38 15.4352C1089.47 15.1826 1089.88 14.6651 1090.27 14.1601C1090.55 13.7946 1090.83 13.4357 1091.36 13.1884C1091.1 12.5056 1091.63 11.9433 1092.13 11.4038C1092.36 11.1587 1092.59 10.9183 1092.74 10.6733C1092.64 10.6075 1092.57 10.5467 1092.5 10.4951C1092.38 10.3962 1092.3 10.3313 1092.21 10.3307L1077.55 10.0598L1076.64 9.4975L1065.43 9.42523L1063.69 8.05701L1058.93 8.02631C1058.85 8.02582 1058.78 7.98315 1058.71 7.93091L1058.68 7.91193L1058.64 7.88336C1058.6 7.85101 1058.56 7.81866 1058.51 7.79297C1058.75 7.24274 1059.39 7.30988 1060.04 7.37738C1060.64 7.44104 1061.25 7.50507 1061.53 7.05255L1060.48 6.31299C1062.07 6.03082 1063.67 6.07196 1065.27 6.1134H1065.28C1066.58 6.14697 1067.88 6.18073 1069.2 6.04358L1069.48 5.16339C1068.58 4.79956 1067.6 4.82074 1066.62 4.84198C1065.79 4.86017 1064.94 4.87842 1064.15 4.65405C1064.05 4.16675 1064.52 4.16034 1065 4.15369C1065.38 4.1485 1065.77 4.14319 1065.9 3.90546C1066.11 3.53613 1065.62 3.5293 1065.09 3.52197C1064.84 3.51855 1064.58 3.51501 1064.39 3.47504L1062.94 2.57013C1063.13 2.28638 1063.45 2.23419 1065.61 2.15314L1067.25 1.24103L1064.38 0.354004L1063.37 0.876709L1062.22 0.258667L1061.44 0.714966C1061.37 0.714478 1061.29 0.754761 1061.22 0.794983C1061.2 0.804443 1061.18 0.81427 1061.16 0.823181C1061.14 0.836731 1061.11 0.84906 1061.08 0.858276C1061.08 0.861145 1061.07 0.86377 1061.06 0.866028C1061.05 0.868286 1061.04 0.870178 1061.04 0.871643C1061.02 0.873901 1061.01 0.875061 1061 0.875L1056.74 0.847534L1055.73 0.243958L1054.6 0.765869L1048.9 0.729065L1047.96 0.166626L1046.78 0.783264L1042.41 0.755066L1041.05 0L1039.28 0.477051L1039.28 0.572021C1039.21 0.571594 1039.13 0.611816 1039.06 0.652039C1039.04 0.661743 1039.02 0.671448 1039.01 0.680603C1038.99 0.687866 1038.98 0.694763 1038.96 0.700989C1038.95 0.706116 1038.94 0.710815 1038.93 0.714905C1038.91 0.721069 1038.89 0.725891 1038.88 0.728882C1038.86 0.731018 1038.85 0.732117 1038.84 0.732056L1018.13 0.598511L1017.12 1.18896L1015.99 0.666077C1014.97 0.35907 1014.09 0.625 1013.2 0.895935C1012.35 1.15125 1011.49 1.41107 1010.49 1.2005C1010.26 1.13007 1010.07 1.01324 1009.87 0.894165C1009.45 0.638611 1009.01 0.372986 1008.19 0.534363L1006.97 1.19141L993.807 1.10651L992.652 1.69611L991.483 1.10504C990.741 0.990784 990.2 1.2486 989.666 1.5033C989.008 1.81683 988.36 2.12561 987.36 1.7298L986.075 1.09735L984.967 1.6601L983.821 1.05566L983.035 1.49835C982.966 1.49792 982.891 1.5415 982.816 1.58514C982.802 1.59326 982.788 1.60138 982.774 1.60919C982.753 1.62146 982.731 1.633 982.709 1.64282C982.671 1.6604 982.633 1.67218 982.597 1.67194L969.482 1.58734L968.604 2.09735C967.492 2.44922 966.564 2.17773 965.645 1.90845C965.382 1.83173 965.121 1.75513 964.856 1.69324C964.733 1.75854 964.615 1.82391 964.495 1.89282C964.407 1.9433 964.319 1.99567 964.227 2.05139C964.161 2.09119 964.094 2.13269 964.024 2.17633L962.878 1.58545L961.7 2.25635L946.307 2.15704L945.152 2.7467L943.731 2.01831L941.425 2.76337L886.64 2.40997L885.6 3.01392L884.453 2.43658L883.299 3.03979L770.483 2.09967L768.98 3.14844L768.874 3.65137L767.528 2.95868L614.794 4.15619L613.233 3.55566L611.679 4.13562L610.273 3.53406L536.104 4.01245L532.984 3.27264L531.057 4.00427L529.496 3.4173L508.656 3.5517L507.063 2.88348L505.51 3.47699C505.104 3.28967 504.76 3.14264 504.385 2.99579C504.026 3.05829 503.672 3.13544 503.317 3.21277C502.071 3.48419 500.815 3.75781 499.31 3.40845L498.123 2.90045L480.367 3.01501C480.274 3.01556 480.172 2.97217 480.071 2.92871C479.969 2.88525 479.868 2.8418 479.774 2.84241L478.712 2.40143L477.159 3.00854L475.66 2.4483L473.919 3.08374C472.564 3.48181 471.688 3.1745 470.798 2.86249C470.075 2.60901 469.344 2.35242 468.339 2.46838L466.754 3.06207L465.193 2.4751L447.375 2.59003L445.72 1.93579C444.613 1.77631 444.017 2.04297 443.444 2.29944C443.177 2.41895 442.915 2.53619 442.609 2.60718C441.25 2.82001 440.086 2.56219 438.943 2.30884C438.109 2.12415 437.286 1.94183 436.406 1.94592L436.135 1.88367L435.911 1.96851C435.666 1.99005 435.416 2.02777 435.16 2.08533L434.518 2.30695L433.207 1.78339L432.456 2.10516L432.263 2.02258L425.133 2.0686L424.423 1.75385L423.464 2.07935L414.966 2.13416L413.894 1.65881L412.622 2.14929L406.276 2.19025L404.55 1.47644L402.891 1.80316L401.232 1.47644L399.506 2.19025L393.16 2.14929L391.887 1.65881L390.815 2.13416L382.318 2.07935L381.359 1.75385L380.649 2.0686L373.519 2.02258L373.326 2.10516L372.574 1.78339L371.264 2.30688L370.622 2.08533C370.365 2.02777 370.115 1.99005 369.871 1.96851L369.646 1.88367L369.376 1.94592C368.496 1.94183 367.673 2.12415 366.839 2.30884C365.695 2.56219 364.532 2.82001 363.173 2.60718C362.867 2.53619 362.604 2.41895 362.337 2.29944C361.764 2.04297 361.168 1.77631 360.062 1.93579L358.407 2.59003L340.589 2.4751L339.027 3.06207L337.443 2.46838C336.438 2.35242 335.706 2.60901 334.983 2.86249C334.094 3.1745 333.218 3.48181 331.862 3.08374L330.122 2.4483L328.623 3.00854L327.069 2.40143L326.007 2.84241C325.914 2.8418 325.812 2.88525 325.711 2.92871C325.609 2.97217 325.508 3.01556 325.414 3.01501L307.659 2.90045L306.472 3.40845C304.966 3.75781 303.71 3.48419 302.464 3.21277C302.109 3.13544 301.755 3.05829 301.396 2.99579C301.022 3.14264 300.678 3.28967 300.272 3.47699L298.718 2.88348L297.125 3.5517L276.285 3.4173L274.724 4.00427L272.797 3.27264L269.677 4.01245L195.508 3.53406L194.102 4.13562L192.548 3.55566L190.987 4.15619L38.2535 2.95868L36.2219 4.00397L35.8393 5.35846L33.7198 5.53479C33.4062 5.72516 33.1781 5.94525 32.9442 6.17096C32.5015 6.59802 32.0381 7.0451 30.9356 7.34869L29.4749 6.82367C28.5928 6.89111 28.5864 7.15521 28.5802 7.41516C28.5771 7.54102 28.5742 7.66589 28.4719 7.76703L24.3541 8.66321L20.3668 8.63751L19.0235 9.22589L16.3439 9.30359L12.1638 10.1993L12.1597 10.8235L10.6599 11.533L13.5488 12.8C13.0671 12.9946 12.4261 13.0959 11.7939 13.1959C10.9502 13.3293 10.1224 13.4602 9.71063 13.8066L6.84476 13.7881C6.83557 13.7921 6.82626 13.7959 6.81686 13.7997C6.80725 13.8036 6.79755 13.8074 6.78775 13.8112L6.75992 13.8216L6.73596 13.8303C6.69205 13.8459 6.64749 13.8606 6.60425 13.8748L6.60324 13.8752C6.56268 13.8885 6.52325 13.9016 6.48657 13.9146C6.3898 13.9491 6.31207 13.9843 6.28247 14.0287C6.08905 14.2219 6.05716 14.4391 6.19232 14.6431C6.32748 14.8471 6.62125 15.025 7.02292 15.1462C7.9241 15.4913 7.85925 15.8843 7.01523 16.3403L5.55447 15.8152L1.77997 16.605L1.77063 18.0569L2.98199 18.6075L2.9624 21.6469C3.36542 21.9568 3.73019 22.2474 4.07968 22.5258C4.56351 22.9112 5.01801 23.2733 5.50406 23.6309C5.80945 23.8557 5.97388 24.0813 6.12903 24.2942C6.39914 24.6648 6.64108 24.9968 7.54984 25.2182C7.54337 26.2223 8.97342 26.6793 11.1528 26.8698C11.5504 26.8723 11.9047 27.0584 12.264 27.2471L12.2651 27.2477C12.3195 27.2762 12.374 27.3049 12.4287 27.3329C12.5504 27.3952 12.6735 27.4547 12.7998 27.5046L17.2543 27.5333L19.4286 28.5107C18.4739 28.9194 17.3242 28.8704 16.2398 28.8242C15.5503 28.7947 14.8872 28.7665 14.3175 28.8577L12.0376 29.7522L12.0289 31.1091C12.54 31.4429 13.2291 31.4435 13.9222 31.4442C14.1967 31.4445 14.4718 31.4448 14.7368 31.4658C15.5738 31.5754 16.3949 31.7076 17.1953 31.8616C14.7946 32.085 12.33 32.1605 9.87311 32.0858C9.29034 32.4432 8.41931 32.5765 7.48807 32.7189C7.02005 32.7906 6.53635 32.8645 6.06686 32.9704L7.55701 33.767L3.34293 35.0968L2.31738 34.7102C1.95096 34.7307 1.69925 34.8475 1.44064 34.9677C1.08344 35.1335 0.713043 35.3056 0.00875854 35.2381L0 36.595C0.938538 36.6011 1.41614 36.8555 1.89789 37.1122C2.19962 37.2729 2.50296 37.4346 2.92221 37.5366L2.91345 38.8935L1.50818 39.4272L1.49942 40.7841C2.19406 41.2953 3.37857 41.5532 4.51517 41.8006C5.05267 41.9176 5.57947 42.0323 6.03867 42.1703C7.17783 42.5574 8.21942 42.9963 9.14542 43.4795L13.3765 44.3481L19.2478 46.8828L19.2399 48.1175C18.5043 48.4411 17.6778 48.4043 16.8714 48.3683C16.4447 48.3494 16.0237 48.3306 15.6247 48.3656C15.1753 48.5795 14.9343 48.8641 14.6975 49.1436C14.3416 49.5637 13.9953 49.9724 12.9655 50.1125C11.3541 50.2995 9.93088 50.7092 8.90817 51.2804L8.89157 53.8585L10.5996 54.6837L8.97101 56.0302C8.73236 56.2546 8.6633 56.5069 8.77359 56.7512C8.88388 56.9956 9.16791 57.2195 9.58527 57.391C10.3842 57.6807 10.3701 58.0335 10.3531 58.4629C10.3449 58.6683 10.3361 58.8912 10.4151 59.1332L13.7425 60.0503C12.6656 60.7617 11.0569 61.2877 9.18466 61.5406C8.14127 61.6826 7.77652 62.1001 7.40445 62.5259C7.16504 62.8 6.92261 63.0775 6.49435 63.2873L3.37927 63.2672C2.3782 63.6609 2.47781 64.1063 2.58664 64.5928C2.64755 64.8652 2.71133 65.1505 2.58643 65.4468L4.04559 66.2161L4.03738 67.4916L2.91156 68.1628L2.90283 69.5197L6.41306 71.0621C7.3949 70.9168 8.07687 71.1721 8.75128 71.4245C9.40482 71.6691 10.0512 71.9111 10.9566 71.7834C11.3776 71.9316 11.7539 72.098 12.1269 72.2628C13.0753 72.6821 14.0022 73.0918 15.5893 73.1702C16.3225 73.2282 16.9946 73.4687 17.6582 73.7062C18.3472 73.9528 19.0271 74.196 19.7568 74.2284C20.3559 74.2549 20.9159 74.4331 21.5014 74.6194C22.3161 74.8787 23.1804 75.1537 24.2685 75.0581C24.7694 75.4487 25.6336 75.574 26.4942 75.6987C27.2312 75.8055 27.9655 75.9119 28.4667 76.1843C28.9958 76.4718 29.7482 76.4841 30.5603 76.4974C31.4161 76.5114 32.3382 76.5264 33.1351 76.8657C33.6581 77.1172 34.4923 77.1759 35.4008 77.2399C36.3804 77.3088 37.4463 77.3839 38.3009 77.7133C38.7911 77.8889 39.498 77.86 40.2603 77.8289C41.2379 77.7891 42.3066 77.7455 43.1268 78.1243C44.0729 78.5614 45.1661 78.5206 46.31 78.4778C46.931 78.4547 47.5668 78.4309 48.2022 78.4827L49.8493 79.1039L55.7991 79.1423L57.4768 79.8317L66.3548 79.8889L67.4422 80.3437C67.5356 80.3443 67.621 80.3958 67.7063 80.4471C67.7916 80.4986 67.877 80.55 67.9704 80.5507L135.32 81.1976L136.408 81.6796C136.431 81.6882 136.454 81.6976 136.478 81.7072C136.505 81.7185 136.533 81.7303 136.56 81.7421C136.696 81.8004 136.831 81.8587 136.967 81.8596L145.783 81.9164L147.086 82.644L156.058 82.7019L157.487 83.3353L169.573 83.4133L170.854 82.8652L275.52 83.5403L277.073 84.1067L278.635 83.5468L281.718 83.5667L283.272 84.2009L295.28 84.2784C295.637 84.2864 295.928 84.2885 296.166 84.2841L313.422 84.3954L314.732 84.944L330.962 84.8394C331.136 84.8383 331.29 84.8977 331.44 84.9556C331.479 84.9703 331.516 84.9849 331.554 84.9984L332.648 85.4527L347.506 85.3569L349.13 85.9977L350.653 85.3773L356.572 85.3391L358.039 85.8588L360.065 85.3069L360.985 85.3128L362.432 85.8577C362.476 85.8638 362.555 85.8453 362.646 85.8241L362.647 85.8239C362.747 85.8004 362.862 85.7734 362.96 85.7728L363.955 85.332L364.102 85.3329C365.173 85.6894 365.728 85.8695 366.283 85.8701C366.822 85.8705 367.362 85.7017 368.374 85.3605L368.87 85.3637L370.126 85.8216L374.237 85.795L375.692 85.4077L378.062 85.423L378.972 85.7374L402.891 85.5831L426.809 85.7374L427.72 85.423L430.089 85.4077L431.544 85.795L435.656 85.8216L436.911 85.3637L437.408 85.3605C438.42 85.7017 438.959 85.8705 439.499 85.8701C440.054 85.8695 440.609 85.6894 441.68 85.3329L441.827 85.332L442.821 85.7728C442.919 85.7734 443.034 85.8004 443.135 85.8239L443.179 85.834C443.201 85.8392 443.222 85.8439 443.242 85.8477C443.287 85.8565 443.324 85.8613 443.35 85.8577L444.797 85.3128L445.717 85.3069L447.742 85.8588L449.21 85.3391L455.129 85.3773L456.651 85.9977L458.275 85.3569L473.134 85.4527L474.227 84.9984C474.265 84.9849 474.303 84.9703 474.341 84.9556C474.492 84.8977 474.646 84.8383 474.82 84.8394L491.049 84.944L492.36 84.3954L509.616 84.2841C509.854 84.2885 510.145 84.2864 510.502 84.2784L522.51 84.2009L524.063 83.5667L527.147 83.5468L528.708 84.1067L530.262 83.5403L634.928 82.8652L636.209 83.4133L648.295 83.3353L649.724 82.7019L658.695 82.644L659.999 81.9164L668.814 81.8596C668.95 81.8587 669.086 81.8004 669.222 81.7421C669.272 81.7202 669.323 81.6984 669.374 81.6796L670.461 81.1976L737.811 80.5507C737.905 80.55 737.99 80.4986 738.075 80.4471C738.161 80.3958 738.246 80.3443 738.339 80.3437L739.427 79.8889L748.305 79.8317L749.983 79.1423L755.932 79.1039L757.579 78.4827C758.215 78.4309 758.851 78.4547 759.472 78.4778C760.615 78.5206 761.709 78.5614 762.655 78.1243C763.475 77.7455 764.544 77.7891 765.521 77.8289C766.284 77.86 766.99 77.8889 767.481 77.7133C768.335 77.3839 769.401 77.3088 770.381 77.2399C771.193 77.1827 771.947 77.1296 772.471 76.9391C772.999 76.9329 773.524 76.9871 773.956 77.2563C774.654 77.6918 775.461 77.6491 776.306 77.6044C776.765 77.5802 777.235 77.5554 777.704 77.6061L778.92 78.2246L783.314 78.2529L784.553 78.9394L791.11 78.9817L791.913 79.4347C791.926 79.4348 791.939 79.4368 791.952 79.4403C791.974 79.4464 791.996 79.4571 792.018 79.4705C792.048 79.4894 792.078 79.5135 792.108 79.5377C792.171 79.589 792.234 79.6403 792.303 79.6407L842.05 80.1742L842.853 80.6543C842.87 80.6632 842.888 80.6729 842.906 80.6828L842.941 80.7029L842.965 80.7166C842.98 80.7253 842.995 80.7339 843.01 80.7424C843.044 80.7616 843.078 80.7798 843.112 80.7949C843.131 80.8033 843.15 80.8107 843.168 80.8167C843.201 80.8269 843.233 80.8331 843.266 80.8334L849.777 80.8754L850.739 81.6008L857.366 81.6435L858.42 82.2745L867.348 82.3321L868.295 81.7819L945.606 82.2805L946.753 82.8442L947.907 82.2818L950.185 82.2964L951.331 82.928L997.626 83.2267L998.818 83.9128C999.568 84.0772 999.997 83.8516 1000.49 83.594C1000.52 83.5762 1000.56 83.5582 1000.59 83.5402C1000.67 83.4988 1000.75 83.4571 1000.84 83.4167C1001 83.34 1001.18 83.2678 1001.38 83.2101L1003.54 83.8754L1057.35 84.2225L1058.81 83.5399L1060.85 84.2722L1063.89 84.2918L1065 83.7426C1065.87 84.1387 1066.3 84.3348 1066.73 84.3338C1067.15 84.3328 1067.57 84.1422 1068.4 83.7646L1069.18 84.231C1069.21 84.2311 1069.24 84.235 1069.27 84.241C1069.32 84.251 1069.37 84.267 1069.41 84.2816C1069.48 84.3027 1069.54 84.3212 1069.57 84.3149L1070.93 83.6181L1072.82 84.3087L1073.9 83.7865L1078.27 83.8147L1079.4 84.4326L1080.6 83.789L1091.57 83.8597L1092.38 83.4036C1092.39 83.3982 1092.4 83.3926 1092.41 83.387C1092.43 83.3784 1092.45 83.3695 1092.47 83.3607C1092.58 83.3025 1092.69 83.2427 1092.82 83.2436L1104.81 83.3209L1105.89 82.7037L1109.32 82.7258L1109.79 82.0504L1101.53 81.9971L1100.37 82.6138L1099.27 82.0504L1097.91 82.6929L1081.53 82.5873L1080.44 83.0823L1052.83 82.9042L1051.84 83.4813C1051.6 83.3937 1051.39 83.267 1051.19 83.1439C1050.79 82.8983 1050.41 82.6672 1049.86 82.7901L1047.92 83.619L1046.16 82.8612L1038.54 82.8121L1037.34 83.3607L1036.45 82.8257L1036.4 82.8238L1036.37 82.8226L1036.32 82.8212C1036.29 82.8205 1036.26 82.82 1036.23 82.8196C1036.2 82.8192 1036.17 82.819 1036.14 82.8191C1036.07 82.8193 1036.01 82.8204 1035.94 82.8224L993.42 82.5482C993.324 82.5476 993.218 82.4948 993.116 82.4442L993.114 82.4432L993.105 82.4389L993.071 82.4224L993.042 82.4083C993.022 82.399 993.002 82.3903 992.983 82.3826L992.204 81.9161L991.027 82.5056L988.864 82.4917L987.717 81.8601L980.101 81.811L978.832 82.4269L977.801 81.7554L950.189 81.5773L949.158 80.9736L947.888 81.576L945.726 81.5621L944.579 80.9305L943.471 81.5068L942.324 80.9431L941.354 81.4932L940.207 80.9294L939.053 81.519L935.855 81.4984L934.686 80.7853C933.982 80.6077 933.567 80.8237 933.149 81.0409C932.911 81.1643 932.673 81.2881 932.381 81.3403L931.257 80.8039L930.31 81.3541L929.163 80.7768L928.009 81.3799L924.88 81.3598L923.756 80.7419L922.578 81.3857L921.639 80.8232L871.685 80.501L870.738 81.0377L869.592 80.4604L868.46 81.0502L867.36 80.4324L865.335 80.4194L863.559 81.1135L861.722 80.4639L860.891 80.9471L853.988 80.9025L852.865 80.2575L846.859 80.2188L847.235 78.9999L849.674 79.0157L850.821 79.6608L864.028 79.746L865.228 79.1567L866.145 79.719L871.966 79.7565L872.96 79.1659L877.216 79.1934C877.318 79.194 877.432 79.2462 877.54 79.2957C877.578 79.3134 877.616 79.3308 877.652 79.3454L878.455 79.8255L879.609 79.2087L887.294 79.2584L888.441 79.8628L889.572 79.3137L892.609 79.3333L894.675 80.0659L896.176 79.3428L899.489 79.3641C899.593 79.4157 899.696 79.4784 899.805 79.5442C900.245 79.8115 900.769 80.1301 901.786 79.9625L902.918 79.3591L910.603 79.4087L911.451 79.8619C912.593 80.2212 913.058 79.8931 913.392 79.6572C913.522 79.5656 913.632 79.4879 913.755 79.4697L917.137 79.4915L918.582 80.1658L959.148 80.4274L960.019 80.9487L962.094 80.27L963.47 81.0252L968.946 81.0605L970.1 80.4845L971.224 81.0209L974.215 81.0402L976.36 80.3349L977.805 81.0634L1015.17 81.3044C1015.31 81.3053 1015.45 81.4147 1015.59 81.4835L1016.36 81.9363L1017.52 81.3467L1018.62 81.9102L1019.89 81.3077C1020.17 81.3342 1020.46 81.3296 1020.74 81.3251C1021.39 81.3148 1022.01 81.3051 1022.49 81.6772C1022.95 82.0381 1023.56 82.0214 1024.18 82.0039C1024.48 81.9955 1024.79 81.9871 1025.08 82.0197C1025.28 81.9495 1025.45 81.8542 1025.63 81.7579C1026.09 81.5066 1026.56 81.248 1027.39 81.4103L1028.49 82.0145L1029.64 81.4113L1030.56 81.9736L1039.77 82.033C1040.02 81.8718 1040.27 81.7241 1040.55 81.5767L1042.64 82.2144L1044.03 81.5176L1045.17 82.1357L1047.33 82.1497L1048.74 81.3853L1050.81 82.0906L1051.8 81.5271L1078.31 81.6981L1079.33 81.094L1080.52 81.6988L1082.68 81.7127C1082.89 81.6307 1083.07 81.518 1083.25 81.4067C1083.66 81.1553 1084.06 80.9114 1084.66 81.0471L1086.57 81.887L1088.55 81.0721L1094.93 81.1132L1095.8 80.6168L1097.87 81.295L1099.26 80.5712L1100.91 81.3553L1102.59 80.6063L1113.73 80.6782C1113.81 80.6787 1113.89 80.7352 1114 80.8167C1114.07 80.8683 1114.15 80.9299 1114.26 80.9937C1113.8 81.0995 1113.33 81.1872 1112.85 81.256C1111.95 81.2502 1111.06 81.2444 1110.16 81.3607C1110.09 81.4098 1110.03 81.5252 1109.96 81.6417C1109.91 81.7487 1109.85 81.8566 1109.79 81.9147ZM454.9 84.6295C454.854 84.6183 454.806 84.6075 454.757 84.5972L454.624 84.6277L454.9 84.6295ZM407.214 84.3219L407.28 84.2928C407.508 84.2849 407.737 84.2834 407.965 84.2884L465.531 83.9171C465.661 83.9163 465.805 83.8632 465.944 83.8121C466.005 83.7896 466.065 83.7675 466.122 83.7505L467.178 83.2823L468.771 83.8691L471.699 83.8502L473.252 83.216L483.563 83.1495L485.28 83.7626L486.678 83.0887L498.258 83.014C498.268 83.0073 498.279 83.0013 498.289 82.996C499.505 82.8818 500.72 82.8896 501.935 82.8974C502.582 82.8298 503.217 82.7432 503.836 82.6383C503.692 82.5743 503.58 82.5125 503.487 82.4607C503.394 82.4094 503.319 82.368 503.248 82.3441L498.667 82.3736L498.443 82.2914L495.766 82.2742L495.583 82.3392L491.533 82.3653L491.029 82.2436L488.045 82.2244L485.766 82.9695L484.185 82.4127L482.906 82.421L481.655 82.9023L479.765 82.4412L478.3 82.4507L477.669 82.7137L469.04 82.6581L466.356 83.4685L463.775 82.6241C462.956 82.4872 462.418 82.7302 461.864 82.9807C461.618 83.0916 461.37 83.2039 461.092 83.2853L458.164 83.2664L456.548 82.6589L455.173 83.2607L434.997 83.1306L434.469 83.3575L433.846 83.1232L432.01 83.1113L431.416 83.3365L430.748 83.1031L426.251 83.0742C426.228 83.0865 426.204 83.0992 426.181 83.1125C425.552 83.4745 424.734 83.459 423.886 83.4431C423.48 83.4354 423.067 83.4276 422.664 83.4609C422.404 83.3912 422.169 83.2963 421.931 83.2004C421.798 83.1471 421.665 83.0935 421.527 83.0437L419.288 83.0292L417.945 83.5905L415.985 83.0932L415.249 83.4272L413.753 83.4369L413.241 83.6416L410.313 83.6227L409.91 83.4617L407.475 83.4774L406.885 83.6956L405.967 83.4871L402.995 83.5063C402.994 83.5067 402.993 83.5072 402.992 83.5076L402.891 83.507L402.789 83.5076C402.788 83.5072 402.787 83.5067 402.786 83.5063L399.815 83.4871L398.896 83.6956L398.307 83.4774L395.872 83.4617L395.469 83.6227L392.541 83.6416L392.029 83.4369L390.532 83.4272L389.797 83.0932L387.837 83.5905L386.493 83.0292L384.255 83.0437C384.116 83.0935 383.983 83.1471 383.851 83.2004C383.613 83.2963 383.377 83.3912 383.118 83.4609C382.715 83.4276 382.302 83.4354 381.896 83.4431C381.047 83.459 380.23 83.4745 379.6 83.1125C379.577 83.0992 379.554 83.0865 379.53 83.0742L375.034 83.1031L374.365 83.3365L373.772 83.1113L371.936 83.1232L371.312 83.3575L370.785 83.1306L350.608 83.2607L349.234 82.6589L347.618 83.2664L344.69 83.2853C344.412 83.2039 344.163 83.0916 343.918 82.9807C343.364 82.7302 342.826 82.4872 342.006 82.6241L339.426 83.4685L336.742 82.6581L328.113 82.7137L327.482 82.4507L326.017 82.4412L324.127 82.9023L322.875 82.421L321.597 82.4127L320.015 82.9695L317.736 82.2244L314.753 82.2436L314.248 82.3653L310.199 82.3392L310.015 82.2742L307.339 82.2914L307.115 82.3736L302.534 82.3441C302.463 82.368 302.388 82.4094 302.295 82.4607C302.201 82.5125 302.09 82.5743 301.945 82.6383C302.565 82.7432 303.2 82.8298 303.847 82.8974C305.062 82.8896 306.277 82.8818 307.492 82.996C307.503 83.0013 307.513 83.0073 307.523 83.014L319.104 83.0887L320.501 83.7626L322.218 83.1495L332.529 83.216L334.083 83.8502L337.011 83.8691L338.603 83.2823L339.66 83.7505C339.717 83.7675 339.777 83.7896 339.838 83.8121C339.977 83.8632 340.121 83.9163 340.25 83.9171L397.816 84.2884C398.045 84.2834 398.274 84.2849 398.502 84.2928L398.567 84.3219L401.276 84.3044L401.337 84.284L402.891 84.294L404.445 84.284L404.506 84.3044L407.214 84.3219ZM351.157 84.6277L351.025 84.5972C350.976 84.6075 350.928 84.6183 350.881 84.6295L351.157 84.6277ZM297.406 82.9487C297.087 82.8879 296.762 82.8324 296.432 82.7824C295.467 82.4724 294.588 82.1152 293.812 81.7178L238.93 81.3639L236.972 80.6863L232.393 80.6568C232.227 80.6747 232.078 80.7521 231.903 80.8434C231.45 81.0786 230.821 81.4056 229.275 81.0438L228.125 80.5886L217.721 80.5214L216.191 81.1222C214.815 81.2875 214.104 80.9678 213.507 80.6995C213.361 80.6334 213.221 80.5705 213.08 80.5187L208.594 80.4897L206.564 81.2094L203.766 80.4722L199.654 80.4456L198.124 80.9921L196.57 80.385L186.166 80.3179L184.604 80.9321L183.517 80.4501L183.488 80.4413L183.459 80.4319C183.428 80.4219 183.396 80.4111 183.365 80.4003C183.218 80.3505 183.064 80.2979 182.926 80.297L177.163 80.2598L175.82 80.8483L167.939 80.7974L166.696 80.233L165.073 80.8196L147.193 80.7043L145.639 80.0565L142.337 80.0352L141.831 81.2532L149.961 81.3057L151.483 81.9532L160.829 82.0135L161.953 81.5323L164.441 82.1861L166.844 81.496L169.585 81.5137L171.076 82.1339L172.607 81.5467L174.161 82.1266L175.441 81.5921L243.069 82.0283L244.343 82.5929L245.935 81.9518L247.458 82.5723L251.695 82.5996L253.256 81.999L254.81 82.579L256.09 82.0309L257.613 82.5699C258.009 82.5184 258.331 82.3951 258.652 82.2723C259.218 82.056 259.78 81.8409 260.732 82.0201L262.316 82.736L266.646 82.7639L268.207 82.1769L269.761 82.7433L271.073 82.1954L272.627 82.7618L274.126 82.1879L275.68 82.8221L278.608 82.8411L280.325 82.2415L281.723 82.8476L297.406 82.9487ZM511.969 81.7178C511.194 82.1152 510.315 82.4724 509.35 82.7824C509.02 82.8324 508.695 82.8879 508.376 82.9487L524.059 82.8476L525.456 82.2415L527.174 82.8411L530.102 82.8221L531.655 82.1879L533.154 82.7618L534.708 82.1954L536.02 82.7433L537.574 82.1769L539.135 82.7639L543.465 82.736L545.049 82.0201C546.002 81.8409 546.564 82.056 547.129 82.2723C547.451 82.3951 547.773 82.5184 548.168 82.5699L549.691 82.0309L550.972 82.579L552.526 81.999L554.087 82.5996L558.324 82.5723L559.846 81.9518L561.439 82.5929L562.713 82.0283L630.34 81.5921L631.621 82.1266L633.175 81.5467L634.705 82.1339L636.196 81.5137L638.938 81.496L641.341 82.1861L643.828 81.5323L644.953 82.0135L654.298 81.9532L655.821 81.3057L663.951 81.2532L663.444 80.0352L660.143 80.0565L658.589 80.7043L640.709 80.8196L639.085 80.233L637.843 80.7974L629.962 80.8483L628.618 80.2598L622.855 80.297C622.718 80.2979 622.564 80.3503 622.418 80.4001C622.365 80.4179 622.314 80.4354 622.265 80.4501L621.177 80.9321L619.616 80.3179L609.212 80.385L607.658 80.9921L606.128 80.4456L602.016 80.4722L599.217 81.2094L597.188 80.4897L592.702 80.5187C592.561 80.5705 592.421 80.6334 592.274 80.6995C591.678 80.9678 590.967 81.2875 589.591 81.1222L588.06 80.5214L577.656 80.5886L576.506 81.0438C574.96 81.4056 574.331 81.0786 573.879 80.8434C573.703 80.7521 573.554 80.6747 573.389 80.6568L568.81 80.6863L566.851 81.3639L511.969 81.7178ZM1132.32 13.5068C1131.67 14.1675 1131.67 14.1675 1130.2 13.8731C1130.48 13.4119 1131.01 13.4565 1131.55 13.5013C1131.82 13.5235 1132.08 13.5457 1132.32 13.5068ZM1130.33 29.0718C1130.3 29.1425 1130.27 29.2161 1130.25 29.287C1130.14 29.6238 1130.04 29.9033 1129.25 29.5397C1129.59 29.3687 1129.95 29.2123 1130.33 29.0718ZM777.053 76.2993C776.61 76.4548 776.057 76.4814 775.463 76.4932L775.663 76.5482C775.999 77.0171 776.678 76.9876 777.381 76.9571H777.388C777.541 76.9504 777.695 76.9436 777.846 76.9421C778.08 76.9399 778.319 76.9571 778.561 76.9744C779.202 77.0202 779.855 77.0669 780.425 76.7552C780.046 76.6096 779.793 76.512 779.531 76.4459C779.035 76.3209 778.51 76.3093 777.053 76.2993ZM767.661 76.4438C767.47 76.3911 767.305 76.3229 767.174 76.2432C767.492 76.3143 767.862 76.3487 768.25 76.3848C768.584 76.4158 768.931 76.4481 769.269 76.506C769.044 76.5455 768.801 76.5648 768.558 76.5621C768.239 76.5587 767.929 76.5178 767.661 76.4438ZM787.736 77.7251C782.789 77.6932 782.789 77.6932 781.871 77.2395C781.94 77.24 782.01 77.1929 782.079 77.1459C782.148 77.0988 782.218 77.0518 782.287 77.0522L792.02 77.115L793.695 77.8721L796 77.1135L798.182 77.8739C798.573 77.7996 798.873 77.6552 799.161 77.5161C799.637 77.2869 800.082 77.0725 800.855 77.2127L802.162 77.886L810.929 77.9426L811.938 78.5461C812.827 78.5248 842.55 78.9291 843.439 78.9619C843.608 78.963 843.793 78.9469 843.983 78.9303C844.618 78.8749 845.316 78.814 845.737 79.3702C845.675 79.4014 845.615 79.4427 845.56 79.4817C845.508 79.5175 845.46 79.5511 845.415 79.5731C845.382 79.5888 845.351 79.5984 845.322 79.5983C844.494 79.5929 836.485 79.4882 828.466 79.3834L828.244 79.3805C820.276 79.2764 812.364 79.1731 811.542 79.1678C811.213 79.1242 810.896 79.0536 810.6 78.9582L809.798 78.5052L789.457 78.374C789.11 78.3387 788.776 78.2677 788.469 78.1641L787.736 77.7251ZM1088.69 13.4426C1088.73 13.4742 1088.8 13.5061 1088.86 13.5363C1088.96 13.5845 1089.05 13.6286 1089.03 13.6619C1088.95 13.8145 1088.83 13.9598 1088.69 14.0939C1088.57 14.0931 1088.32 13.9286 1088.34 13.8881C1088.44 13.7336 1088.55 13.5845 1088.69 13.4426ZM743.998 78.6246C750.695 78.5814 750.695 78.5814 751.939 78.1255C751.845 78.1262 751.751 78.0793 751.658 78.0324C751.564 77.9855 751.47 77.9387 751.377 77.9392L738.2 78.0242L735.931 78.7852L732.811 78.0319L729.856 78.7972C729.327 78.7238 728.921 78.58 728.53 78.4417C727.887 78.2135 727.285 78.0002 726.238 78.1421L724.467 78.8184L712.599 78.895L711.232 79.5009C710.028 79.4816 669.788 79.9537 668.584 79.9885C668.469 79.9893 668.349 79.9857 668.226 79.9799C668.103 79.9741 667.976 79.9662 667.848 79.9581C666.988 79.9042 666.044 79.8448 665.472 80.4021C665.556 80.4331 665.637 80.4743 665.712 80.5131C665.831 80.5745 665.939 80.6298 666.034 80.6292C667.155 80.6219 678.027 80.4987 688.9 80.3754C699.772 80.2521 710.644 80.1288 711.765 80.1216C712.211 80.0773 712.64 80.006 713.041 79.9099L714.129 79.455L741.666 79.2774C742.136 79.2414 742.589 79.1696 743.004 79.0652L743.998 78.6246ZM758.91 77.1714C755.453 77.1937 755.453 77.1938 753.898 77.638C754.669 77.9484 755.553 77.9002 756.421 77.8529C756.748 77.8351 757.073 77.8174 757.388 77.819C757.597 77.8201 757.809 77.8265 758.019 77.8329C758.97 77.8618 759.889 77.8897 760.345 77.42L763.705 76.7335L760.588 76.4822L758.91 77.1714ZM764.701 76.632L764.173 76.8661C764.48 76.954 764.817 77.0204 765.171 77.0632C765.171 77.0632 765.544 76.9387 765.544 76.8573L764.701 76.632ZM53.8431 78.1255C55.0862 78.5814 55.0862 78.5814 61.7836 78.6246L62.7776 79.0652C63.1925 79.1696 63.6455 79.2414 64.1158 79.2774L91.653 79.455L92.7404 79.9099C93.1414 80.006 93.571 80.0773 94.0162 80.1216C95.1376 80.1288 106.01 80.2521 116.882 80.3754L117.24 80.3795C127.991 80.5013 138.639 80.622 139.748 80.6292C139.843 80.6298 139.951 80.5745 140.07 80.5131C140.145 80.4743 140.225 80.4331 140.31 80.4021C139.738 79.8448 138.793 79.9042 137.934 79.9581C137.677 79.9743 137.427 79.99 137.197 79.9885C135.994 79.9537 95.7537 79.4816 94.5498 79.5009L93.183 78.895L81.3146 78.8184L79.5433 78.1421C78.4969 78.0002 77.8951 78.2135 77.2512 78.4417C76.8608 78.58 76.455 78.7238 75.9255 78.7972L72.971 78.0319L69.8509 78.7852L67.5817 78.0242L54.405 77.9392C54.3116 77.9387 54.2178 77.9855 54.1241 78.0324C54.0303 78.0793 53.9365 78.1262 53.8431 78.1255ZM51.8836 77.638C50.3289 77.1938 50.3289 77.1937 46.8712 77.1714L45.1934 76.4822L42.0766 76.7335L45.4366 77.42C45.8928 77.8897 46.812 77.8618 47.763 77.8329C47.9731 77.8265 48.1848 77.8201 48.3934 77.819C48.709 77.8174 49.0337 77.8351 49.3608 77.8529C50.2285 77.9002 51.1124 77.9484 51.8836 77.638ZM36.2943 75.842C36.0206 75.9083 35.7924 76.0048 35.6321 76.1219L35.6317 76.1762C35.7948 76.2965 36.0287 76.3958 36.3088 76.4637C36.589 76.5316 36.9051 76.5656 37.2238 76.5621C37.5426 76.5587 37.8523 76.5178 38.1203 76.4438C38.3884 76.3699 38.6049 76.2657 38.7472 76.142C38.5884 76.0228 38.3614 75.9234 38.0887 75.8535C37.8159 75.7837 37.5069 75.7458 37.1921 75.7438C36.8774 75.7418 36.5679 75.7756 36.2943 75.842ZM41.6085 76.8661L41.0804 76.632L40.2378 76.8573C40.2373 76.9387 40.6103 77.0632 40.6103 77.0632C40.965 77.0204 41.3017 76.954 41.6085 76.8661Z" fill="#191919"/>
<path d="M1134.58 33.0616C1134.02 32.6492 1133.44 32.6296 1132.81 32.6084C1132.38 32.5937 1131.92 32.5782 1131.44 32.4306L1130.73 32.0461L1128.6 32.9008C1128.92 32.977 1129.15 33.0465 1129.34 33.1022C1129.64 33.1892 1129.82 33.2426 1130 33.2355C1131.54 33.3398 1133.09 33.2809 1134.58 33.0616Z" fill="#191919"/>
<path d="M1138.85 27.6206L1138.85 28.4076C1136.7 29.615 1136.52 29.6545 1135.53 29.0511C1136.21 28.8737 1136.42 28.5112 1136.65 28.111C1136.78 27.8837 1136.92 27.6442 1137.15 27.4196L1138.85 27.6206Z" fill="#191919"/>
<path d="M1123.04 82.3937C1121.33 81.9964 1119.45 81.9226 1117.68 82.1827C1117.7 82.2795 1117.71 82.3596 1117.75 82.4238C1117.95 82.7292 1118.7 82.6796 1123.03 82.3939H1123.04L1123.04 82.3937Z" fill="#191919"/>
<path d="M1135.1 13.7419L1134.71 13.5087L1135.1 13.0906C1135.22 13.1727 1135.45 13.3099 1135.45 13.3099C1135.37 13.4625 1135.25 13.6078 1135.1 13.7419Z" fill="#191919"/>
<path d="M1120.49 78.0621L1121.43 78.7331C1122.12 78.2662 1121.65 78.2095 1120.95 78.1238C1120.8 78.1058 1120.65 78.0866 1120.49 78.0621Z" fill="#191919"/>
<path fill-rule="evenodd" clip-rule="evenodd" d="M2135.79 4.08337L2141.7 4.04523C2142.5 4.39642 2143.39 4.67432 2144.33 4.86957C2145.2 5.25079 2145.98 5.70251 2146.64 6.21161C2146.27 6.61359 2145.99 7.03894 2145.79 7.47906C2145.8 7.77753 2146.19 8.03284 2146.86 7.96069L2147.32 8.62262L2153.4 8.58344C2152.33 9.19257 2151.07 9.66315 2149.68 9.96436C2149.2 10.5238 2148.72 11.1104 2148.24 11.697C2149.16 12.1799 2149.68 11.9085 2150.28 11.6006C2150.59 11.4384 2150.92 11.2661 2151.34 11.1885L2153.07 11.7472C2153.31 11.7456 2153.54 11.6253 2153.78 11.496C2154.22 11.2571 2154.73 10.9875 2155.51 11.3787C2155.67 11.6083 2155.67 11.6083 2153.33 12.9939L2151.38 13.4272C2151.6 13.5842 2151.87 13.7197 2152.16 13.8292C2152.68 13.9304 2153.21 14.013 2153.75 14.0768L2151.99 15.0787C2151.38 15.0529 2150.77 15.1044 2150.19 15.2299C2149.62 15.3553 2149.09 15.5517 2148.66 15.8058L2144.24 15.8344L2143.05 16.5069L2139.78 16.528L2138.56 17.2007L2132.47 17.2401C2131.96 17.3892 2131.55 17.5021 2131.19 17.6012L2131.19 17.6016C2130.99 17.6563 2130.8 17.7069 2130.63 17.7571C2130.47 17.8017 2130.32 17.846 2130.17 17.8926C2129.79 18.0123 2129.54 18.1104 2129.21 18.2458L2129.21 18.2465L2129.21 18.2469C2129 18.3308 2128.76 18.429 2128.42 18.5552L2124.42 18.5811C2123.64 18.8439 2123.64 19.1017 2124.15 19.1392C2124.76 19.1827 2125.3 19.3644 2125.84 19.5455C2126.68 19.8298 2127.52 20.1124 2128.62 19.8567C2129.17 20.1276 2129.82 20.324 2130.47 20.5216C2131.49 20.8318 2132.52 21.145 2133.23 21.7538L2134.74 20.9977L2136.8 21.7172L2139.67 21.6987L2140.99 22.3551L2147.27 22.3146L2151.21 23.6461L2156.48 23.6121C2156.52 23.6119 2156.55 23.6194 2156.58 23.6329C2156.63 23.6561 2156.68 23.697 2156.75 23.7452C2156.78 23.7708 2156.82 23.7984 2156.86 23.8266C2156.89 23.8489 2156.93 23.8716 2156.97 23.8939L2152.58 25.2792L2152.59 26.0662L2155.83 26.398L2154.9 27.3404L2157.04 27.8015L2156.68 28.9572L2155.55 28.3132L2152.54 29.201C2153.46 29.5573 2154.44 29.5186 2155.42 29.48C2156.23 29.4479 2157.04 29.4159 2157.81 29.6148L2158.78 30.1921L2163.38 30.1624L2163.53 31.2334L2161.76 31.5027L2161.17 32.5106C2160.37 32.8195 2159.47 32.7798 2158.58 32.7401C2157.67 32.6998 2156.76 32.6595 2155.95 32.9785C2156.94 33.3792 2156.94 33.3792 2158.78 33.4352L2159.52 34.6245L2167.58 34.7218C2167.59 34.7217 2167.61 34.7241 2167.63 34.7285C2167.66 34.7352 2167.68 34.7468 2167.71 34.7617C2167.75 34.7829 2167.79 34.811 2167.83 34.8417L2167.83 34.8425C2167.89 34.8859 2167.96 34.9344 2168.04 34.9767C2167.11 35.3419 2166.1 35.3245 2165.09 35.307C2164.31 35.2935 2163.53 35.28 2162.77 35.4448C2162.45 35.7614 2162.78 35.8915 2163.11 36.0216C2163.35 36.116 2163.59 36.2104 2163.58 36.3759L2163.47 37.1365L2160.53 37.4133C2160.53 37.4351 2160.53 37.4569 2160.52 37.4782C2160.52 37.4923 2160.51 37.5062 2160.51 37.5197L2160.51 37.5281L2160.5 37.5428L2160.49 37.56C2160.47 37.6342 2160.45 37.6904 2160.53 37.6982C2161.28 38.0087 2162.09 37.9683 2162.9 37.9277C2163.35 37.9054 2163.8 37.883 2164.24 37.9186C2165.08 38.3528 2164.88 38.8824 2164.67 39.4085C2164.64 39.4995 2164.6 39.5903 2164.57 39.6805C2163.77 39.9465 2162.91 39.9188 2162.05 39.8909C2161.65 39.8782 2161.26 39.8655 2160.87 39.8808C2160.04 39.9132 2159.17 39.9098 2158.31 39.9064H2158.3C2157.87 39.9047 2157.43 39.903 2157 39.9057L2153.14 39.9307C2152.8 39.9329 2152.46 39.915 2152.12 39.8973C2151.19 39.8483 2150.29 39.8008 2149.43 40.1852C2149.79 40.681 2150.41 40.6339 2151.03 40.5869C2151.27 40.5685 2151.51 40.5501 2151.74 40.5639C2152.45 40.5857 2153.17 40.5811 2153.88 40.55L2157.15 41.5195C2156.26 41.8785 2155.28 41.8549 2154.31 41.8312C2153.49 41.8113 2152.66 41.7913 2151.88 42.0013C2151.49 42.4091 2151.94 42.4459 2152.35 42.4799L2152.35 42.48C2152.42 42.4858 2152.49 42.4916 2152.56 42.499C2152.63 42.5083 2152.73 42.5091 2152.84 42.5065C2152.91 42.5049 2152.98 42.5023 2153.05 42.4996C2153.55 42.4805 2154.25 42.4543 2154.86 42.742L2155.08 44.8167L2158.28 45.7731C2158.36 45.7726 2158.47 45.7617 2158.6 45.7488C2159.05 45.7021 2159.78 45.6285 2160.45 45.9219L2157.21 47.2997L2157.22 48.1003C2158.08 48.4387 2159.03 48.4056 2160.01 48.3716C2160.85 48.3425 2161.71 48.3129 2162.53 48.5138C2162.54 48.9234 2162.16 48.9459 2161.77 48.9688C2161.6 48.9792 2161.42 48.9898 2161.27 49.0376C2160.67 49.2869 2160.11 49.5724 2159.6 49.8897L2159.31 51.4114C2158.53 51.7085 2157.7 51.6826 2156.89 51.6572C2156.45 51.6437 2156.02 51.6302 2155.61 51.666L2154.44 52.2977L2153.49 51.7474L2147.6 51.7854C2147.38 52.2185 2147.82 52.4002 2148.24 52.5795C2148.49 52.6819 2148.73 52.7835 2148.85 52.9308C2150.01 52.9233 2150.67 53.3304 2151.34 53.7458C2151.64 53.9291 2151.94 54.114 2152.29 54.2656L2154.59 54.2507C2155.29 54.8249 2156.32 55.1782 2157.35 55.5349C2158.62 55.9728 2159.91 56.4157 2160.64 57.2784L2159.16 57.5186L2157.89 56.8347C2157.37 56.8236 2156.84 56.8544 2156.33 56.9262C2156.74 57.8557 2158.02 58.2627 2159.32 58.6769C2160 58.8959 2160.7 59.117 2161.27 59.4183C2162.36 59.3265 2162.93 59.7022 2163.55 60.1017C2163.82 60.2777 2164.1 60.4583 2164.43 60.6056L2166.89 60.7526C2167.43 61.0309 2167.38 61.3759 2167.33 61.7206C2167.3 61.9072 2167.27 62.0936 2167.34 62.2695C2166.94 62.6519 2166.37 62.6386 2165.8 62.6254C2165.49 62.6183 2165.18 62.6112 2164.9 62.6651C2164.21 62.866 2163.56 63.1115 2162.95 63.3969L2161.22 62.7567L2157.75 62.7791L2157.52 63.0791C2158.42 63.3579 2159.34 63.6231 2160.58 63.9808L2160.59 63.9821L2162.36 63.9706L2163.56 64.6278L2165.68 64.6141L2166.95 65.2709L2169.87 65.252L2171.58 66.2451C2170.43 66.5899 2169.23 66.5622 2168.04 66.5347C2167.08 66.5124 2166.12 66.4902 2165.21 66.6661L2164.91 66.8987C2165.62 67.3284 2166.36 67.7578 2167.22 68.2408L2165.1 68.7565C2165.11 69.4008 2165.91 69.5549 2166.72 69.7093C2167.39 69.8378 2168.06 69.9664 2168.27 70.3781C2168.22 70.4569 2168.19 70.5372 2168.16 70.6138C2168.1 70.762 2168.05 70.8959 2167.9 70.9774C2167.08 71.6171 2166.03 72.1428 2164.83 72.517L2163.15 71.8223L2160.04 71.8423C2159.8 71.8966 2159.62 72.0201 2159.45 72.1457C2159.17 72.3432 2158.88 72.5457 2158.32 72.4912L2157.91 73.0773L2151 73.1219L2150.06 72.5717L2144.6 72.6068L2143.33 71.9501L2136.8 71.9922L2135.58 71.3217L2130.1 71.357L2129.11 70.7799C2128.15 70.6975 2127.13 70.7119 2126.07 70.7267H2126.07C2125.19 70.7392 2124.28 70.752 2123.38 70.7083L2122.41 70.1447L2117.99 70.1731L2116.97 69.3384L2106.98 69.4028L2105.86 69.9528C2105.41 70.0512 2104.91 70.0359 2104.38 70.0201C2103.57 69.9955 2102.72 69.9698 2102 70.3713C2102.05 70.402 2102.1 70.4345 2102.14 70.4659L2102.19 70.4966C2102.3 70.5754 2102.39 70.6401 2102.48 70.6395L2114.38 70.5628C2115.47 70.8155 2115.88 71.3329 2116.27 71.838C2116.55 72.2034 2116.83 72.5624 2117.36 72.8096C2117.1 73.4925 2117.63 74.0547 2118.13 74.5942C2118.36 74.8394 2118.59 75.0798 2118.74 75.3247C2118.64 75.3905 2118.57 75.4514 2118.5 75.503C2118.38 75.6018 2118.3 75.6667 2118.21 75.6674L2103.55 75.9383L2102.64 76.5005L2091.43 76.5728L2089.69 77.941L2084.93 77.9717C2084.85 77.9722 2084.78 78.0149 2084.71 78.0671L2084.68 78.0861L2084.64 78.1147C2084.6 78.147 2084.56 78.1794 2084.51 78.2051C2084.75 78.7553 2085.39 78.6882 2086.04 78.6207C2086.64 78.557 2087.25 78.493 2087.53 78.9455L2086.48 79.6851C2088.07 79.9672 2089.67 79.9261 2091.27 79.8846H2091.28C2092.58 79.8511 2093.88 79.8173 2095.2 79.9545L2095.48 80.8347C2094.58 81.1985 2093.6 81.1773 2092.62 81.1561C2091.79 81.1379 2090.94 81.1196 2090.15 81.344C2090.05 81.8313 2090.52 81.8377 2091 81.8444C2091.38 81.8495 2091.77 81.8549 2091.9 82.0926C2092.11 82.4619 2091.62 82.4688 2091.09 82.4761C2090.84 82.4795 2090.58 82.483 2090.39 82.523L2088.94 83.4279C2089.13 83.7117 2089.45 83.7639 2091.61 83.8449L2093.25 84.757L2090.38 85.644L2089.37 85.1213L2088.22 85.7394L2087.44 85.2831C2087.37 85.2836 2087.29 85.2433 2087.22 85.2031C2087.2 85.1936 2087.18 85.1838 2087.16 85.1749C2087.14 85.1613 2087.11 85.149 2087.08 85.1398C2087.08 85.1369 2087.07 85.1343 2087.06 85.132C2087.05 85.1298 2087.04 85.1279 2087.04 85.1264C2087.02 85.1241 2087.01 85.123 2087 85.123L2082.74 85.1505L2081.73 85.7541L2080.6 85.2322L2074.9 85.269L2073.96 85.8314L2072.78 85.2148L2068.41 85.243L2067.05 85.998L2065.28 85.521L2065.28 85.426C2065.21 85.4265 2065.13 85.3862 2065.06 85.346C2065.04 85.3363 2065.02 85.3266 2065.01 85.3174C2064.99 85.3102 2064.98 85.3033 2064.96 85.2971C2064.95 85.2919 2064.94 85.2872 2064.93 85.2831C2064.91 85.277 2064.89 85.2722 2064.88 85.2692C2064.86 85.267 2064.85 85.2659 2064.84 85.266L2044.13 85.3995L2043.12 84.8091L2041.99 85.332C2040.97 85.639 2040.09 85.373 2039.2 85.1021C2038.35 84.8468 2037.49 84.587 2036.49 84.7975C2036.26 84.868 2036.07 84.9848 2035.87 85.1039C2035.45 85.3594 2035.01 85.6251 2034.19 85.4637L2032.97 84.8066L2019.81 84.8915L2018.65 84.3019L2017.48 84.893C2016.74 85.0073 2016.2 84.7495 2015.67 84.4948C2015.01 84.1812 2014.36 83.8724 2013.36 84.2682L2012.08 84.9007L2010.97 84.338L2009.82 84.9424L2009.04 84.4997C2008.97 84.5001 2008.89 84.4565 2008.82 84.4129C2008.8 84.4048 2008.79 84.3967 2008.77 84.3889C2008.75 84.3766 2008.73 84.3651 2008.71 84.3552C2008.67 84.3376 2008.63 84.3259 2008.6 84.3261L1995.48 84.4107L1994.6 83.9007C1993.49 83.5488 1992.56 83.8203 1991.64 84.0896C1991.38 84.1663 1991.12 84.2429 1990.86 84.3048C1990.73 84.2395 1990.61 84.1741 1990.5 84.1052C1990.41 84.0547 1990.32 84.0024 1990.23 83.9467C1990.16 83.9069 1990.09 83.8654 1990.02 83.8217L1988.88 84.4126L1987.7 83.7417L1972.31 83.841L1971.15 83.2513L1969.73 83.9797L1967.42 83.2347L1912.64 83.5881L1911.6 82.9841L1910.45 83.5615L1909.3 82.9583L1796.48 83.8984L1794.98 82.8496L1794.87 82.3467L1793.53 83.0394L1640.79 81.8419L1639.23 82.4424L1637.68 81.8624L1636.27 82.464L1562.1 81.9856L1558.98 82.7254L1557.06 81.9938L1555.5 82.5807L1534.66 82.4464L1533.06 83.1146L1531.51 82.5211C1531.1 82.7084 1530.76 82.8554 1530.39 83.0023C1530.03 82.9398 1529.67 82.8626 1529.32 82.7853C1528.07 82.5139 1526.82 82.2402 1525.31 82.5896L1524.12 83.0976L1506.37 82.983C1506.27 82.9825 1506.17 83.0259 1506.07 83.0693C1505.97 83.1128 1505.87 83.1562 1505.77 83.1556L1504.71 83.5966L1503.16 82.9895L1501.66 83.5497L1499.92 82.9143C1498.56 82.5162 1497.69 82.8235 1496.8 83.1356C1496.08 83.389 1495.34 83.6456 1494.34 83.5297L1492.75 82.936L1491.19 83.5229L1473.37 83.408L1471.72 84.0623C1470.61 84.2217 1470.02 83.9551 1469.44 83.6986C1469.18 83.5791 1468.92 83.4619 1468.61 83.3909C1467.25 83.178 1466.09 83.4359 1464.94 83.6892C1464.11 83.8739 1463.29 84.0562 1462.41 84.0521L1462.14 84.1144L1461.91 84.0295C1461.67 84.008 1461.42 83.9703 1461.16 83.9127L1460.52 83.6911L1459.21 84.2147L1458.46 83.8929L1458.26 83.9755L1451.13 83.9294L1450.42 84.2442L1449.46 83.9187L1440.97 83.8639L1439.89 84.3392L1438.62 83.8488L1432.28 83.8078L1430.55 84.5216L1428.89 84.1949L1427.23 84.5216L1425.51 83.8078L1419.16 83.8488L1417.89 84.3392L1416.82 83.8639L1408.32 83.9187L1407.36 84.2442L1406.65 83.9294L1399.52 83.9755L1399.33 83.8929L1398.57 84.2147L1397.26 83.6912L1396.62 83.9127C1396.37 83.9703 1396.12 84.008 1395.87 84.0295L1395.65 84.1144L1395.38 84.0521C1394.5 84.0562 1393.67 83.8739 1392.84 83.6892C1391.7 83.4359 1390.53 83.178 1389.17 83.3909C1388.87 83.4619 1388.6 83.5791 1388.34 83.6986C1387.76 83.9551 1387.17 84.2217 1386.06 84.0623L1384.41 83.408L1366.59 83.5229L1365.03 82.936L1363.44 83.5297C1362.44 83.6456 1361.71 83.389 1360.98 83.1356C1360.09 82.8235 1359.22 82.5162 1357.86 82.9143L1356.12 83.5497L1354.62 82.9895L1353.07 83.5966L1352.01 83.1556C1351.91 83.1562 1351.81 83.1128 1351.71 83.0693C1351.61 83.0259 1351.51 82.9825 1351.41 82.983L1333.66 83.0976L1332.47 82.5896C1330.97 82.2402 1329.71 82.5139 1328.46 82.7853C1328.11 82.8626 1327.76 82.9398 1327.4 83.0023C1327.02 82.8554 1326.68 82.7084 1326.27 82.5211L1324.72 83.1146L1323.13 82.4464L1302.29 82.5807L1300.72 81.9938L1298.8 82.7254L1295.68 81.9856L1221.51 82.464L1220.1 81.8624L1218.55 82.4424L1216.99 81.8419L1064.25 83.0394L1062.22 81.9941L1061.84 80.6396L1059.72 80.4633C1059.41 80.2729 1059.18 80.0528 1058.94 79.8271C1058.5 79.4 1058.04 78.9529 1056.94 78.6494L1055.47 79.1744C1054.59 79.1069 1054.59 78.8428 1054.58 78.5829C1054.58 78.457 1054.57 78.3322 1054.47 78.231L1050.35 77.3348L1046.37 77.3605L1045.02 76.7722L1042.34 76.6945L1038.16 75.7987L1038.16 75.1746L1036.66 74.465L1039.55 73.198C1039.07 73.0035 1038.43 72.9021 1037.79 72.8021C1036.95 72.6688 1036.12 72.5378 1035.71 72.1915L1032.84 72.21C1032.84 72.206 1032.83 72.2021 1032.82 72.1984C1032.81 72.1945 1032.8 72.1907 1032.79 72.1869L1032.76 72.1765L1032.74 72.1678C1032.69 72.1521 1032.65 72.1375 1032.6 72.1232L1032.6 72.1229C1032.56 72.1095 1032.52 72.0965 1032.49 72.0834C1032.39 72.049 1032.31 72.0138 1032.28 71.9693C1032.09 71.7762 1032.06 71.5589 1032.19 71.3549C1032.33 71.1509 1032.62 70.973 1033.02 70.8519C1033.92 70.5068 1033.86 70.1137 1033.02 69.6578L1031.55 70.1829L1027.78 69.393L1027.77 67.9412L1028.98 67.3906L1028.96 64.3511C1029.37 64.0413 1029.73 63.7507 1030.08 63.4723C1030.56 63.0869 1031.02 62.7248 1031.5 62.3671C1031.81 62.1424 1031.97 61.9167 1032.13 61.7039C1032.4 61.3333 1032.64 61.0012 1033.55 60.7798C1033.54 59.7758 1034.97 59.3187 1037.15 59.1283C1037.55 59.1257 1037.9 58.9396 1038.26 58.7509L1038.27 58.7504C1038.32 58.7218 1038.37 58.6932 1038.43 58.6651C1038.55 58.6028 1038.67 58.5433 1038.8 58.4935L1043.25 58.4647L1045.43 57.4873C1044.47 57.0787 1043.32 57.1277 1042.24 57.1739C1041.55 57.2033 1040.89 57.2316 1040.32 57.1403L1038.04 56.2458L1038.03 54.889C1038.54 54.5552 1039.23 54.5545 1039.92 54.5538C1040.2 54.5535 1040.47 54.5532 1040.74 54.5322C1041.57 54.4227 1042.39 54.2905 1043.2 54.1364C1040.79 53.913 1038.33 53.8376 1035.87 53.9123C1035.29 53.5548 1034.42 53.4216 1033.49 53.2791C1033.02 53.2074 1032.54 53.1335 1032.07 53.0276L1033.56 52.231L1029.34 50.9012L1028.32 51.2878C1027.95 51.2674 1027.7 51.1505 1027.44 51.0304C1027.08 50.8645 1026.71 50.6924 1026.01 50.7599L1026 49.403C1026.94 49.397 1027.42 49.1425 1027.9 48.8859C1028.2 48.7251 1028.5 48.5635 1028.92 48.4615L1028.91 47.1046L1027.51 46.5709L1027.5 45.2139C1028.19 44.7028 1029.38 44.4449 1030.52 44.1974C1031.05 44.0804 1031.58 43.9658 1032.04 43.8277C1033.18 43.4407 1034.22 43.0017 1035.15 42.5186L1039.38 41.65L1045.25 39.1153L1045.24 37.8806C1044.5 37.5569 1043.68 37.5938 1042.87 37.6297C1042.44 37.6487 1042.02 37.6674 1041.62 37.6324C1041.18 37.4185 1040.93 37.134 1040.7 36.8545C1040.34 36.4343 1040 36.0256 1038.97 35.8856C1037.35 35.6985 1035.93 35.2889 1034.91 34.7177L1034.89 32.1395L1036.6 31.3143L1034.97 29.9679C1034.73 29.7435 1034.66 29.4911 1034.77 29.2468C1034.88 29.0024 1035.17 28.7786 1035.59 28.6071C1036.38 28.3173 1036.37 27.9645 1036.35 27.5352C1036.34 27.3298 1036.34 27.1068 1036.42 26.8648L1039.74 25.9478C1038.67 25.2364 1037.06 24.7104 1035.18 24.4574C1034.14 24.3155 1033.78 23.8979 1033.4 23.4721C1033.17 23.1981 1032.92 22.9205 1032.49 22.7108L1029.38 22.7308C1028.38 22.3372 1028.48 21.8917 1028.59 21.4053C1028.65 21.1329 1028.71 20.8476 1028.59 20.5513L1030.05 19.782L1030.04 18.5065L1028.91 17.8353L1028.9 16.4784L1032.41 14.936C1033.39 15.0812 1034.08 14.826 1034.75 14.5735C1035.4 14.3289 1036.05 14.0869 1036.96 14.2147C1037.38 14.0664 1037.75 13.9001 1038.13 13.7352C1039.08 13.316 1040 12.9062 1041.59 12.8278C1042.32 12.7698 1042.99 12.5294 1043.66 12.2919C1044.35 12.0453 1045.03 11.802 1045.76 11.7697C1046.36 11.7431 1046.92 11.5649 1047.5 11.3786C1048.32 11.1194 1049.18 10.8444 1050.27 10.9399C1050.77 10.5493 1051.63 10.4241 1052.49 10.2994C1053.23 10.1926 1053.97 10.0862 1054.47 9.81378C1055 9.52625 1055.75 9.51392 1056.56 9.50067C1057.42 9.48669 1058.34 9.47162 1059.14 9.13232C1059.66 8.88086 1060.49 8.82214 1061.4 8.75818C1062.38 8.68921 1063.45 8.6142 1064.3 8.28479C1064.79 8.10919 1065.5 8.138 1066.26 8.16913C1067.24 8.20898 1068.31 8.25256 1069.13 7.87372C1070.07 7.43665 1071.17 7.47748 1072.31 7.5202C1072.93 7.5434 1073.57 7.56714 1074.2 7.51532L1075.85 6.8941L1081.8 6.85571L1083.48 6.16638L1092.35 6.10913L1093.44 5.65436C1093.54 5.65375 1093.62 5.60229 1093.71 5.5509C1093.79 5.49945 1093.88 5.448 1093.97 5.44739L1161.32 4.80042L1162.41 4.31848C1162.43 4.30981 1162.45 4.30048 1162.48 4.29083C1162.51 4.27954 1162.53 4.26776 1162.56 4.25598C1162.7 4.19763 1162.83 4.13934 1162.97 4.13843L1171.78 4.0816L1173.09 3.354L1182.06 3.29614L1183.49 2.66272L1195.57 2.58478L1196.85 3.13281L1301.52 2.45776L1303.07 1.89136L1304.63 2.45123L1307.72 2.43134L1309.27 1.79712L1321.28 1.71967C1321.64 1.71161 1321.93 1.70953 1322.17 1.71393L1339.42 1.60266L1340.73 1.05402L1356.96 1.15869C1357.14 1.15979 1357.29 1.10034 1357.44 1.04242C1357.48 1.02771 1357.52 1.01312 1357.55 0.999634L1358.65 0.545349L1373.51 0.641174L1375.13 0.000305176L1376.65 0.620789L1382.57 0.658936L1384.04 0.139221L1386.06 0.691162L1386.98 0.685242L1388.43 0.140381C1388.48 0.134216 1388.55 0.15271 1388.65 0.17395L1388.65 0.174133C1388.75 0.197693 1388.86 0.224609 1388.96 0.22522L1389.95 0.666077L1390.1 0.6651C1391.17 0.308655 1391.73 0.12854 1392.28 0.127991C1392.82 0.127502 1393.36 0.296326 1394.37 0.637573L1394.87 0.634338L1396.13 0.176453L1400.24 0.203003L1401.69 0.590332L1404.06 0.575073L1404.97 0.260681L1428.89 0.414917L1452.81 0.260681L1453.72 0.575073L1456.09 0.590332L1457.54 0.203003L1461.66 0.176453L1462.91 0.634338L1463.41 0.637573C1464.42 0.296326 1464.96 0.127502 1465.5 0.127991C1466.05 0.12854 1466.61 0.308655 1467.68 0.6651L1467.83 0.666077L1468.82 0.22522C1468.92 0.224609 1469.03 0.197693 1469.14 0.174133L1469.18 0.164001C1469.2 0.158875 1469.22 0.154175 1469.24 0.15033C1469.29 0.141541 1469.32 0.13678 1469.35 0.140381L1470.8 0.685242L1471.72 0.691162L1473.74 0.139221L1475.21 0.658936L1481.13 0.620789L1482.65 0.000305176L1484.28 0.641174L1499.13 0.545349L1500.23 0.999634C1500.27 1.01312 1500.3 1.02771 1500.34 1.04242C1500.49 1.10034 1500.65 1.15979 1500.82 1.15869L1517.05 1.05402L1518.36 1.60266L1535.62 1.71393C1535.85 1.70953 1536.14 1.71161 1536.5 1.71967L1548.51 1.79712L1550.06 2.43134L1553.15 2.45123L1554.71 1.89136L1556.26 2.45776L1660.93 3.13281L1662.21 2.58478L1674.29 2.66272L1675.72 3.29614L1684.7 3.354L1686 4.0816L1694.81 4.13843C1694.95 4.13934 1695.09 4.19763 1695.22 4.25598C1695.27 4.27783 1695.32 4.29968 1695.37 4.31848L1696.46 4.80042L1763.81 5.44739C1763.9 5.448 1763.99 5.49945 1764.08 5.5509C1764.16 5.60229 1764.25 5.65375 1764.34 5.65436L1765.43 6.10913L1774.3 6.16638L1775.98 6.85571L1781.93 6.8941L1783.58 7.51532C1784.21 7.56714 1784.85 7.5434 1785.47 7.5202C1786.62 7.47748 1787.71 7.43665 1788.65 7.87372C1789.47 8.25256 1790.54 8.20898 1791.52 8.16913C1792.28 8.138 1792.99 8.10919 1793.48 8.28479C1794.34 8.6142 1795.4 8.68921 1796.38 8.75818C1797.19 8.81537 1797.95 8.86841 1798.47 9.05896C1799 9.06512 1799.52 9.01093 1799.96 8.74176C1800.65 8.30627 1801.46 8.34894 1802.31 8.39362C1802.77 8.41785 1803.23 8.44269 1803.7 8.39191L1804.92 7.77344L1809.31 7.74512L1810.55 7.05865L1817.11 7.01636L1817.91 6.56335C1817.93 6.56329 1817.94 6.56128 1817.95 6.55774C1817.97 6.55164 1818 6.54095 1818.02 6.52753C1818.05 6.50867 1818.08 6.4845 1818.11 6.46033C1818.17 6.40906 1818.23 6.35779 1818.3 6.3573L1868.05 5.82385L1868.85 5.34375C1868.87 5.33484 1868.89 5.3252 1868.91 5.31525L1868.94 5.29517L1868.97 5.28143C1868.98 5.27277 1868.99 5.2641 1869.01 5.25568C1869.04 5.23645 1869.08 5.2182 1869.11 5.20312C1869.13 5.19476 1869.15 5.18738 1869.17 5.1814C1869.2 5.17114 1869.23 5.16492 1869.27 5.16467L1875.78 5.12268L1876.74 4.39728L1883.37 4.35455L1884.42 3.72357L1893.35 3.66595L1894.29 4.21619L1971.61 3.71753L1972.75 3.15381L1973.91 3.71625L1976.18 3.7016L1977.33 3.07001L2023.63 2.77136L2024.82 2.08521C2025.57 1.92084 2026 2.14642 2026.49 2.40405C2026.52 2.42188 2026.56 2.43982 2026.59 2.45782C2026.67 2.49927 2026.75 2.54095 2026.84 2.58136C2027 2.65808 2027.18 2.73022 2027.38 2.7879L2029.54 2.12262L2083.35 1.77551L2084.81 2.45819L2086.85 1.72583L2089.89 1.70624L2091 2.25543C2091.87 1.85938 2092.3 1.66327 2092.73 1.66425C2093.15 1.66522 2093.57 1.85583 2094.4 2.23346L2095.18 1.76709C2095.21 1.76691 2095.24 1.76306 2095.27 1.75702C2095.32 1.74701 2095.37 1.73108 2095.41 1.71649C2095.48 1.69531 2095.54 1.67688 2095.57 1.68311L2096.93 2.37994L2098.82 1.68933L2099.9 2.21155L2104.27 2.18335L2105.4 1.56549L2106.6 2.20905L2117.57 2.13831L2118.38 2.59442C2118.39 2.59985 2118.4 2.60541 2118.41 2.61108C2118.43 2.61969 2118.45 2.62854 2118.47 2.63739C2118.58 2.69556 2118.69 2.75531 2118.82 2.75446L2130.81 2.67712L2131.89 3.29431L2135.32 3.27222L2135.79 3.94769L2127.53 4.00098L2126.37 3.38422L2125.27 3.94763L2123.91 3.30511L2107.53 3.41077L2106.44 2.91571L2078.83 3.09381L2077.84 2.51672C2077.6 2.60431 2077.39 2.73102 2077.19 2.85413C2076.79 3.09973 2076.41 3.33087 2075.86 3.20795L2073.92 2.37909L2072.16 3.13684L2064.54 3.18597L2063.34 2.63733L2062.45 3.1723L2062.4 3.17426L2062.37 3.17548L2062.32 3.17688C2062.29 3.17755 2062.26 3.17804 2062.23 3.17841C2062.2 3.17883 2062.17 3.17902 2062.14 3.17896C2062.07 3.17877 2062.01 3.17767 2061.94 3.1756L2019.42 3.44983C2019.32 3.45044 2019.22 3.50323 2019.12 3.55389L2019.11 3.55481L2019.1 3.55914L2019.07 3.57562L2019.04 3.58972C2019.02 3.59906 2019 3.60779 2018.98 3.61548L2018.2 4.08191L2017.03 3.49243L2014.86 3.50635L2013.72 4.13794L2006.1 4.18707L2004.83 3.57111L2003.8 4.24261L1976.19 4.42072L1975.16 5.02441L1973.89 4.422L1971.73 4.43597L1970.58 5.06757L1969.47 4.49121L1968.32 5.05493L1967.35 4.50488L1966.21 5.0686L1965.05 4.479L1961.85 4.49963L1960.69 5.21277C1959.98 5.39038 1959.57 5.17438 1959.15 4.95715C1958.91 4.83374 1958.67 4.7099 1958.38 4.65771L1957.26 5.19415L1956.31 4.64392L1955.16 5.22125L1954.01 4.6181L1950.88 4.63824L1949.76 5.2561L1948.58 4.61237L1947.64 5.1748L1897.69 5.49701L1896.74 4.96033L1895.59 5.53766L1894.46 4.94788L1893.36 5.56561L1891.34 5.57867L1889.56 4.88452L1887.72 5.53412L1886.89 5.05096L1879.99 5.09552L1878.86 5.74054L1872.86 5.77924L1873.24 6.99811L1875.67 6.98236L1876.82 6.33722L1890.03 6.25201L1891.23 6.84131L1892.15 6.27905L1897.97 6.24152L1898.96 6.83215L1903.22 6.80469C1903.32 6.80408 1903.43 6.75189 1903.54 6.70239C1903.58 6.68463 1903.62 6.66724 1903.65 6.65265L1904.45 6.17255L1905.61 6.78931L1913.29 6.73969L1914.44 6.13525L1915.57 6.68433L1918.61 6.66473L1920.68 5.93219L1922.18 6.65527L1925.49 6.63391C1925.59 6.58234 1925.7 6.51965 1925.8 6.45386C1926.24 6.18652 1926.77 5.86792 1927.79 6.03558L1928.92 6.63892L1936.6 6.58936L1937.45 6.13611C1938.59 5.77686 1939.06 6.10492 1939.39 6.34082C1939.52 6.43243 1939.63 6.51013 1939.75 6.52832L1943.14 6.50653L1944.58 5.83228L1985.15 5.57062L1986.02 5.04938L1988.09 5.72803L1989.47 4.97284L1994.95 4.9375L1996.1 5.51355L1997.22 4.97711L2000.22 4.95782L2002.36 5.66315L2003.81 4.93463L2041.17 4.69366C2041.31 4.69275 2041.45 4.58331 2041.59 4.51459L2042.36 4.06177L2043.52 4.65137L2044.62 4.08789L2045.89 4.69037C2046.17 4.66388 2046.46 4.66846 2046.74 4.67291C2047.39 4.68323 2048.01 4.69299 2048.49 4.3208C2048.95 3.9599 2049.56 3.97668 2050.18 3.99414C2050.48 4.0025 2050.79 4.01099 2051.08 3.97833C2051.28 4.04852 2051.45 4.1438 2051.63 4.24011C2052.09 4.49146 2052.56 4.75 2053.39 4.58771L2054.49 3.98352L2055.64 4.58673L2056.56 4.02448L2065.77 3.96509C2066.02 4.12628 2066.27 4.27393 2066.55 4.42139L2068.64 3.78369L2070.03 4.48041L2071.17 3.86237L2073.33 3.84839L2074.74 4.61279L2076.81 3.90741L2077.8 4.47095L2104.31 4.29999L2105.33 4.90405L2106.52 4.29926L2108.68 4.28534C2108.89 4.36731 2109.07 4.48004 2109.25 4.59131C2109.66 4.84271 2110.06 5.08661 2110.66 4.95099L2112.57 4.11102L2114.55 4.92596L2120.93 4.88483L2121.8 5.38123L2123.87 4.703L2125.26 5.42682L2126.91 4.6427L2128.59 5.39172L2139.73 5.31989C2139.81 5.31934 2139.89 5.26288 2140 5.18134C2140.07 5.12976 2140.15 5.06818 2140.26 5.00439C2139.8 4.8985 2139.33 4.81085 2138.85 4.74207C2137.95 4.74786 2137.06 4.75366 2136.16 4.63733C2136.09 4.58826 2136.03 4.47284 2135.96 4.35638C2135.91 4.24933 2135.85 4.14142 2135.79 4.08337ZM1480.9 1.36859C1480.85 1.37976 1480.81 1.3905 1480.76 1.40082L1480.62 1.37036L1480.9 1.36859ZM1433.21 1.67615L1433.28 1.7052C1433.51 1.71313 1433.74 1.7146 1433.97 1.70966L1491.53 2.08093C1491.66 2.08179 1491.81 2.13489 1491.94 2.18591C1492 2.20844 1492.06 2.23053 1492.12 2.24756L1493.18 2.71576L1494.77 2.12897L1497.7 2.14783L1499.25 2.78204L1509.56 2.84857L1511.28 2.23547L1512.68 2.90936L1524.26 2.98407C1524.27 2.99078 1524.28 2.99677 1524.29 3.00201C1525.5 3.11627 1526.72 3.10846 1527.93 3.10065C1528.58 3.16827 1529.22 3.25488 1529.84 3.35974C1529.69 3.42377 1529.58 3.4856 1529.49 3.53735C1529.39 3.58868 1529.32 3.63007 1529.25 3.65399L1524.67 3.62445L1524.44 3.7066L1521.77 3.72388L1521.58 3.65887L1517.53 3.63275L1517.03 3.75446L1514.05 3.77368L1511.77 3.0285L1510.18 3.58533L1508.91 3.57709L1507.65 3.09576L1505.76 3.55682L1504.3 3.54736L1503.67 3.2843L1495.04 3.33997L1492.36 2.52954L1489.78 3.3739C1488.96 3.51086 1488.42 3.26788 1487.86 3.0174C1487.62 2.90649 1487.37 2.79419 1487.09 2.71271L1484.16 2.73163L1482.55 3.33911L1481.17 2.7373L1461 2.86749L1460.47 2.6405L1459.85 2.87488L1458.01 2.88672L1457.42 2.6615L1456.75 2.8949L1452.25 2.92389C1452.23 2.91156 1452.2 2.8988 1452.18 2.88556C1451.55 2.52356 1450.73 2.539 1449.89 2.55499C1449.48 2.56268 1449.07 2.5705 1448.66 2.53717C1448.4 2.60687 1448.17 2.70172 1447.93 2.79761C1447.8 2.85095 1447.67 2.90454 1447.53 2.95435L1445.29 2.96881L1443.95 2.40753L1441.98 2.90485L1441.25 2.5708L1439.75 2.56116L1439.24 2.35645L1436.31 2.37537L1435.91 2.53638L1433.47 2.52063L1432.89 2.30249L1431.97 2.51093L1429 2.49176C1428.99 2.49133 1428.99 2.49084 1428.99 2.49042L1428.89 2.49109L1428.79 2.49042C1428.79 2.49084 1428.79 2.49133 1428.79 2.49176L1425.81 2.51093L1424.9 2.30249L1424.31 2.52063L1421.87 2.53638L1421.47 2.37537L1418.54 2.35645L1418.03 2.56116L1416.53 2.5708L1415.8 2.90485L1413.84 2.40753L1412.49 2.96881L1410.25 2.95435C1410.12 2.90454 1409.98 2.85095 1409.85 2.79761C1409.61 2.70172 1409.38 2.60687 1409.12 2.53717C1408.71 2.5705 1408.3 2.56268 1407.9 2.55499C1407.05 2.539 1406.23 2.52356 1405.6 2.88556C1405.58 2.8988 1405.55 2.91156 1405.53 2.92389L1401.03 2.8949L1400.37 2.6615L1399.77 2.88672L1397.94 2.87488L1397.31 2.6405L1396.78 2.86749L1376.61 2.7373L1375.23 3.33911L1373.62 2.73163L1370.69 2.71271C1370.41 2.79419 1370.16 2.90649 1369.92 3.0174C1369.36 3.26788 1368.83 3.51086 1368.01 3.3739L1365.43 2.52954L1362.74 3.33997L1354.11 3.2843L1353.48 3.54736L1352.02 3.55682L1350.13 3.09576L1348.88 3.57709L1347.6 3.58533L1346.02 3.0285L1343.74 3.77368L1340.75 3.75446L1340.25 3.63275L1336.2 3.65887L1336.02 3.72388L1333.34 3.7066L1333.11 3.62445L1328.53 3.65399C1328.46 3.63007 1328.39 3.58868 1328.29 3.53735C1328.2 3.4856 1328.09 3.42377 1327.95 3.35974C1328.56 3.25488 1329.2 3.16827 1329.85 3.10065C1331.06 3.10846 1332.28 3.11627 1333.49 3.00201C1333.5 2.99677 1333.51 2.99078 1333.52 2.98407L1345.1 2.90936L1346.5 2.23547L1348.22 2.84857L1358.53 2.78204L1360.08 2.14783L1363.01 2.12897L1364.6 2.71576L1365.66 2.24756C1365.72 2.23053 1365.78 2.20844 1365.84 2.18591C1365.98 2.13489 1366.12 2.08179 1366.25 2.08093L1423.82 1.70966C1424.04 1.7146 1424.27 1.71313 1424.5 1.7052L1424.57 1.67615L1427.28 1.6936L1427.34 1.71405L1428.89 1.70404L1430.45 1.71405L1430.51 1.6936L1433.21 1.67615ZM1377.16 1.37036L1377.02 1.40082C1376.98 1.3905 1376.93 1.37976 1376.88 1.36859L1377.16 1.37036ZM1323.41 3.04932C1323.09 3.11017 1322.76 3.16565 1322.43 3.21564C1321.47 3.52563 1320.59 3.88287 1319.81 4.28021L1264.93 4.63416L1262.97 5.31171L1258.39 5.34125C1258.23 5.32336 1258.08 5.24591 1257.9 5.1546C1257.45 4.91943 1256.82 4.59241 1255.28 4.95428L1254.13 5.40948L1243.72 5.47662L1242.19 4.87585C1240.81 4.71051 1240.1 5.03027 1239.51 5.29858C1239.36 5.36462 1239.22 5.42755 1239.08 5.47937L1234.59 5.5083L1232.56 4.7887L1229.77 5.52588L1225.65 5.55243L1224.12 5.00592L1222.57 5.61304L1212.17 5.68011L1210.6 5.06598L1209.52 5.54797L1209.49 5.55676L1209.46 5.5661C1209.43 5.57617 1209.4 5.58691 1209.36 5.59778C1209.22 5.64752 1209.06 5.70013 1208.93 5.70105L1203.16 5.73822L1201.82 5.14978L1193.94 5.20062L1192.7 5.76501L1191.07 5.17841L1173.19 5.29376L1171.64 5.94153L1168.34 5.96283L1167.83 4.74481L1175.96 4.69238L1177.48 4.0448L1186.83 3.98456L1187.95 4.46576L1190.44 3.81195L1192.84 4.50208L1195.59 4.48438L1197.08 3.86414L1198.61 4.45135L1200.16 3.8714L1201.44 4.40594L1269.07 3.96973L1270.34 3.40515L1271.94 4.0462L1273.46 3.42578L1277.69 3.39844L1279.26 3.99902L1280.81 3.41907L1282.09 3.96716L1283.61 3.4281C1284.01 3.47961 1284.33 3.60291 1284.65 3.72577C1285.22 3.94202 1285.78 4.1571 1286.73 3.97791L1288.32 3.26208L1292.65 3.23413L1294.21 3.82117L1295.76 3.25476L1297.07 3.80267L1298.63 3.23627L1300.13 3.81012L1301.68 3.1759L1304.61 3.15698L1306.33 3.75653L1307.72 3.15045L1323.41 3.04932ZM1537.97 4.28021C1537.19 3.88287 1536.31 3.52563 1535.35 3.21564C1535.02 3.16565 1534.69 3.11017 1534.38 3.04932L1550.06 3.15045L1551.46 3.75653L1553.17 3.15698L1556.1 3.1759L1557.66 3.81012L1559.15 3.23627L1560.71 3.80267L1562.02 3.25476L1563.57 3.82117L1565.14 3.23413L1569.47 3.26208L1571.05 3.97791C1572 4.1571 1572.56 3.94202 1573.13 3.72577C1573.45 3.60291 1573.77 3.47961 1574.17 3.4281L1575.69 3.96716L1576.97 3.41907L1578.53 3.99902L1580.09 3.39844L1584.32 3.42578L1585.85 4.0462L1587.44 3.40515L1588.71 3.96973L1656.34 4.40594L1657.62 3.8714L1659.17 4.45135L1660.71 3.86414L1662.2 4.48438L1664.94 4.50208L1667.34 3.81195L1669.83 4.46576L1670.95 3.98456L1680.3 4.0448L1681.82 4.69238L1689.95 4.74481L1689.44 5.96283L1686.14 5.94153L1684.59 5.29376L1666.71 5.17841L1665.09 5.76501L1663.84 5.20062L1655.96 5.14978L1654.62 5.73822L1648.86 5.70105C1648.72 5.70013 1648.56 5.64771 1648.42 5.59796C1648.37 5.58014 1648.31 5.56262 1648.26 5.54797L1647.18 5.06598L1645.62 5.68011L1635.21 5.61304L1633.66 5.00592L1632.13 5.55243L1628.02 5.52588L1625.22 4.7887L1623.19 5.5083L1618.7 5.47937C1618.56 5.42755 1618.42 5.36462 1618.27 5.29858C1617.68 5.03027 1616.97 4.71051 1615.59 4.87585L1614.06 5.47662L1603.66 5.40948L1602.51 4.95428C1600.96 4.59241 1600.33 4.91943 1599.88 5.1546C1599.7 5.24591 1599.55 5.32336 1599.39 5.34125L1594.81 5.31171L1592.85 4.63416L1537.97 4.28021ZM2158.32 72.4912C2157.67 71.8305 2157.67 71.8305 2156.2 72.1249C2156.48 72.5862 2157.01 72.5416 2157.55 72.4967C2157.82 72.4745 2158.08 72.4523 2158.32 72.4912ZM2156.33 56.9262C2156.3 56.8556 2156.27 56.782 2156.25 56.711C2156.14 56.3743 2156.04 56.0947 2155.25 56.4583C2155.59 56.6294 2155.95 56.7858 2156.33 56.9262ZM1803.05 9.69873C1802.61 9.54321 1802.06 9.51666 1801.46 9.50488L1801.66 9.44989C1802 8.98096 1802.68 9.01044 1803.38 9.04095H1803.39C1803.54 9.04767 1803.69 9.05444 1803.85 9.05591C1804.08 9.05811 1804.32 9.04095 1804.56 9.02368C1805.2 8.97784 1805.85 8.93115 1806.42 9.2428C1806.05 9.38849 1805.79 9.48608 1805.53 9.55212C1805.03 9.67719 1804.51 9.68878 1803.05 9.69873ZM1793.66 9.5542C1793.47 9.60699 1793.3 9.67517 1793.17 9.75488C1793.49 9.68372 1793.86 9.64935 1794.25 9.61322C1794.58 9.58221 1794.93 9.54993 1795.27 9.49207C1795.04 9.45251 1794.8 9.43323 1794.56 9.43591C1794.24 9.43939 1793.93 9.48029 1793.66 9.5542ZM1813.74 8.27295C1808.79 8.30481 1808.79 8.30481 1807.87 8.75854C1807.94 8.75806 1808.01 8.80511 1808.08 8.85217C1808.15 8.89923 1808.22 8.94629 1808.29 8.94586L1818.02 8.88306L1819.69 8.12592L1822 8.88452L1824.18 8.12415C1824.57 8.19843 1824.87 8.3429 1825.16 8.48193C1825.64 8.71118 1826.08 8.92554 1826.86 8.78534L1828.16 8.112L1836.93 8.05548L1837.94 7.4519C1838.83 7.47321 1868.55 7.06891 1869.44 7.03613C1869.61 7.03503 1869.79 7.05115 1869.98 7.06775C1870.62 7.12317 1871.32 7.18402 1871.74 6.62781C1871.67 6.59668 1871.62 6.5553 1871.56 6.51636C1871.51 6.48059 1871.46 6.4469 1871.41 6.42499C1871.38 6.40924 1871.35 6.3996 1871.32 6.39978C1870.49 6.40515 1862.48 6.50983 1854.47 6.61462L1854.24 6.61755C1846.28 6.72162 1838.36 6.82495 1837.54 6.83026C1837.21 6.87384 1836.9 6.9444 1836.6 7.03986L1835.8 7.49286L1815.46 7.62402C1815.11 7.6593 1814.78 7.73035 1814.47 7.83398L1813.74 8.27295ZM2114.69 72.5555C2114.73 72.5238 2114.8 72.4919 2114.86 72.4617C2114.96 72.4136 2115.05 72.3694 2115.03 72.3362C2114.95 72.1835 2114.83 72.0383 2114.69 71.9042C2114.57 71.9049 2114.32 72.0694 2114.34 72.1099C2114.44 72.2645 2114.55 72.4136 2114.69 72.5555ZM1770 7.37347C1776.7 7.41663 1776.7 7.41663 1777.94 7.8725C1777.85 7.87189 1777.75 7.91876 1777.66 7.96564C1777.56 8.01251 1777.47 8.05939 1777.38 8.05884L1764.2 7.97382L1761.93 7.21289L1758.81 7.96619L1755.86 7.20081C1755.33 7.27423 1754.92 7.41803 1754.53 7.5564C1753.89 7.78455 1753.28 7.99786 1752.24 7.85596L1750.47 7.17963L1738.6 7.10309L1737.23 6.49719C1736.03 6.51648 1695.79 6.04431 1694.58 6.00952C1694.47 6.00879 1694.35 6.01239 1694.23 6.01819C1694.1 6.02393 1693.98 6.03186 1693.85 6.03992C1692.99 6.09387 1692.04 6.1532 1691.47 5.59595C1691.56 5.56494 1691.64 5.52374 1691.71 5.48492C1691.83 5.42358 1691.94 5.36829 1692.03 5.3689C1693.16 5.3761 1704.03 5.49939 1714.9 5.62262C1725.77 5.74591 1736.64 5.8692 1737.77 5.87646C1738.21 5.92078 1738.64 5.99207 1739.04 6.0882L1740.13 6.54303L1767.67 6.72064C1768.14 6.75665 1768.59 6.82849 1769 6.9328L1770 7.37347ZM1784.91 8.8266C1781.45 8.80432 1781.45 8.80426 1779.9 8.36005C1780.67 8.04968 1781.55 8.09784 1782.42 8.14514C1782.75 8.16296 1783.07 8.18066 1783.39 8.17902C1783.6 8.17792 1783.81 8.17151 1784.02 8.1651C1784.97 8.13623 1785.89 8.10834 1786.35 8.578L1789.71 9.26459L1786.59 9.51587L1784.91 8.8266ZM1790.7 9.36603L1790.17 9.13196C1790.48 9.04407 1790.82 8.9776 1791.17 8.93481C1791.17 8.93481 1791.54 9.05933 1791.54 9.14075L1790.7 9.36603ZM1079.84 7.8725C1081.09 7.41663 1081.09 7.41663 1087.78 7.37347L1088.78 6.9328C1089.19 6.82849 1089.65 6.75665 1090.12 6.72064L1117.65 6.54303L1118.74 6.0882C1119.14 5.99207 1119.57 5.92078 1120.02 5.87646C1121.14 5.8692 1132.01 5.74591 1142.88 5.62262L1143.24 5.61859C1153.99 5.4967 1164.64 5.37604 1165.75 5.3689C1165.84 5.36829 1165.95 5.42358 1166.07 5.48492C1166.15 5.52374 1166.23 5.56494 1166.31 5.59595C1165.74 6.1532 1164.79 6.09387 1163.93 6.03992C1163.68 6.02374 1163.43 6.00806 1163.2 6.00952C1161.99 6.04431 1121.75 6.51648 1120.55 6.49719L1119.18 7.10309L1107.31 7.17963L1105.54 7.85596C1104.5 7.99786 1103.9 7.78455 1103.25 7.5564C1102.86 7.41803 1102.46 7.27423 1101.93 7.20081L1098.97 7.96619L1095.85 7.21289L1093.58 7.97382L1080.4 8.05884C1080.31 8.05939 1080.22 8.01251 1080.12 7.96564C1080.03 7.91876 1079.94 7.87189 1079.84 7.8725ZM1077.88 8.36005C1076.33 8.80426 1076.33 8.80432 1072.87 8.8266L1071.19 9.51587L1068.08 9.26459L1071.44 8.578C1071.89 8.10834 1072.81 8.13623 1073.76 8.1651C1073.97 8.17151 1074.18 8.17792 1074.39 8.17902C1074.71 8.18066 1075.03 8.16296 1075.36 8.14514C1076.23 8.09784 1077.11 8.04968 1077.88 8.36005ZM1062.29 10.1561C1062.02 10.0898 1061.79 9.99323 1061.63 9.8761L1061.63 9.82184C1061.79 9.70154 1062.03 9.60223 1062.31 9.5343C1062.59 9.46643 1062.91 9.43243 1063.22 9.43591C1063.54 9.43939 1063.85 9.48029 1064.12 9.5542C1064.39 9.62811 1064.6 9.73236 1064.75 9.85602C1064.59 9.97522 1064.36 10.0746 1064.09 10.1445C1063.82 10.2144 1063.51 10.2522 1063.19 10.2542C1062.88 10.2562 1062.57 10.2224 1062.29 10.1561ZM1067.61 9.13196L1067.08 9.36603L1066.24 9.14075C1066.24 9.05933 1066.61 8.93481 1066.61 8.93481C1066.96 8.9776 1067.3 9.04407 1067.61 9.13196Z" fill="#191919"/>
<path d="M2160.58 52.9365C2160.02 53.3488 2159.44 53.3685 2158.81 53.3896C2158.38 53.4044 2157.92 53.4198 2157.44 53.5674L2156.73 53.952L2154.6 53.0972C2154.92 53.0211 2155.15 52.9515 2155.34 52.8958C2155.64 52.8088 2155.82 52.7554 2156 52.7625C2157.54 52.6582 2159.09 52.7172 2160.58 52.9365Z" fill="#191919"/>
<path d="M2164.85 58.3774L2164.85 57.5905C2162.7 56.3831 2162.52 56.3436 2161.53 56.947C2162.21 57.1243 2162.42 57.4869 2162.65 57.8871C2162.78 58.1144 2162.92 58.3538 2163.15 58.5784L2164.85 58.3774Z" fill="#191919"/>
<path d="M2149.04 3.60437C2147.33 4.00165 2145.45 4.07544 2143.68 3.81537C2143.7 3.71851 2143.71 3.63849 2143.75 3.57422C2143.95 3.2688 2144.7 3.31848 2149.03 3.60419H2149.04L2149.04 3.60437Z" fill="#191919"/>
<path d="M2161.1 72.2562L2160.71 72.4893L2161.1 72.9075C2161.22 72.8253 2161.45 72.6881 2161.45 72.6881C2161.37 72.5355 2161.25 72.3903 2161.1 72.2562Z" fill="#191919"/>
<path d="M2146.49 7.93591L2147.43 7.26495C2148.12 7.73187 2147.65 7.78857 2146.95 7.87427C2146.8 7.89221 2146.65 7.91144 2146.49 7.93591Z" fill="#191919"/>
</svg>
