<svg viewBox="0 0 738 86" fill="none" xmlns="http://www.w3.org/2000/svg">
<path fill-rule="evenodd" clip-rule="evenodd" d="M714.943 81.9168L718.753 81.955C719.268 81.6038 719.839 81.3259 720.446 81.1306C721.008 80.7494 721.509 80.2976 721.934 79.7885C721.7 79.3865 721.517 78.9612 721.391 78.521C721.392 78.2226 721.645 77.9673 722.075 78.0394L722.374 77.3775L726.287 77.4166C725.603 76.8075 724.786 76.3369 723.891 76.0357C723.582 75.4762 723.273 74.8896 722.965 74.303C723.559 73.8201 723.896 74.0915 724.278 74.3994C724.479 74.5616 724.693 74.734 724.964 74.8115L726.078 74.2528C726.234 74.2544 726.379 74.3747 726.534 74.504C726.822 74.7429 727.146 75.0125 727.647 74.6213C727.752 74.3917 727.752 74.3917 726.246 73.0061L724.988 72.5728C725.133 72.4158 725.303 72.2802 725.493 72.1707C725.829 72.0696 726.171 71.9869 726.517 71.9231L725.38 70.9212C724.987 70.947 724.593 70.8955 724.222 70.77C723.852 70.6446 723.515 70.4482 723.234 70.194L720.388 70.1655L719.62 69.493L717.515 69.4719L716.732 68.7991L712.804 68.7598C712.478 68.6106 712.213 68.4977 711.98 68.3986L711.98 68.3983C711.851 68.3435 711.732 68.2929 711.618 68.2428C711.517 68.1981 711.42 68.1538 711.324 68.1072C711.078 67.9876 710.922 67.8894 710.706 67.754L710.705 67.7533L710.704 67.7529C710.571 67.669 710.415 67.5709 710.2 67.4446L707.621 67.4188C707.118 67.1559 707.119 66.8981 707.446 66.8606C707.838 66.8171 708.186 66.6354 708.533 66.4543C709.078 66.17 709.619 65.8873 710.324 66.1431C710.683 65.8721 711.1 65.6757 711.519 65.4782C712.177 65.168 712.842 64.8547 713.297 64.2459L714.272 65.0021L715.595 64.2825L717.447 64.3011L718.295 63.6446L722.342 63.6851L724.882 62.3536L728.277 62.3876C728.297 62.3878 728.316 62.3802 728.336 62.3668C728.371 62.3436 728.406 62.3027 728.448 62.2545C728.47 62.2289 728.494 62.2013 728.521 62.1731C728.542 62.1507 728.564 62.128 728.589 62.1058L725.763 60.7205L725.767 59.9335L727.858 59.6016L727.254 58.6592L728.635 58.1981L728.402 57.0423L727.673 57.6864L725.735 56.7985C726.326 56.4422 726.959 56.481 727.589 56.5195C728.115 56.5517 728.638 56.5836 729.132 56.3847L729.757 55.8074L732.721 55.8372L732.815 54.7661L731.674 54.4968L731.293 53.4888C730.778 53.18 730.203 53.2196 729.626 53.2594C729.043 53.2996 728.458 53.34 727.93 53.0209C728.569 52.6202 728.569 52.6202 729.755 52.5642L730.235 51.3749L735.423 51.2776C735.435 51.2777 735.446 51.2753 735.457 51.2709C735.474 51.2642 735.491 51.2526 735.508 51.2377C735.532 51.2165 735.557 51.1884 735.585 51.1577L735.586 51.1569C735.624 51.1135 735.668 51.0649 735.721 51.0227C735.121 50.6575 734.473 50.6749 733.823 50.6924C733.318 50.7059 732.813 50.7194 732.328 50.5546C732.123 50.2379 732.336 50.1078 732.548 49.9778C732.702 49.8833 732.856 49.789 732.851 49.6234L732.78 48.8628L730.883 48.586C730.884 48.5642 730.881 48.5424 730.878 48.5211C730.876 48.507 730.873 48.4931 730.87 48.4796L730.868 48.4712L730.865 48.4565L730.861 48.4393C730.843 48.3652 730.829 48.3089 730.885 48.3011C731.364 47.9906 731.886 48.031 732.41 48.0716C732.698 48.0939 732.988 48.1163 733.272 48.0807C733.817 47.6465 733.684 47.1168 733.552 46.5908C733.529 46.4998 733.506 46.409 733.487 46.3188C732.969 46.0528 732.415 46.0805 731.86 46.1083C731.606 46.121 731.352 46.1337 731.101 46.1185C730.569 46.086 730.01 46.0895 729.451 46.0929H729.448C729.168 46.0946 728.888 46.0963 728.611 46.0936L726.121 46.0686C725.901 46.0664 725.682 46.0843 725.466 46.102C724.869 46.1509 724.289 46.1984 723.735 45.814C723.961 45.3183 724.362 45.3653 724.762 45.4124C724.918 45.4308 725.074 45.4491 725.219 45.4353C725.678 45.4135 726.139 45.4182 726.598 45.4492L728.707 44.4797C728.129 44.1207 727.502 44.1443 726.875 44.168C726.345 44.1879 725.815 44.2079 725.314 43.9979C725.063 43.5901 725.349 43.5533 725.614 43.5193L725.616 43.5191C725.661 43.5133 725.705 43.5076 725.746 43.5002C725.797 43.4909 725.86 43.4901 725.932 43.4927C725.973 43.4942 726.017 43.4969 726.064 43.4996C726.389 43.5187 726.835 43.5448 727.229 43.2572L727.371 41.1824L729.436 40.226C729.487 40.2265 729.556 40.2374 729.637 40.2503C729.933 40.297 730.399 40.3706 730.83 40.0772L728.746 38.6993L728.749 37.8987C729.302 37.5603 729.918 37.5935 730.55 37.6275C731.09 37.6565 731.641 37.6862 732.175 37.4852C732.176 37.0756 731.932 37.0532 731.683 37.0303C731.57 37.0198 731.455 37.0092 731.362 36.9614C730.971 36.7121 730.61 36.4266 730.283 36.1093L730.097 34.5876C729.595 34.2905 729.061 34.3163 728.536 34.3417C728.256 34.3553 727.979 34.3687 727.711 34.333L726.958 33.7013L726.348 34.2515L722.553 34.2135C722.413 33.7804 722.693 33.5987 722.968 33.4195C723.126 33.317 723.282 33.2154 723.358 33.0681C724.109 33.0756 724.533 32.6685 724.966 32.2531C725.157 32.0697 725.349 31.8849 725.573 31.7333L727.055 31.7481C727.51 31.174 728.17 30.8206 728.836 30.4639C729.654 30.0261 730.482 29.5831 730.951 28.7204L730.004 28.4802L729.185 29.1641C728.847 29.1752 728.508 29.1444 728.178 29.0726C728.443 28.1431 729.265 27.7361 730.102 27.3218C730.544 27.1029 730.99 26.8817 731.36 26.5805C732.06 26.6723 732.432 26.2965 732.829 25.897C733.003 25.721 733.182 25.5404 733.396 25.3931L734.983 25.2461C735.33 24.9678 735.297 24.6228 735.264 24.278C735.246 24.0915 735.228 23.905 735.271 23.7292C735.012 23.3468 734.644 23.36 734.277 23.3733C734.079 23.3804 733.882 23.3875 733.701 23.3336C733.254 23.1326 732.833 22.8872 732.444 22.6018L731.33 23.2419L729.091 23.2195L728.944 22.9195C729.523 22.6407 730.116 22.3755 730.917 22.0179L730.92 22.0166L732.061 22.028L732.835 21.3708L734.198 21.3845L735.016 20.7277L736.899 20.7466L738 19.7534C737.264 19.4087 736.491 19.4364 735.724 19.4639C735.102 19.4862 734.485 19.5083 733.896 19.3324L733.704 19.0998C734.165 18.6702 734.641 18.2407 735.192 17.7577L733.83 17.242C733.833 16.5977 734.35 16.4435 734.868 16.2892C735.299 16.1607 735.731 16.032 735.868 15.6204C735.838 15.5415 735.818 15.4612 735.799 15.3847C735.763 15.2365 735.73 15.1025 735.633 15.021C735.104 14.3814 734.428 13.8556 733.653 13.4814L732.568 14.1761L730.567 14.1561C730.412 14.1018 730.299 13.9783 730.185 13.8527C730.005 13.6552 729.821 13.4527 729.458 13.5072L729.194 12.9211L724.747 12.8765L724.137 13.4267L720.624 13.3916L719.806 14.0483L715.596 14.0062L714.807 14.6768L711.28 14.6414L710.64 15.2185C710.027 15.3009 709.366 15.2865 708.685 15.2717H708.684C708.114 15.2593 707.53 15.2465 706.948 15.2901L706.323 15.8538L703.477 15.8254L702.822 16.6601L696.388 16.5957L695.665 16.0456C695.375 15.9473 695.049 15.9626 694.713 15.9783C694.19 16.0029 693.644 16.0286 693.176 15.6272C693.21 15.5964 693.241 15.5639 693.27 15.5326L693.298 15.5018C693.37 15.423 693.429 15.3584 693.488 15.3589L701.152 15.4356C701.858 15.183 702.116 14.6655 702.368 14.1605C702.551 13.795 702.73 13.436 703.073 13.1888C702.903 12.5059 703.244 11.9436 703.57 11.4041C703.719 11.159 703.865 10.9186 703.958 10.6736C703.898 10.6078 703.849 10.547 703.808 10.4953C703.729 10.3965 703.677 10.3316 703.619 10.331L694.177 10.06L693.587 9.49775L686.368 9.42548L685.247 8.05722L682.179 8.02652C682.131 8.02603 682.084 7.98336 682.037 7.93112L682.02 7.91213L681.996 7.88357C681.968 7.85122 681.94 7.81887 681.913 7.79317C682.068 7.24293 682.479 7.31007 682.893 7.37757C683.284 7.44124 683.676 7.50526 683.858 7.05274L683.179 6.31315C684.204 6.03098 685.232 6.07212 686.268 6.11356H686.269C687.107 6.14713 687.949 6.18089 688.798 6.04374L688.98 5.16353C688.399 4.79969 687.769 4.82087 687.138 4.84211C686.597 4.8603 686.055 4.87855 685.543 4.65417C685.478 4.16686 685.78 4.16045 686.091 4.1538C686.336 4.14861 686.587 4.1433 686.673 3.90556C686.806 3.53623 686.488 3.52939 686.146 3.52206C685.987 3.51865 685.823 3.51511 685.696 3.47513L684.766 2.5702C684.886 2.28644 685.093 2.23425 686.487 2.15319L687.543 1.24106L685.694 0.354013L685.04 0.876732L684.301 0.258674L683.795 0.714985C683.751 0.714496 683.702 0.754781 683.654 0.795004C683.643 0.804464 683.631 0.814291 683.62 0.823203C683.602 0.836753 683.585 0.849082 683.568 0.858299C683.563 0.861168 683.558 0.863792 683.553 0.866051C683.547 0.868309 683.542 0.870201 683.537 0.871666C683.529 0.873924 683.521 0.875084 683.513 0.875023L680.771 0.847556L680.121 0.243964L679.392 0.765889L675.716 0.729084L675.111 0.16663L674.352 0.783285L671.536 0.755086L670.664 0L669.521 0.477063L669.521 0.572037C669.476 0.571609 669.428 0.611832 669.38 0.652056C669.368 0.661761 669.356 0.671465 669.345 0.680621C669.335 0.687884 669.326 0.694781 669.317 0.701007C669.31 0.706134 669.302 0.710834 669.295 0.714924C669.284 0.721088 669.272 0.72591 669.262 0.728901C669.254 0.731037 669.246 0.732136 669.238 0.732075L655.898 0.598526L655.243 1.189L654.519 0.666094C653.864 0.359079 653.297 0.625016 652.719 0.895959C652.174 1.15128 651.62 1.41111 650.974 1.20053C650.828 1.1301 650.703 1.01327 650.576 0.894188C650.304 0.638628 650.021 0.372996 649.494 0.534377L648.706 1.19144L640.227 1.10654L639.483 1.69615L638.73 1.10507C638.252 0.99081 637.904 1.24863 637.559 1.50334C637.136 1.81688 636.718 2.12567 636.074 1.72984L635.246 1.09738L634.532 1.66014L633.794 1.05569L633.288 1.49839C633.243 1.49796 633.195 1.54154 633.147 1.58519C633.138 1.5933 633.129 1.60142 633.12 1.60923C633.106 1.6215 633.092 1.63304 633.078 1.64287C633.053 1.66044 633.029 1.67222 633.005 1.67198L624.556 1.58738L623.991 2.09741C623.274 2.44928 622.677 2.17779 622.084 1.9085C621.916 1.83177 621.747 1.75517 621.576 1.69328C621.497 1.75859 621.421 1.82396 621.344 1.89287C621.288 1.94335 621.23 1.99572 621.171 2.05145C621.129 2.09124 621.086 2.13275 621.041 2.17639L620.302 1.58549L619.543 2.25641L609.627 2.1571L608.883 2.74678L607.967 2.01836L606.482 2.76344L571.188 2.41004L570.519 3.014L569.78 2.43665L569.036 3.03987L496.358 2.09973L495.39 3.14852L495.322 3.65146L494.455 2.95876L396.061 4.1563L395.055 3.55576L394.054 4.13573L393.148 3.53415L345.367 4.01256L343.357 3.27273L342.116 4.00438L341.11 3.41739L327.685 3.55179L326.659 2.88356L325.658 3.47708C325.396 3.28976 325.175 3.14272 324.933 2.99587C324.702 3.05837 324.474 3.13552 324.245 3.21285C323.443 3.48428 322.634 3.75791 321.664 3.40854L320.899 2.90053L309.461 3.01509C309.401 3.01564 309.335 2.97225 309.27 2.92879C309.204 2.88533 309.139 2.84187 309.079 2.84248L308.395 2.40149L307.394 3.00862L306.428 2.44837L305.307 3.08382C304.434 3.4819 303.869 3.17458 303.296 2.86256C302.831 2.60908 302.359 2.35248 301.712 2.46845L300.691 3.06215L299.685 2.47516L288.206 2.59009L287.14 1.93584C286.427 1.77635 286.043 2.04302 285.674 2.2995C285.502 2.41901 285.333 2.53626 285.136 2.60725C284.261 2.82008 283.511 2.56226 282.774 2.3089C282.237 2.1242 281.707 1.94188 281.14 1.94597L280.966 1.88372L280.821 1.96856C280.664 1.9901 280.503 2.02782 280.337 2.08538L279.924 2.30701L279.08 1.78343L278.595 2.10522L278.471 2.02264L273.878 2.06866L273.42 1.75389L272.803 2.0794L267.328 2.13421L266.638 1.65886L265.818 2.14935L261.73 2.1903L260.618 1.47648L259.549 1.80321L258.48 1.47648L257.368 2.1903L253.28 2.14935L252.46 1.65886L251.77 2.13421L246.295 2.0794L245.678 1.75389L245.22 2.06866L240.627 2.02264L240.503 2.10522L240.019 1.78343L239.174 2.30695L238.761 2.08538C238.596 2.02782 238.435 1.9901 238.277 1.96856L238.132 1.88372L237.958 1.94597C237.391 1.94188 236.861 2.1242 236.324 2.3089C235.587 2.56226 234.837 2.82008 233.962 2.60725C233.765 2.53626 233.596 2.41901 233.424 2.2995C233.055 2.04302 232.671 1.77635 231.958 1.93584L230.892 2.59009L219.413 2.47516L218.407 3.06215L217.386 2.46845C216.739 2.35248 216.268 2.60908 215.802 2.86256C215.229 3.17458 214.664 3.4819 213.791 3.08382L212.67 2.44837L211.704 3.00862L210.704 2.40149L210.019 2.84248C209.959 2.84187 209.894 2.88533 209.828 2.92879C209.763 2.97225 209.698 3.01564 209.637 3.01509L198.199 2.90053L197.434 3.40854C196.464 3.75791 195.655 3.48428 194.853 3.21285C194.624 3.13552 194.396 3.05837 194.165 2.99587C193.923 3.14272 193.702 3.28976 193.44 3.47708L192.439 2.88356L191.413 3.55179L177.988 3.41739L176.982 4.00438L175.741 3.27273L173.731 4.01256L125.95 3.53415L125.044 4.13573L124.043 3.55576L123.037 4.1563L24.6435 2.95876L23.3347 4.00407L23.0883 5.3586L21.7229 5.53493C21.5208 5.72531 21.3739 5.94541 21.2232 6.17112C20.938 6.5982 20.6395 7.04529 19.9292 7.34889L18.9882 6.82385C18.4199 6.89129 18.4159 7.1554 18.4118 7.41536C18.4099 7.54121 18.408 7.66609 18.3421 7.76723L15.6893 8.66343L13.1206 8.63774L12.2552 9.22613L10.529 9.30383L7.8361 10.1996L7.8335 10.8238L6.86726 11.5333L8.72836 12.8004C8.41807 12.9949 8.00507 13.0963 7.5978 13.1963C7.05432 13.3296 6.52104 13.4606 6.25575 13.8069L4.40951 13.7884C4.40359 13.7924 4.39759 13.7963 4.39154 13.8C4.38535 13.804 4.37909 13.8077 4.37278 13.8115L4.35485 13.822L4.33942 13.8306C4.31113 13.8463 4.28243 13.861 4.25457 13.8752L4.25392 13.8755C4.22779 13.8889 4.20239 13.9019 4.17876 13.915C4.11642 13.9495 4.06634 13.9846 4.04727 14.0291C3.92267 14.2222 3.90212 14.4395 3.9892 14.6435C4.07627 14.8475 4.26552 15.0254 4.52428 15.1466C5.10484 15.4917 5.06306 15.8848 4.51933 16.3407L3.57829 15.8156L1.14669 16.6055L1.14067 18.0574L1.92105 18.608L1.90843 21.6475C2.16806 21.9574 2.40305 22.248 2.6282 22.5263C2.93989 22.9118 3.23268 23.2739 3.54581 23.6315C3.74254 23.8563 3.84847 24.0819 3.94842 24.2948C4.12243 24.6654 4.2783 24.9975 4.86373 25.2189C4.85956 26.223 5.78083 26.68 7.18482 26.8705C7.44099 26.873 7.6692 27.0591 7.90066 27.2478L7.90137 27.2484C7.9364 27.277 7.97151 27.3056 8.0068 27.3337C8.08519 27.3959 8.16448 27.4554 8.24583 27.5053L11.1155 27.534L12.5163 28.5115C11.9012 28.9201 11.1605 28.8711 10.462 28.8249C10.0178 28.7955 9.59059 28.7672 9.22358 28.8585L7.75484 29.753L7.7492 31.1099C8.07846 31.4437 8.52239 31.4444 8.96894 31.445C9.14576 31.4453 9.323 31.4456 9.49369 31.4666C10.0329 31.5762 10.5619 31.7084 11.0775 31.8625C9.53096 32.0859 7.94317 32.1613 6.36042 32.0866C5.985 32.4441 5.42386 32.5773 4.82394 32.7198C4.52243 32.7915 4.21082 32.8654 3.90838 32.9713L4.86835 33.7679L2.15357 35.0977L1.4929 34.7111C1.25684 34.7316 1.09468 34.8484 0.928087 34.9686C0.697967 35.1345 0.459354 35.3065 0.0056424 35.239L0 36.596C0.604622 36.602 0.9123 36.8565 1.22265 37.1132C1.41703 37.2739 1.61245 37.4356 1.88254 37.5375L1.87689 38.8945L0.971594 39.4282L0.965952 40.7852C1.41345 41.2964 2.17653 41.5543 2.90875 41.8017C3.25502 41.9187 3.59439 42.0334 3.89021 42.1715C4.62408 42.5585 5.29509 42.9975 5.89163 43.4806L8.61734 44.3492L12.3998 46.884L12.3946 48.1188C11.9208 48.4424 11.3884 48.4056 10.8688 48.3696C10.594 48.3506 10.3227 48.3319 10.0657 48.3669C9.77618 48.5808 9.6209 48.8654 9.46838 49.1448C9.23909 49.565 9.01603 49.9737 8.35258 50.1138C7.31448 50.3008 6.39764 50.7105 5.73879 51.2817L5.7281 53.8599L6.82843 54.6852L5.77927 56.0316C5.62553 56.2561 5.58104 56.5084 5.65209 56.7527C5.72315 56.9971 5.90612 57.221 6.17499 57.3925C6.68965 57.6822 6.68062 58.035 6.66963 58.4644C6.66436 58.6698 6.65866 58.8928 6.7096 59.1348L8.85313 60.0519C8.15937 60.7633 7.12301 61.2893 5.91691 61.5423C5.24474 61.6842 5.00977 62.1017 4.77007 62.5276C4.61584 62.8016 4.45966 63.0792 4.18377 63.289L2.17698 63.2689C1.53208 63.6626 1.59625 64.108 1.66636 64.5945C1.7056 64.8669 1.74669 65.1522 1.66622 65.4485L2.60624 66.2178L2.60095 67.4933L1.87568 68.1646L1.87005 69.5215L4.1314 71.0639C4.76392 70.9187 5.20326 71.1739 5.63772 71.4264C6.05874 71.671 6.47518 71.913 7.05841 71.7853C7.32966 71.9335 7.57206 72.0999 7.81233 72.2647C8.42334 72.684 9.02045 73.0937 10.0429 73.1721C10.5152 73.2301 10.9482 73.4706 11.3757 73.7081C11.8196 73.9547 12.2576 74.198 12.7277 74.2303C13.1136 74.2569 13.4744 74.4351 13.8516 74.6214C14.3764 74.8806 14.9332 75.1557 15.6342 75.0601C15.9569 75.4507 16.5136 75.576 17.068 75.7007C17.5428 75.8075 18.0159 75.9139 18.3388 76.1863C18.6796 76.4738 19.1643 76.4861 19.6875 76.4994C20.2388 76.5134 20.8328 76.5284 21.3462 76.8677C21.6831 77.1192 22.2205 77.1779 22.8058 77.2419C23.4369 77.3109 24.1236 77.3859 24.6741 77.7153C24.9899 77.8909 25.4453 77.8621 25.9364 77.831C26.5661 77.7911 27.2546 77.7475 27.783 78.1264C28.3925 78.5635 29.0968 78.5226 29.8337 78.4799C30.2337 78.4567 30.6434 78.433 31.0527 78.4848L32.1138 79.106L35.9467 79.1444L37.0275 79.8338L42.7469 79.891L43.4474 80.3458C43.5076 80.3464 43.5626 80.3979 43.6175 80.4493C43.6725 80.5007 43.7275 80.5522 43.7877 80.5528L87.1757 81.1998L87.8761 81.6817C87.8912 81.6904 87.9063 81.6997 87.9214 81.7094C87.939 81.7206 87.9566 81.7324 87.9742 81.7442C88.0616 81.8026 88.1489 81.8608 88.2365 81.8618L93.9157 81.9186L94.7555 82.6462L100.535 82.7041L101.456 83.3375L109.242 83.4155L110.067 82.8674L177.494 83.5425L178.495 84.1089L179.501 83.549L181.488 83.5689L182.488 84.2031L190.224 84.2806C190.454 84.2887 190.642 84.2907 190.795 84.2863L201.912 84.3976L202.756 84.9463L213.211 84.8416C213.323 84.8405 213.423 84.8999 213.52 84.9579C213.544 84.9726 213.569 84.9872 213.593 85.0006L214.297 85.4549L223.869 85.3591L224.916 86L225.896 85.3795L229.709 85.3413L230.655 85.8611L231.96 85.3091L232.552 85.315L233.484 85.8599C233.513 85.8661 233.564 85.8476 233.622 85.8263L233.623 85.8262C233.688 85.8026 233.762 85.7757 233.825 85.7751L234.466 85.3342L234.561 85.3352C235.25 85.6916 235.608 85.8718 235.966 85.8723C236.313 85.8728 236.661 85.704 237.312 85.3627L237.632 85.3659L238.441 85.8238L241.09 85.7973L242.027 85.41L243.554 85.4252L244.14 85.7396L259.549 85.5854L274.958 85.7396L275.544 85.4252L277.071 85.41L278.008 85.7973L280.657 85.8238L281.466 85.3659L281.786 85.3627C282.438 85.704 282.785 85.8728 283.132 85.8723C283.49 85.8718 283.848 85.6916 284.538 85.3352L284.632 85.3342L285.273 85.7751C285.336 85.7757 285.41 85.8026 285.475 85.8262L285.503 85.8363C285.518 85.8414 285.531 85.8461 285.544 85.85C285.573 85.8588 285.597 85.8635 285.614 85.8599L286.546 85.315L287.138 85.3091L288.443 85.8611L289.389 85.3413L293.202 85.3795L294.182 86L295.229 85.3591L304.801 85.4549L305.505 85.0006C305.53 84.9872 305.554 84.9726 305.579 84.9579C305.676 84.8999 305.775 84.8405 305.887 84.8416L316.342 84.9463L317.186 84.3976L328.303 84.2863C328.457 84.2907 328.644 84.2887 328.874 84.2806L336.61 84.2031L337.61 83.5689L339.597 83.549L340.603 84.1089L341.604 83.5425L409.031 82.8674L409.856 83.4155L417.643 83.3375L418.563 82.7041L424.343 82.6462L425.182 81.9186L430.862 81.8618C430.949 81.8608 431.036 81.8026 431.124 81.7442C431.157 81.7224 431.189 81.7005 431.222 81.6817L431.922 81.1998L475.31 80.5528C475.371 80.5522 475.426 80.5007 475.481 80.4493C475.536 80.3979 475.591 80.3464 475.651 80.3458L476.351 79.891L482.071 79.8338L483.151 79.1444L486.984 79.106L488.045 78.4848C488.455 78.433 488.864 78.4567 489.264 78.4799C490.001 78.5226 490.706 78.5635 491.315 78.1264C491.843 77.7475 492.532 77.7911 493.162 77.831C493.653 77.8621 494.108 77.8909 494.424 77.7153C494.975 77.3859 495.661 77.3109 496.292 77.2419C496.816 77.1847 497.301 77.1317 497.639 76.9411C497.979 76.9349 498.317 76.9891 498.595 77.2583C499.045 77.6938 499.565 77.6511 500.11 77.6065C500.405 77.5822 500.708 77.5574 501.01 77.6082L501.793 78.2267L504.624 78.255L505.422 78.9415L509.647 78.9838L510.164 79.4368C510.172 79.4368 510.181 79.4389 510.189 79.4424C510.203 79.4485 510.217 79.4592 510.231 79.4726C510.251 79.4915 510.27 79.5156 510.289 79.5398C510.33 79.5911 510.37 79.6423 510.415 79.6428L542.463 80.1763L542.98 80.6564C542.991 80.6653 543.003 80.675 543.014 80.6849L543.037 80.705L543.052 80.7187C543.062 80.7274 543.072 80.7361 543.081 80.7445C543.103 80.7637 543.125 80.782 543.147 80.797C543.159 80.8054 543.171 80.8128 543.183 80.8188C543.204 80.829 543.225 80.8353 543.246 80.8355L547.441 80.8775L548.06 81.6029L552.329 81.6456L553.009 82.2766L558.76 82.3343L559.37 81.784L609.175 82.2827L609.914 82.8464L610.658 82.284L612.125 82.2986L612.864 82.9302L642.687 83.2289L643.455 83.915C643.939 84.0794 644.215 83.8538 644.531 83.5962C644.553 83.5784 644.575 83.5604 644.597 83.5424C644.648 83.501 644.701 83.4593 644.756 83.4189C644.861 83.3421 644.975 83.27 645.104 83.2123L646.495 83.8776L681.165 84.2247L682.102 83.542L683.418 84.2744L685.375 84.294L686.089 83.7448C686.648 84.1409 686.925 84.337 687.202 84.336C687.474 84.335 687.745 84.1444 688.283 83.7668L688.785 84.2332C688.802 84.2334 688.821 84.2372 688.84 84.2432C688.871 84.2533 688.904 84.2692 688.934 84.2838C688.977 84.3049 689.015 84.3234 689.036 84.3172L689.914 83.6203L691.126 84.3109L691.825 83.7887L694.642 83.8169L695.366 84.4348L696.139 83.7912L703.21 83.8619L703.73 83.4058C703.737 83.4004 703.745 83.3948 703.752 83.3892C703.763 83.3805 703.774 83.3717 703.785 83.3628C703.856 83.3047 703.93 83.2449 704.013 83.2458L711.735 83.3231L712.435 82.7059L714.643 82.728L714.943 82.0525L709.621 81.9992L708.877 82.616L708.168 82.0526L707.291 82.6951L696.737 82.5894L696.038 83.0845L678.25 82.9064L677.611 83.4835C677.458 83.3959 677.325 83.2692 677.195 83.1461C676.937 82.9005 676.695 82.6693 676.339 82.7923L675.09 83.6211L673.952 82.8634L669.045 82.8142L668.272 83.3629L667.696 82.8279L667.666 82.826L667.644 82.8247L667.612 82.8233C667.595 82.8227 667.577 82.8222 667.56 82.8218C667.539 82.8214 667.517 82.8212 667.496 82.8213C667.454 82.8214 667.412 82.8225 667.37 82.8246L639.978 82.5504C639.916 82.5498 639.848 82.497 639.782 82.4463L639.781 82.4454L639.775 82.4411L639.753 82.4246L639.734 82.4105C639.721 82.4011 639.709 82.3924 639.697 82.3847L639.195 81.9183L638.436 82.5078L637.043 82.4939L636.304 81.8623L631.398 81.8131L630.58 82.4291L629.916 81.7576L612.128 81.5795L611.464 80.9758L610.646 81.5782L609.252 81.5642L608.514 80.9326L607.8 81.509L607.061 80.9452L606.436 81.4953L605.697 80.9316L604.954 81.5212L602.893 81.5005L602.14 80.7874C601.687 80.6098 601.419 80.8258 601.15 81.043C600.997 81.1664 600.844 81.2903 600.656 81.3425L599.931 80.806L599.321 81.3563L598.583 80.7789L597.839 81.3821L595.823 81.3619L595.099 80.7441L594.341 81.3878L593.735 80.8254L561.554 80.5032L560.944 81.0398L560.206 80.4625L559.477 81.0523L558.768 80.4345L557.463 80.4215L556.319 81.1157L555.136 80.466L554.6 80.9492L550.153 80.9046L549.43 80.2596L545.561 80.2209L545.803 79.002L547.374 79.0178L548.113 79.6629L556.621 79.7481L557.395 79.1588L557.985 79.7211L561.735 79.7586L562.375 79.168L565.118 79.1954C565.183 79.196 565.256 79.2482 565.326 79.2977C565.351 79.3155 565.375 79.3329 565.398 79.3475L565.915 79.8276L566.659 79.2108L571.61 79.2604L572.349 79.8649L573.077 79.3158L575.034 79.3354L576.365 80.068L577.332 79.3449L579.466 79.3662C579.533 79.4178 579.6 79.4805 579.669 79.5463C579.953 79.8136 580.291 80.1322 580.946 79.9646L581.675 79.3612L586.626 79.4108L587.172 79.864C587.907 80.2233 588.207 79.8952 588.423 79.6593C588.506 79.5677 588.577 79.49 588.656 79.4718L590.835 79.4936L591.766 80.1679L617.899 80.4295L618.46 80.9508L619.797 80.2721L620.683 81.0273L624.211 81.0627L624.955 80.4866L625.679 81.0231L627.606 81.0424L628.988 80.337L629.918 81.0655L653.991 81.3065C654.08 81.3074 654.168 81.4169 654.257 81.4856L654.759 81.9384L655.503 81.3488L656.212 81.9123L657.03 81.3098C657.214 81.3363 657.399 81.3317 657.58 81.3273C657.998 81.317 658.395 81.3072 658.703 81.6794C659.003 82.0403 659.392 82.0235 659.795 82.0061C659.989 81.9977 660.185 81.9892 660.377 82.0219C660.5 81.9517 660.613 81.8564 660.726 81.7601C661.022 81.5087 661.327 81.2502 661.862 81.4125L662.571 82.0167L663.315 81.4135L663.905 81.9757L669.834 82.0351C669.998 81.8739 670.162 81.7263 670.34 81.5788L671.687 82.2165L672.579 81.5198L673.318 82.1378L674.711 82.1518L675.618 81.3874L676.95 82.0928L677.589 81.5292L694.665 81.7002L695.32 81.0961L696.088 81.7009L697.482 81.7149C697.614 81.6329 697.732 81.5201 697.849 81.4089C698.113 81.1575 698.369 80.9136 698.759 81.0492L699.986 81.8892L701.264 81.0742L705.37 81.1153L705.936 80.6189L707.267 81.2972L708.159 80.5733L709.223 81.3575L710.309 80.6084L717.483 80.6803C717.537 80.6808 717.586 80.7373 717.656 80.8188C717.701 80.8704 717.754 80.932 717.823 80.9958C717.528 81.1017 717.225 81.1893 716.917 81.2581C716.339 81.2523 715.761 81.2465 715.183 81.3629C715.136 81.4119 715.097 81.5273 715.058 81.6438C715.022 81.7509 714.986 81.8588 714.943 81.9168ZM293.054 84.6317C293.024 84.6205 292.994 84.6098 292.962 84.5994L292.877 84.6299L293.054 84.6317ZM262.334 84.3241L262.377 84.2951C262.524 84.2871 262.671 84.2857 262.818 84.2906L299.903 83.9193C299.986 83.9185 300.079 83.8654 300.169 83.8143C300.208 83.7918 300.247 83.7697 300.284 83.7527L300.964 83.2845L301.99 83.8713L303.876 83.8524L304.877 83.2182L311.52 83.1517L312.626 83.7648L313.526 83.0909L320.986 83.0162C320.993 83.0094 321 83.0035 321.006 82.9982C321.789 82.8839 322.572 82.8918 323.355 82.8996C323.772 82.8319 324.181 82.7453 324.58 82.6405C324.487 82.5764 324.415 82.5146 324.355 82.4629C324.295 82.4115 324.247 82.3701 324.201 82.3462L321.25 82.3758L321.105 82.2936L319.381 82.2763L319.263 82.3413L316.654 82.3675L316.329 82.2458L314.407 82.2265L312.939 82.9717L311.92 82.4149L311.096 82.4231L310.29 82.9045L309.073 82.4434L308.129 82.4528L307.722 82.7159L302.163 82.6602L300.434 83.4707L298.772 82.6263C298.244 82.4893 297.897 82.7323 297.54 82.9828C297.382 83.0937 297.222 83.206 297.043 83.2875L295.157 83.2686L294.116 82.6611L293.23 83.2629L280.232 83.1327L279.892 83.3597L279.491 83.1254L278.308 83.1135L277.926 83.3387L277.495 83.1053L274.598 83.0763C274.583 83.0887 274.568 83.1014 274.553 83.1147C274.147 83.4767 273.621 83.4612 273.074 83.4452C272.813 83.4376 272.547 83.4297 272.287 83.4631C272.12 83.3934 271.968 83.2985 271.815 83.2026C271.73 83.1493 271.644 83.0957 271.555 83.0459L270.112 83.0314L269.247 83.5927L267.984 83.0954L267.511 83.4294L266.547 83.4391L266.217 83.6438L264.33 83.6249L264.071 83.4639L262.502 83.4796L262.122 83.6978L261.531 83.4893L259.616 83.5085C259.616 83.5089 259.615 83.5094 259.615 83.5098L259.549 83.5091L259.484 83.5098C259.483 83.5094 259.482 83.5089 259.482 83.5085L257.567 83.4893L256.976 83.6978L256.596 83.4796L255.027 83.4639L254.768 83.6249L252.881 83.6438L252.551 83.4391L251.588 83.4294L251.114 83.0954L249.851 83.5927L248.986 83.0314L247.543 83.0459C247.454 83.0957 247.368 83.1493 247.283 83.2026C247.13 83.2985 246.978 83.3934 246.811 83.4631C246.551 83.4297 246.285 83.4376 246.024 83.4452C245.477 83.4612 244.951 83.4767 244.545 83.1147C244.53 83.1014 244.515 83.0887 244.5 83.0763L241.603 83.1053L241.172 83.3387L240.79 83.1135L239.607 83.1254L239.206 83.3597L238.866 83.1327L225.868 83.2629L224.982 82.6611L223.941 83.2686L222.055 83.2875C221.876 83.206 221.716 83.0937 221.558 82.9828C221.201 82.7323 220.854 82.4893 220.326 82.6263L218.664 83.4707L216.935 82.6602L211.376 82.7159L210.969 82.4528L210.025 82.4434L208.808 82.9045L208.002 82.4231L207.178 82.4149L206.159 82.9717L204.691 82.2265L202.769 82.2458L202.444 82.3675L199.835 82.3413L199.717 82.2763L197.993 82.2936L197.848 82.3758L194.897 82.3462C194.852 82.3701 194.803 82.4115 194.744 82.4629C194.683 82.5146 194.611 82.5764 194.518 82.6405C194.917 82.7453 195.327 82.8319 195.743 82.8996C196.526 82.8918 197.309 82.8839 198.092 82.9982C198.099 83.0035 198.105 83.0094 198.112 83.0162L205.572 83.0909L206.472 83.7648L207.579 83.1517L214.221 83.2182L215.222 83.8524L217.108 83.8713L218.134 83.2845L218.814 83.7527C218.851 83.7697 218.89 83.7918 218.929 83.8143C219.019 83.8654 219.112 83.9185 219.195 83.9193L256.28 84.2906C256.427 84.2857 256.575 84.2871 256.721 84.2951L256.764 84.3241L258.509 84.3067L258.548 84.2862L259.549 84.2962L260.55 84.2862L260.589 84.3067L262.334 84.3241ZM226.221 84.6299L226.136 84.5994C226.104 84.6098 226.074 84.6205 226.044 84.6317L226.221 84.6299ZM191.594 82.9509C191.388 82.8901 191.179 82.8346 190.967 82.7846C190.345 82.4746 189.779 82.1173 189.279 81.72L153.923 81.366L152.661 80.6885L149.711 80.6589C149.605 80.6768 149.509 80.7543 149.396 80.8456C149.104 81.0807 148.699 81.4078 147.703 81.0459L146.962 80.5907L140.26 80.5235L139.274 81.1243C138.387 81.2897 137.929 80.9699 137.545 80.7016C137.45 80.6355 137.36 80.5726 137.269 80.5208L134.38 80.4919L133.072 81.2115L131.269 80.4743L128.62 80.4477L127.635 80.9942L126.634 80.3871L119.931 80.32L118.925 80.9342L118.225 80.4522L118.206 80.4434L118.187 80.4341C118.167 80.424 118.147 80.4132 118.127 80.4024C118.032 80.3526 117.933 80.3 117.844 80.2991L114.132 80.2619L113.266 80.8504L108.189 80.7995L107.389 80.2351L106.343 80.8218L94.8239 80.7064L93.8231 80.0586L91.696 80.0373L91.3698 81.2554L96.6074 81.3078L97.5881 81.9554L103.608 82.0156L104.333 81.5344L105.936 82.1883L107.484 81.4981L109.25 81.5158L110.21 82.1361L111.196 81.5488L112.197 82.1288L113.022 81.5942L156.589 82.0305L157.41 82.5951L158.436 81.954L159.417 82.5744L162.146 82.6018L163.152 82.0012L164.153 82.5811L164.978 82.033L165.959 82.5721C166.214 82.5206 166.421 82.3973 166.628 82.2744C166.992 82.0582 167.355 81.8431 167.968 82.0223L168.989 82.7381L171.778 82.7661L172.784 82.179L173.785 82.7455L174.63 82.1975L175.631 82.7639L176.597 82.1901L177.598 82.8243L179.484 82.8432L180.59 82.2437L181.491 82.8498L191.594 82.9509ZM329.819 81.72C329.32 82.1173 328.753 82.4746 328.132 82.7846C327.919 82.8346 327.71 82.8901 327.504 82.9509L337.607 82.8498L338.508 82.2437L339.614 82.8432L341.5 82.8243L342.501 82.1901L343.467 82.7639L344.468 82.1975L345.313 82.7455L346.314 82.179L347.32 82.7661L350.109 82.7381L351.13 82.0223C351.744 81.8431 352.106 82.0582 352.47 82.2744C352.677 82.3973 352.884 82.5206 353.139 82.5721L354.12 82.033L354.945 82.5811L355.946 82.0012L356.952 82.6018L359.682 82.5744L360.662 81.954L361.688 82.5951L362.509 82.0305L406.076 81.5942L406.901 82.1288L407.902 81.5488L408.888 82.1361L409.848 81.5158L411.614 81.4981L413.162 82.1883L414.765 81.5344L415.49 82.0156L421.51 81.9554L422.491 81.3078L427.728 81.2554L427.402 80.0373L425.275 80.0586L424.274 80.7064L412.755 80.8218L411.709 80.2351L410.909 80.7995L405.832 80.8504L404.967 80.2619L401.254 80.2991C401.165 80.3 401.066 80.3524 400.972 80.4022C400.938 80.42 400.905 80.4375 400.873 80.4522L400.173 80.9342L399.167 80.32L392.464 80.3871L391.463 80.9942L390.478 80.4477L387.829 80.4743L386.026 81.2115L384.718 80.4919L381.829 80.5208C381.738 80.5726 381.648 80.6355 381.553 80.7016C381.169 80.9699 380.711 81.2897 379.824 81.1243L378.838 80.5235L372.136 80.5907L371.395 81.0459C370.399 81.4078 369.994 81.0807 369.703 80.8456C369.589 80.7543 369.493 80.6768 369.387 80.6589L366.437 80.6885L365.175 81.366L329.819 81.72ZM729.458 13.5072C729.04 14.1679 729.04 14.1679 728.093 13.8735C728.273 13.4122 728.617 13.4568 728.963 13.5017C729.134 13.5239 729.306 13.5461 729.458 13.5072ZM728.178 29.0726C728.157 29.1432 728.141 29.2168 728.125 29.2878C728.052 29.6246 727.992 29.9041 727.479 29.5405C727.699 29.3694 727.933 29.213 728.178 29.0726ZM500.591 76.3013C500.305 76.4568 499.949 76.4834 499.566 76.4952L499.695 76.5502C499.912 77.0191 500.349 76.9896 500.802 76.9591H500.807C500.905 76.9524 501.004 76.9456 501.102 76.9442C501.252 76.942 501.406 76.9591 501.562 76.9764C501.975 77.0222 502.395 77.0689 502.763 76.7573C502.519 76.6116 502.355 76.514 502.187 76.4479C501.867 76.3229 501.529 76.3113 500.591 76.3013ZM494.54 76.4459C494.417 76.3931 494.311 76.3249 494.227 76.2452C494.431 76.3163 494.67 76.3507 494.92 76.3868C495.134 76.4178 495.358 76.4501 495.576 76.508C495.431 76.5475 495.275 76.5668 495.118 76.5641C494.912 76.5607 494.713 76.5198 494.54 76.4459ZM507.473 77.7271C504.286 77.6953 504.286 77.6953 503.695 77.2415C503.739 77.242 503.784 77.195 503.828 77.1479C503.873 77.1008 503.918 77.0538 503.962 77.0542L510.232 77.117L511.311 77.8742L512.797 77.1155L514.202 77.8759C514.454 77.8017 514.647 77.6572 514.833 77.5181C515.14 77.2889 515.427 77.0745 515.924 77.2147L516.766 77.8881L522.414 77.9446L523.064 78.5482C523.637 78.5269 542.785 78.9312 543.357 78.964C543.467 78.9651 543.586 78.949 543.708 78.9324C544.117 78.8769 544.567 78.8161 544.838 79.3723C544.798 79.4035 544.76 79.4448 544.724 79.4838C544.691 79.5195 544.66 79.5532 544.63 79.5751C544.609 79.5909 544.589 79.6005 544.57 79.6004C544.037 79.595 538.878 79.4903 533.711 79.3855L533.569 79.3826C528.436 79.2785 523.339 79.1752 522.809 79.1699C522.597 79.1263 522.393 79.0557 522.202 78.9603L521.685 78.5072L508.582 78.3761C508.358 78.3408 508.143 78.2698 507.945 78.1661L507.473 77.7271ZM701.353 13.4429C701.381 13.4746 701.423 13.5065 701.462 13.5367C701.526 13.5848 701.583 13.629 701.574 13.6622C701.521 13.8149 701.445 13.9601 701.35 14.0942C701.276 14.0935 701.113 13.929 701.128 13.8885C701.188 13.7339 701.263 13.5848 701.353 13.4429ZM479.296 78.6266C483.611 78.5835 483.611 78.5835 484.411 78.1276C484.351 78.1282 484.291 78.0813 484.23 78.0345C484.17 77.9876 484.11 77.9407 484.049 77.9413L475.561 78.0263L474.099 78.7872L472.089 78.0339L470.186 78.7993C469.844 78.7259 469.583 78.5821 469.332 78.4437C468.917 78.2156 468.529 78.0022 467.855 78.1441L466.714 78.8205L459.068 78.897L458.188 79.5029C457.412 79.4837 431.488 79.9558 430.713 79.9906C430.639 79.9914 430.562 79.9878 430.482 79.982C430.403 79.9762 430.322 79.9683 430.239 79.9602C429.685 79.9063 429.076 79.8469 428.708 80.4042C428.763 80.4352 428.814 80.4764 428.863 80.5152C428.94 80.5766 429.009 80.6319 429.07 80.6313C429.793 80.6241 436.797 80.5008 443.801 80.3775C450.805 80.2542 457.809 80.1309 458.531 80.1237C458.818 80.0794 459.095 80.0081 459.353 79.9119L460.054 79.4571L477.794 79.2795C478.097 79.2435 478.388 79.1716 478.656 79.0673L479.296 78.6266ZM488.903 77.1735C486.675 77.1957 486.675 77.1958 485.674 77.64C486.171 77.9504 486.74 77.9023 487.299 77.8549C487.51 77.8371 487.719 77.8194 487.922 77.8211C488.057 77.8222 488.193 77.8286 488.328 77.835C488.941 77.8639 489.533 77.8918 489.827 77.4221L491.992 76.7355L489.984 76.4842L488.903 77.1735ZM492.633 76.634L492.293 76.8681C492.491 76.956 492.708 77.0225 492.936 77.0653C492.936 77.0653 493.177 76.9407 493.176 76.8593L492.633 76.634ZM34.6866 78.1276C35.4875 78.5835 35.4874 78.5835 39.802 78.6266L40.4424 79.0673C40.7097 79.1716 41.0015 79.2435 41.3045 79.2795L59.0444 79.4571L59.7449 79.9119C60.0033 80.0081 60.28 80.0794 60.5668 80.1237C61.2893 80.1309 68.2934 80.2542 75.2975 80.3775L75.5278 80.3816C82.4543 80.5035 89.3133 80.6241 90.0278 80.6313C90.0893 80.6319 90.1585 80.5766 90.2353 80.5152C90.2839 80.4764 90.3354 80.4352 90.39 80.4042C90.0216 79.8469 89.4129 79.9063 88.8592 79.9602C88.6936 79.9764 88.5328 79.9921 88.3849 79.9906C87.6096 79.9558 61.6861 79.4837 60.9106 79.5029L60.0301 78.897L52.3842 78.8205L51.2432 78.1441C50.5691 78.0022 50.1813 78.2156 49.7665 78.4437C49.515 78.5821 49.2536 78.7259 48.9125 78.7993L47.0091 78.0339L44.9991 78.7872L43.5373 78.0263L35.0486 77.9413C34.9884 77.9407 34.928 77.9876 34.8676 78.0345C34.8072 78.0813 34.7468 78.1282 34.6866 78.1276ZM33.4243 77.64C32.4227 77.1958 32.4227 77.1957 30.1952 77.1735L29.1144 76.4842L27.1065 76.7355L29.271 77.4221C29.5649 77.8918 30.157 77.8639 30.7697 77.835C30.9051 77.8286 31.0415 77.8222 31.1759 77.8211C31.3791 77.8194 31.5883 77.8371 31.799 77.8549C32.358 77.9023 32.9275 77.9504 33.4243 77.64ZM23.3814 75.844C23.2051 75.9103 23.058 76.0068 22.9548 76.1239L22.9546 76.1782C23.0596 76.2985 23.2103 76.3978 23.3908 76.4658C23.5712 76.5336 23.7749 76.5676 23.9802 76.5641C24.1856 76.5607 24.3851 76.5198 24.5578 76.4459C24.7305 76.3719 24.8699 76.2677 24.9616 76.144C24.8593 76.0248 24.7131 75.9254 24.5374 75.8555C24.3617 75.7857 24.1626 75.7478 23.9598 75.7458C23.757 75.7438 23.5576 75.7776 23.3814 75.844ZM26.8049 76.8681L26.4647 76.634L25.9219 76.8593C25.9215 76.9407 26.1619 77.0653 26.1619 77.0653C26.3903 77.0225 26.6072 76.956 26.8049 76.8681Z" fill="url(#paint0_linear_48_2573)"/>
<path d="M730.918 33.0625C730.552 32.6501 730.18 32.6304 729.777 32.6093C729.498 32.5945 729.205 32.5791 728.89 32.4315L728.432 32.0469L727.065 32.9017C727.267 32.9779 727.42 33.0474 727.542 33.1031C727.733 33.1901 727.85 33.2435 727.968 33.2364C728.956 33.3407 729.955 33.2818 730.918 33.0625Z" fill="url(#paint1_linear_48_2573)"/>
<path d="M733.668 27.6213L733.665 28.4083C732.282 29.6158 732.163 29.6553 731.528 29.0518C731.964 28.8745 732.099 28.5119 732.247 28.1117C732.332 27.8844 732.421 27.645 732.572 27.4203L733.668 27.6213Z" fill="url(#paint2_linear_48_2573)"/>
<path d="M723.48 82.3958C722.378 81.9986 721.171 81.9248 720.027 82.1848C720.039 82.2817 720.049 82.3617 720.076 82.426C720.201 82.7314 720.686 82.6817 723.476 82.396H723.478L723.48 82.3958Z" fill="url(#paint3_linear_48_2573)"/>
<path d="M731.251 13.7422L731 13.5091L731.253 13.0909C731.327 13.1731 731.475 13.3103 731.475 13.3103C731.422 13.4629 731.346 13.6081 731.251 13.7422Z" fill="url(#paint4_linear_48_2573)"/>
<path d="M721.837 78.0642L722.442 78.7352C722.885 78.2682 722.587 78.2115 722.135 78.1258C722.041 78.1079 721.94 78.0887 721.837 78.0642Z" fill="url(#paint5_linear_48_2573)"/>
<defs>
<linearGradient id="paint0_linear_48_2573" x1="14.6429" y1="43" x2="736.786" y2="43" gradientUnits="userSpaceOnUse">
<stop stop-color="#E20E7C"/>
<stop offset="1" stop-color="#E4338F"/>
</linearGradient>
<linearGradient id="paint1_linear_48_2573" x1="14.6429" y1="43" x2="736.786" y2="43" gradientUnits="userSpaceOnUse">
<stop stop-color="#E20E7C"/>
<stop offset="1" stop-color="#E4338F"/>
</linearGradient>
<linearGradient id="paint2_linear_48_2573" x1="14.6429" y1="43" x2="736.786" y2="43" gradientUnits="userSpaceOnUse">
<stop stop-color="#E20E7C"/>
<stop offset="1" stop-color="#E4338F"/>
</linearGradient>
<linearGradient id="paint3_linear_48_2573" x1="14.6429" y1="43" x2="736.786" y2="43" gradientUnits="userSpaceOnUse">
<stop stop-color="#E20E7C"/>
<stop offset="1" stop-color="#E4338F"/>
</linearGradient>
<linearGradient id="paint4_linear_48_2573" x1="14.6429" y1="43" x2="736.786" y2="43" gradientUnits="userSpaceOnUse">
<stop stop-color="#E20E7C"/>
<stop offset="1" stop-color="#E4338F"/>
</linearGradient>
<linearGradient id="paint5_linear_48_2573" x1="14.6429" y1="43" x2="736.786" y2="43" gradientUnits="userSpaceOnUse">
<stop stop-color="#E20E7C"/>
<stop offset="1" stop-color="#E4338F"/>
</linearGradient>
</defs>
</svg>
